<svg width="273" height="273" viewBox="0 0 273 273" fill="none" xmlns="http://www.w3.org/2000/svg">
<mask id="mask0" style="mask-type:alpha" maskUnits="userSpaceOnUse" x="0" y="0" width="273" height="273">
<rect width="273" height="273" rx="66" fill="#63D349"/>
</mask>
<g mask="url(#mask0)">
<rect x="-6" y="-1" width="282" height="282" fill="#63D349"/>
<rect x="-6" y="-1" width="282" height="282" fill="url(#paint0_linear)"/>
<rect x="-6" y="-1" width="282" height="282" fill="url(#paint1_linear)"/>
<path d="M135.019 230.991C101.503 230.527 74.9705 221.712 73.8067 221.48L71.2466 220.552L69.6173 218.464C36.1022 176.012 42.619 117.322 42.8518 114.77L43.0845 112.451L44.481 110.595C71.4793 71.6228 114.77 55.1525 131.993 50.049L135.019 49.1211L138.044 50.049C155.5 55.3845 198.79 71.6228 225.789 110.595L227.185 112.451L227.418 114.77C227.651 117.322 234.168 176.012 200.885 218.232L199.256 220.32L196.696 221.248C195.067 221.712 168.534 230.527 135.019 230.991ZM82.1855 204.777C89.4006 206.865 110.348 212.201 135.019 212.665C159.689 212.201 180.636 206.865 187.851 204.777C211.359 172.765 209.729 129.385 209.031 118.946C186.455 87.8612 151.543 73.4786 135.019 68.1432C118.494 73.4786 83.582 87.8612 60.7731 119.178C60.0748 129.385 58.6784 172.997 82.1855 204.777Z" fill="#091320"/>
<path d="M168.295 166.502H156.89V202.226H137.573V166.502H131.056C116.858 166.502 106.385 156.063 106.385 141.912V89.9492H125.703V139.128C125.703 143.768 129.194 147.247 133.849 147.247H137.573V89.9492H156.89V147.247H168.295V166.502Z" fill="#091320"/>
<path d="M118.488 192.251C123.758 192.251 128.03 187.992 128.03 182.74C128.03 177.487 123.758 173.229 118.488 173.229C113.218 173.229 108.945 177.487 108.945 182.74C108.945 187.992 113.218 192.251 118.488 192.251Z" fill="#091320"/>
</g>
<defs>
<linearGradient id="paint0_linear" x1="-4.20996" y1="1.8916" x2="148.907" y2="162.72" gradientUnits="userSpaceOnUse">
<stop stop-color="#B8EE74"/>
<stop offset="1" stop-color="#99E289" stop-opacity="0"/>
</linearGradient>
<linearGradient id="paint1_linear" x1="-4.20996" y1="1.8916" x2="148.907" y2="162.72" gradientUnits="userSpaceOnUse">
<stop stop-color="#B8EE74"/>
<stop offset="1" stop-color="#99E289" stop-opacity="0"/>
</linearGradient>
</defs>
</svg>
