<svg width="107" height="32" viewBox="0 0 107 32" fill="none" xmlns="http://www.w3.org/2000/svg">
<g clip-path="url(#clip0)">
<path d="M103.196 32H3.74896C2.75532 31.9979 1.80297 31.5985 1.10036 30.8894C0.397745 30.1802 0.00209409 29.2189 0 28.216L0 3.784C0 2.78042 0.394979 1.81795 1.09805 1.10831C1.80111 0.39867 2.75468 2.17431e-08 3.74896 2.1743e-08H103.196C104.195 -0.000107257 105.154 0.396767 105.866 1.10484C106.578 1.81291 106.985 2.7753 107 3.784V28.216C106.983 29.224 106.575 30.1852 105.864 30.8929C105.153 31.6005 104.194 31.998 103.196 32Z" fill="#A6A6A6"/>
<path d="M106.207 28.216C106.207 29.0286 105.887 29.8079 105.318 30.3825C104.749 30.9572 103.977 31.28 103.171 31.28H3.74863C2.9428 31.28 2.16986 30.9574 1.59931 30.383C1.02876 29.8087 0.707177 29.0293 0.705078 28.216V3.78398C0.705078 2.96923 1.02574 2.18785 1.59651 1.61174C2.16729 1.03563 2.94143 0.711975 3.74863 0.711975H103.195C103.998 0.718316 104.765 1.04502 105.329 1.62068C105.894 2.19633 106.209 2.97411 106.207 3.78398V28.216Z" fill="black"/>
<path d="M23.8804 15.824C23.8904 15.0423 24.0962 14.2758 24.4787 13.596C24.8612 12.9161 25.4079 12.3451 26.068 11.936C25.6455 11.3335 25.0911 10.8374 24.4477 10.4864C23.8044 10.1353 23.0895 9.9388 22.3587 9.91203C20.7735 9.75203 19.2913 10.856 18.4987 10.856C17.7061 10.856 16.4618 9.92803 15.1461 9.96003C14.2943 9.98682 13.464 10.236 12.7361 10.6833C12.0082 11.1305 11.4076 11.7606 10.9929 12.512C9.19369 15.656 10.5332 20.264 12.2531 22.8C13.117 24.04 14.1236 25.432 15.4235 25.384C16.7233 25.336 17.1909 24.584 18.7444 24.584C20.2979 24.584 20.7338 25.384 22.0812 25.384C23.4287 25.384 24.3322 24.136 25.1644 22.88C25.7811 21.9947 26.2571 21.0176 26.5752 19.984C25.77 19.6357 25.0846 19.055 24.6052 18.3149C24.1258 17.5748 23.8736 16.7083 23.8804 15.824Z" fill="white"/>
<path d="M21.3448 8.24801C22.0967 7.33407 22.4663 6.16042 22.3752 4.97601C21.2257 5.09576 20.1639 5.65025 19.4029 6.52801C19.0282 6.95638 18.7413 7.45554 18.559 7.9966C18.3767 8.53765 18.3025 9.10984 18.3409 9.68001C18.9163 9.68616 19.4856 9.56049 20.0059 9.31245C20.5262 9.0644 20.984 8.70046 21.3448 8.24801Z" fill="white"/>
<path d="M42.523 25.2H40.7159L39.7331 22.08H36.3091L35.3659 25.2H33.6143L37.0066 14.56H39.1069L42.523 25.2ZM39.4398 20.8L38.5442 18.016C38.4491 17.736 38.2747 17.064 38.0131 16.008C37.9101 16.464 37.7437 17.136 37.5138 18.016L36.6023 20.8H39.4398Z" fill="white"/>
<path d="M51.2493 21.272C51.3102 22.4017 50.9353 23.5113 50.2031 24.368C49.9083 24.694 49.5479 24.9525 49.146 25.1264C48.7441 25.3002 48.31 25.3853 47.8729 25.376C47.4488 25.4065 47.0244 25.3216 46.6438 25.1303C46.2632 24.9389 45.9405 24.6481 45.7091 24.288V28.288H43.9892V20.056C43.9892 19.256 43.9892 18.392 43.9258 17.528H45.4159L45.511 18.744C45.773 18.301 46.15 17.9387 46.6012 17.6962C47.0524 17.4537 47.5606 17.3402 48.071 17.368C48.5023 17.3623 48.9291 17.4558 49.3192 17.6416C49.7092 17.8273 50.0522 18.1004 50.322 18.44C50.9575 19.2412 51.2867 20.2463 51.2493 21.272ZM49.5294 21.336C49.5569 20.6826 49.3824 20.0368 49.0301 19.488C48.8675 19.2464 48.6472 19.0501 48.3895 18.9172C48.1318 18.7844 47.8451 18.7193 47.5559 18.728C47.1412 18.7269 46.7396 18.8743 46.4225 19.144C46.0833 19.4221 45.8484 19.8088 45.7567 20.24C45.7128 20.4102 45.6862 20.5844 45.6774 20.76V22.04C45.6644 22.561 45.8486 23.0674 46.1926 23.456C46.3559 23.6445 46.5586 23.794 46.7862 23.8936C47.0137 23.9932 47.2604 24.0405 47.5083 24.032C47.7977 24.0439 48.0855 23.9828 48.3456 23.8543C48.6058 23.7258 48.8301 23.5339 48.9984 23.296C49.3775 22.7163 49.5635 22.0297 49.5294 21.336Z" fill="white"/>
<path d="M59.9993 21.272C60.0602 22.4017 59.6853 23.5113 58.9531 24.368C58.6571 24.6946 58.2953 24.9535 57.8921 25.1273C57.4888 25.3012 57.0534 25.386 56.615 25.376C56.1914 25.4111 55.7664 25.3283 55.3862 25.1364C55.0061 24.9446 54.6854 24.6511 54.4591 24.288V28.288H52.7392V20.056C52.7392 19.256 52.7392 18.392 52.6758 17.528H54.1579L54.253 18.744C54.5085 18.3478 54.8523 18.0174 55.2568 17.7792C55.6613 17.541 56.1155 17.4015 56.5829 17.372C57.0503 17.3425 57.5181 17.4237 57.9489 17.6091C58.3797 17.7945 58.7616 18.0791 59.0641 18.44C59.7056 19.2384 60.038 20.2448 59.9993 21.272ZM58.2794 21.336C58.3083 20.6813 58.1307 20.0343 57.7721 19.488C57.6085 19.2417 57.3846 19.0424 57.1222 18.9092C56.8597 18.776 56.5676 18.7136 56.2742 18.728C55.859 18.724 55.4564 18.8718 55.1407 19.144C54.8016 19.4221 54.5667 19.8088 54.475 20.24C54.4272 20.4093 54.4005 20.584 54.3957 20.76V22.04C54.3797 22.56 54.5612 23.0666 54.903 23.456C55.0759 23.6454 55.2892 23.7927 55.5267 23.8869C55.7642 23.9812 56.0197 24.0198 56.2742 24C56.5624 24.012 56.8491 23.9509 57.108 23.8223C57.3669 23.6938 57.5898 23.5018 57.7563 23.264C58.1257 22.6922 58.3086 22.018 58.2794 21.336Z" fill="white"/>
<path d="M69.748 22.216C69.762 22.6319 69.6855 23.0459 69.5239 23.4287C69.3623 23.8116 69.1196 24.1541 68.8127 24.432C68.0012 25.0914 66.9756 25.4222 65.9356 25.36C64.9799 25.4082 64.0306 25.1777 63.2012 24.696L63.5975 23.28C64.3332 23.7302 65.1783 23.9656 66.0387 23.96C66.5706 23.9896 67.0965 23.8343 67.5287 23.52C67.7007 23.3888 67.8407 23.2197 67.9382 23.0256C68.0357 22.8315 68.0881 22.6176 68.0915 22.4C68.0953 22.1965 68.0579 21.9943 67.9815 21.8058C67.9052 21.6174 67.7916 21.4466 67.6476 21.304C67.2235 20.9399 66.7298 20.6676 66.1972 20.504C64.3504 19.816 63.4231 18.792 63.4231 17.456C63.4128 17.0461 63.4952 16.6392 63.6641 16.2663C63.8331 15.8934 64.0841 15.5643 64.398 15.304C65.1193 14.6912 66.0395 14.3692 66.9818 14.4C67.8029 14.374 68.6183 14.5468 69.3596 14.904L68.9554 16.296C68.3365 15.9628 67.6435 15.7948 66.9422 15.808C66.4394 15.7762 65.9427 15.9329 65.5472 16.248C65.413 16.3699 65.3061 16.5193 65.2336 16.6862C65.1612 16.8532 65.1249 17.0338 65.1272 17.216C65.1231 17.4152 65.1647 17.6127 65.2485 17.793C65.3324 17.9734 65.4563 18.1318 65.6107 18.256C66.0746 18.604 66.5911 18.8741 67.1404 19.056C67.8999 19.324 68.5866 19.7679 69.1456 20.352C69.5725 20.8743 69.7877 21.5402 69.748 22.216Z" fill="white"/>
<path d="M75.3674 18.808H73.5048V22.536C73.5048 23.48 73.8297 23.952 74.4876 23.952C74.7537 23.9601 75.0198 23.9359 75.2802 23.88L75.296 25.168C74.8721 25.3097 74.4267 25.3747 73.9803 25.36C73.6876 25.3795 73.3942 25.3346 73.1205 25.2282C72.8468 25.1218 72.5992 24.9566 72.3951 24.744C71.9578 24.1482 71.7545 23.4101 71.8245 22.672V18.808H70.7148V17.528H71.8245V16.12L73.4889 15.616V17.528H75.3515L75.3674 18.808Z" fill="white"/>
<path d="M83.7692 21.304C83.8095 22.3642 83.453 23.4009 82.7705 24.208C82.4178 24.596 81.9854 24.9015 81.5035 25.1033C81.0216 25.305 80.5019 25.3981 79.9806 25.376C79.4825 25.3983 78.9855 25.3096 78.5252 25.116C78.0649 24.9224 77.6526 24.6288 77.3175 24.256C76.6395 23.478 76.2821 22.4675 76.3188 21.432C76.2756 20.3584 76.6447 19.3095 77.3492 18.504C77.7003 18.1247 78.1287 17.8268 78.6049 17.6307C79.0811 17.4345 79.5937 17.3449 80.1074 17.368C80.61 17.348 81.1109 17.4377 81.576 17.631C82.0411 17.8243 82.4594 18.1166 82.8023 18.488C83.4656 19.2696 83.811 20.2757 83.7692 21.304ZM82.0176 21.36C82.0365 20.7216 81.8801 20.0903 81.5658 19.536C81.4163 19.257 81.1948 19.024 80.9248 18.8616C80.6549 18.6992 80.3464 18.6134 80.0321 18.6134C79.7179 18.6134 79.4094 18.6992 79.1395 18.8616C78.8695 19.024 78.648 19.257 78.4985 19.536C78.178 20.0995 78.0214 20.7428 78.0467 21.392C78.0169 22.0224 78.1624 22.6486 78.4668 23.2C78.6139 23.4795 78.8337 23.7133 79.1025 23.8763C79.3713 24.0394 79.6789 24.1255 79.9925 24.1255C80.3061 24.1255 80.6138 24.0394 80.8825 23.8763C81.1513 23.7133 81.3711 23.4795 81.5183 23.2C81.852 22.6459 82.0251 22.0084 82.0176 21.36Z" fill="white"/>
<path d="M89.2615 19.024C89.0864 18.9911 88.9086 18.975 88.7305 18.976C88.4624 18.9622 88.1952 19.0174 87.954 19.1363C87.7127 19.2553 87.5054 19.4341 87.3514 19.656C87.0587 20.1065 86.9119 20.6377 86.9313 21.176V25.176H85.2431V19.92C85.2431 19.032 85.2431 18.232 85.1797 17.52H86.646L86.7094 18.992H86.7569C86.9163 18.512 87.2111 18.0894 87.605 17.776C87.9555 17.5056 88.3845 17.3594 88.8256 17.36C88.9655 17.3509 89.1058 17.3509 89.2457 17.36L89.2615 19.024Z" fill="white"/>
<path d="M96.8234 21C96.8275 21.2681 96.8063 21.536 96.76 21.8H91.6874C91.6781 22.126 91.7392 22.4502 91.8665 22.7499C91.9938 23.0497 92.1842 23.3179 92.4245 23.536C92.8955 23.9087 93.4831 24.0988 94.081 24.072C94.7814 24.0811 95.4775 23.959 96.1338 23.712L96.3954 24.896C95.5891 25.2304 94.7225 25.3911 93.8511 25.368C93.3409 25.3962 92.8304 25.3176 92.3517 25.1373C91.873 24.9569 91.4363 24.6787 91.0691 24.32C90.7246 23.9416 90.4581 23.4976 90.2853 23.0142C90.1125 22.5307 90.0368 22.0173 90.0625 21.504C90.0235 20.4572 90.355 19.4305 90.9978 18.608C91.3156 18.207 91.722 17.8867 92.1844 17.6728C92.6469 17.4589 93.1525 17.3572 93.6609 17.376C94.1454 17.3502 94.6284 17.4498 95.064 17.6654C95.4996 17.8811 95.8733 18.2055 96.1497 18.608C96.6088 19.3182 96.8437 20.1523 96.8234 21ZM95.2382 20.56C95.2638 20.0996 95.1505 19.6421 94.9132 19.248C94.7727 19.0181 94.5734 18.8307 94.3363 18.7054C94.0992 18.5801 93.833 18.5216 93.5658 18.536C93.3015 18.5294 93.0398 18.5896 92.8045 18.7112C92.5692 18.8328 92.3677 19.0118 92.2184 19.232C91.9331 19.6193 91.7602 20.0791 91.7191 20.56H95.2382Z" fill="white"/>
<path d="M38.8762 8.00002C38.9069 8.39643 38.8479 8.7947 38.7038 9.16473C38.5596 9.53477 38.334 9.86689 38.044 10.136C37.4102 10.6123 36.629 10.8449 35.8406 10.792C35.4354 10.7986 35.0302 10.7772 34.6279 10.728V5.60002C35.0999 5.52667 35.577 5.49189 36.0546 5.49602C36.7867 5.44241 37.5139 5.65213 38.1074 6.08802C38.3684 6.32895 38.5728 6.6256 38.7058 6.95636C38.8388 7.28713 38.897 7.64367 38.8762 8.00002ZM37.9964 8.00002C38.0131 7.74527 37.9796 7.48972 37.898 7.24808C37.8164 7.00643 37.6882 6.78347 37.5209 6.59202C37.3314 6.41995 37.1095 6.28808 36.8685 6.20425C36.6275 6.12042 36.3723 6.08633 36.118 6.10402C35.8921 6.09967 35.6664 6.11843 35.4443 6.16002V10.072C35.6317 10.0841 35.8197 10.0841 36.007 10.072C36.2715 10.0962 36.5381 10.0669 36.7913 9.98589C37.0444 9.90484 37.279 9.77366 37.4813 9.60002C37.668 9.38119 37.8098 9.12701 37.8983 8.85231C37.9867 8.5776 38.0201 8.28788 37.9964 8.00002Z" fill="white"/>
<path d="M43.5209 8.79998C43.5401 9.3201 43.3647 9.82846 43.0295 10.224C42.856 10.4147 42.6435 10.5649 42.4067 10.6644C42.17 10.7639 41.9146 10.8101 41.6583 10.8C41.4135 10.8108 41.1693 10.7669 40.9433 10.6715C40.7172 10.5761 40.5148 10.4315 40.3505 10.248C40.0193 9.86594 39.8437 9.37143 39.8591 8.86398C39.8378 8.3359 40.0195 7.81993 40.3664 7.42398C40.5389 7.23745 40.7493 7.09082 40.9833 6.99415C41.2172 6.89749 41.4691 6.85308 41.7217 6.86398C41.9687 6.85407 42.215 6.89828 42.4434 6.99357C42.6719 7.08886 42.8773 7.23296 43.0453 7.41598C43.3716 7.80001 43.5415 8.29454 43.5209 8.79998ZM42.657 8.79998C42.6498 8.51887 42.5736 8.24395 42.435 7.99998C42.3674 7.86032 42.2609 7.74357 42.1286 7.66401C41.9963 7.58445 41.8439 7.54552 41.69 7.55198C41.5292 7.54212 41.3691 7.57911 41.2285 7.65853C41.088 7.73796 40.9731 7.85648 40.8974 7.99998C40.7407 8.27716 40.6638 8.59304 40.6755 8.91198C40.6646 9.22575 40.7415 9.53627 40.8974 9.80798C40.9696 9.94523 41.0775 10.06 41.2094 10.1401C41.3414 10.2202 41.4924 10.2625 41.6464 10.2625C41.8004 10.2625 41.9514 10.2202 42.0834 10.1401C42.2153 10.06 42.3232 9.94523 42.3954 9.80798C42.5725 9.5231 42.6634 9.19224 42.657 8.85598V8.79998Z" fill="white"/>
<path d="M49.7435 6.97601L48.5784 10.744H47.7858L47.3023 9.14401C47.1796 8.74194 47.079 8.33331 47.0011 7.92001C46.9288 8.33454 46.8282 8.74352 46.6999 9.14401L46.1847 10.744H45.3922L44.3301 6.97601H45.1782L45.6062 8.80001C45.7092 9.22401 45.7964 9.60001 45.8598 10.008C45.9232 9.69335 46.0262 9.29335 46.1689 8.80801L46.6999 7.00801H47.3816L47.8888 8.76801C48.0077 9.20001 48.1107 9.61601 48.1821 10.008C48.2454 9.59055 48.3301 9.17666 48.4357 8.76801L48.8954 7.00801L49.7435 6.97601Z" fill="white"/>
<path d="M54.0553 10.744H53.2627V8.58402C53.2627 7.92002 53.0091 7.59202 52.4701 7.59202C52.3562 7.59102 52.2435 7.6148 52.1395 7.66174C52.0356 7.70867 51.9429 7.77767 51.8677 7.86402C51.717 8.04541 51.6354 8.27526 51.6379 8.51202V10.744H50.8057V8.05602C50.8057 7.72002 50.8057 7.36002 50.8057 6.97602H51.519L51.5586 7.56002C51.6604 7.37574 51.8079 7.22135 51.9866 7.11202C52.2228 6.96001 52.4994 6.88463 52.7792 6.89602C52.9389 6.89051 53.098 6.9182 53.2466 6.97738C53.3952 7.03656 53.5302 7.12596 53.6431 7.24002C53.7998 7.40463 53.9197 7.60115 53.9949 7.8164C54.0701 8.03166 54.0988 8.26065 54.0791 8.48802L54.0553 10.744Z" fill="white"/>
<path d="M56.3454 10.744H55.4814V5.24799H56.274L56.3454 10.744Z" fill="white"/>
<path d="M61.2357 8.80002C61.2549 9.32014 61.0795 9.8285 60.7443 10.224C60.5709 10.4147 60.3584 10.565 60.1216 10.6644C59.8848 10.7639 59.6294 10.8102 59.3731 10.8C59.1283 10.8109 58.8842 10.767 58.6581 10.6716C58.4321 10.5761 58.2297 10.4315 58.0654 10.248C57.7341 9.86598 57.5585 9.37147 57.574 8.86402C57.5526 8.33594 57.7344 7.81998 58.0812 7.42402C58.2574 7.24222 58.4705 7.10093 58.7057 7.00981C58.941 6.91869 59.193 6.87987 59.4445 6.89602C59.6915 6.88611 59.9377 6.93032 60.1662 7.02561C60.3947 7.1209 60.6 7.26501 60.7681 7.44802C61.084 7.82499 61.2505 8.30655 61.2357 8.80002ZM60.3718 8.80002C60.3647 8.51891 60.2884 8.244 60.1499 8.00002C60.0908 7.85912 59.993 7.73825 59.868 7.65176C59.743 7.56526 59.596 7.51677 59.4445 7.51202C59.2795 7.50575 59.1163 7.54869 58.9753 7.63548C58.8344 7.72227 58.7219 7.84907 58.6519 8.00002C58.4951 8.2772 58.4183 8.59309 58.43 8.91202C58.4264 9.2123 58.5031 9.50798 58.6519 9.76802C58.7241 9.90527 58.832 10.0201 58.9639 10.1002C59.0959 10.1802 59.2469 10.2225 59.4009 10.2225C59.5548 10.2225 59.7059 10.1802 59.8378 10.1002C59.9698 10.0201 60.0777 9.90527 60.1499 9.76802C60.3058 9.49053 60.3827 9.17487 60.3718 8.85602V8.80002Z" fill="white"/>
<path d="M65.2537 10.744H64.5087L64.4453 10.312C64.3193 10.4827 64.1536 10.6194 63.9628 10.7101C63.7721 10.8008 63.5621 10.8427 63.3515 10.832C63.194 10.8393 63.0368 10.8123 62.8905 10.753C62.7442 10.6936 62.6122 10.6033 62.5034 10.488C62.4017 10.3829 62.3231 10.2573 62.2725 10.1195C62.222 9.98167 62.2008 9.83467 62.2102 9.68802C62.2032 9.47659 62.2524 9.26713 62.3528 9.08142C62.4531 8.89571 62.6009 8.74053 62.7809 8.63202C63.2672 8.37009 63.8156 8.24831 64.366 8.28002V8.24002C64.366 7.74402 64.1045 7.49602 63.5734 7.49602C63.2335 7.49254 62.9 7.5899 62.6144 7.77602L62.4559 7.20002C62.8422 6.97161 63.2845 6.85792 63.732 6.87202C64.7069 6.87202 65.1983 7.39202 65.1983 8.47202V9.86402C65.1964 10.1583 65.2149 10.4524 65.2537 10.744ZM64.3898 9.44802V8.87202C63.4783 8.87202 63.0186 9.10402 63.0186 9.63202C63.0115 9.7126 63.022 9.79379 63.0494 9.86982C63.0768 9.94586 63.1204 10.0149 63.1771 10.072C63.2891 10.1698 63.4335 10.2212 63.5814 10.216C63.764 10.2166 63.9419 10.1577 64.0886 10.048C64.2376 9.94156 64.3398 9.78099 64.374 9.60002C64.388 9.55067 64.3934 9.49923 64.3898 9.44802Z" fill="white"/>
<path d="M69.9776 10.744H69.2405V10.144C69.1281 10.3648 68.9542 10.5476 68.7401 10.6699C68.526 10.7921 68.2812 10.8485 68.0358 10.832C67.821 10.8367 67.6081 10.7906 67.4141 10.6976C67.2201 10.6045 67.0503 10.467 66.9182 10.296C66.6068 9.90538 66.4488 9.4127 66.4744 8.91199C66.4478 8.37272 66.62 7.84261 66.9578 7.42399C67.0991 7.25599 67.2753 7.12155 67.474 7.03028C67.6726 6.939 67.8888 6.89315 68.1071 6.89599C68.3123 6.87651 68.5189 6.91389 68.7047 7.0041C68.8904 7.09432 69.0483 7.23396 69.1612 7.40799V5.24799H69.9538V9.72799C69.9459 10.096 69.9538 10.44 69.9776 10.744ZM69.1137 9.14399V8.51199C69.1239 8.42428 69.1239 8.33569 69.1137 8.24799C69.0658 8.05097 68.9609 7.87277 68.8125 7.73599C68.6599 7.59984 68.4612 7.52822 68.2577 7.53599C68.1152 7.52981 67.9735 7.56035 67.8459 7.62473C67.7183 7.68911 67.6091 7.78522 67.5285 7.90399C67.3396 8.18681 67.2452 8.52317 67.259 8.86399C67.2463 9.18486 67.3351 9.50148 67.5127 9.76799C67.5944 9.88613 67.7037 9.9822 67.8308 10.0478C67.9579 10.1133 68.0991 10.1464 68.2418 10.144C68.3682 10.1487 68.4938 10.1229 68.6083 10.0686C68.7227 10.0143 68.8226 9.93319 68.8997 9.83199C69.0459 9.6397 69.1215 9.40222 69.1137 9.15999V9.14399Z" fill="white"/>
<path d="M77.0795 8.79997C77.0987 9.32008 76.9233 9.82845 76.5881 10.224C76.4146 10.4146 76.2021 10.5649 75.9653 10.6644C75.7286 10.7639 75.4732 10.8101 75.2169 10.8C74.9721 10.8108 74.7279 10.7669 74.5019 10.6715C74.2758 10.5761 74.0734 10.4315 73.9091 10.248C73.5779 9.86593 73.4023 9.37142 73.4177 8.86397C73.3964 8.33588 73.5781 7.81992 73.925 7.42397C74.1021 7.2411 74.3164 7.09919 74.5531 7.00804C74.7899 6.91688 75.0434 6.87864 75.2962 6.89597C75.5432 6.88606 75.7894 6.93027 76.0179 7.02555C76.2464 7.12084 76.4517 7.26495 76.6198 7.44797C76.9328 7.82609 77.0965 8.30753 77.0795 8.79997ZM76.2156 8.79997C76.2084 8.51886 76.1322 8.24394 75.9936 7.99997C75.926 7.86031 75.8195 7.74356 75.6872 7.66399C75.5549 7.58443 75.4025 7.5455 75.2486 7.55197C75.0958 7.55119 74.9457 7.5925 74.8144 7.67144C74.6831 7.75038 74.5756 7.86397 74.5036 7.99997C74.3468 8.27715 74.2699 8.59303 74.2816 8.91197C74.2781 9.21224 74.3548 9.50793 74.5036 9.76797C74.5758 9.90521 74.6836 10.02 74.8156 10.1001C74.9475 10.1802 75.0986 10.2225 75.2526 10.2225C75.4065 10.2225 75.5576 10.1802 75.6895 10.1001C75.8215 10.02 75.9293 9.90521 76.0016 9.76797C76.1548 9.48967 76.2288 9.17406 76.2156 8.85597V8.79997Z" fill="white"/>
<path d="M81.542 10.744H80.7494V8.58399C80.7494 7.91999 80.4958 7.59199 79.9568 7.59199C79.8424 7.58697 79.7284 7.60894 79.6238 7.65615C79.5193 7.70336 79.427 7.77453 79.3545 7.86399C79.2037 8.04538 79.1222 8.27522 79.1246 8.51199V10.744H78.332V8.05599C78.332 7.71999 78.332 7.35999 78.332 6.97599H79.0612V7.55999C79.1652 7.37739 79.3122 7.22351 79.4892 7.11199C79.715 6.96974 79.976 6.89486 80.2422 6.89599C80.4031 6.89032 80.5634 6.91792 80.7133 6.97707C80.8632 7.03623 80.9996 7.1257 81.114 7.23999C81.266 7.40751 81.3823 7.60466 81.4559 7.8193C81.5296 8.03393 81.5588 8.2615 81.542 8.48799V10.744Z" fill="white"/>
<path d="M87.1378 7.59998H86.2184V9.43198C86.2184 9.90398 86.3849 10.136 86.7019 10.136C86.8272 10.1376 86.9523 10.1241 87.0744 10.096V10.728C86.8652 10.7989 86.6451 10.8314 86.4245 10.824C86.2785 10.834 86.1321 10.812 85.9952 10.7596C85.8584 10.7071 85.7345 10.6254 85.6319 10.52C85.4191 10.2271 85.3203 9.86553 85.3545 9.50398V7.59998H84.8076V6.97598H85.3545V6.28798L86.1471 6.03998V6.97598H87.0586V7.59998H87.1378Z" fill="white"/>
<path d="M91.5291 10.744H90.7365V8.59999C90.7365 7.92799 90.4908 7.59199 89.9914 7.59199C89.8135 7.58535 89.6386 7.63935 89.4948 7.74529C89.351 7.85123 89.2468 8.00294 89.1988 8.17599C89.1846 8.27681 89.1846 8.37916 89.1988 8.47999V10.744H88.4062V5.24799H89.1988V7.51999C89.3125 7.32434 89.4763 7.16317 89.6729 7.05338C89.8695 6.94359 90.0918 6.88923 90.3164 6.89599C90.475 6.88963 90.6331 6.91697 90.7806 6.97623C90.928 7.03549 91.0615 7.12535 91.1724 7.23999C91.3238 7.41085 91.4391 7.61104 91.5113 7.82835C91.5835 8.04567 91.6111 8.27555 91.5925 8.50399L91.5291 10.744Z" fill="white"/>
<path d="M96.0705 8.67997C96.0804 8.80778 96.0804 8.93617 96.0705 9.06397H93.5263C93.5205 9.22424 93.5495 9.38384 93.6111 9.53167C93.6727 9.67949 93.7654 9.812 93.8829 9.91997C94.1091 10.0974 94.3891 10.1907 94.6755 10.184C95.0195 10.1869 95.361 10.1245 95.6821 9.99997L95.8089 10.584C95.4113 10.746 94.9853 10.8249 94.5566 10.816C94.3067 10.8301 94.0566 10.792 93.822 10.7038C93.5874 10.6157 93.3733 10.4796 93.1934 10.304C93.0243 10.1179 92.8937 9.89967 92.8093 9.66201C92.725 9.42435 92.6885 9.17207 92.702 8.91997C92.6806 8.40496 92.8438 7.89943 93.1617 7.49597C93.3166 7.29763 93.5159 7.13913 93.7432 7.03346C93.9705 6.92778 94.2194 6.87793 94.4694 6.88797C94.7072 6.87718 94.9438 6.92727 95.1572 7.03357C95.3706 7.13988 95.5539 7.29895 95.69 7.49597C95.9369 7.84051 96.07 8.25477 96.0705 8.67997ZM95.2779 8.46397C95.2918 8.23815 95.2334 8.0138 95.1114 7.82397C95.0432 7.71106 94.9461 7.61878 94.8304 7.55684C94.7146 7.49489 94.5845 7.46558 94.4536 7.47197C94.3245 7.47089 94.197 7.50166 94.0824 7.56161C93.9677 7.62157 93.8693 7.70889 93.7957 7.81597C93.652 8.0026 93.5665 8.22816 93.55 8.46397H95.2779Z" fill="white"/>
</g>
<defs>
<clipPath id="clip0">
<rect width="107" height="32" fill="white"/>
</clipPath>
</defs>
</svg>
