<svg width="760" height="741" viewBox="0 0 760 741" fill="none" xmlns="http://www.w3.org/2000/svg">
<path d="M116.215 686.822L116.193 686.793L116.171 686.765C-14.1895 522.527 5.0021 297.237 7.30597 270.191C7.39771 269.115 7.46267 268.352 7.49034 267.92C7.49087 267.912 7.49138 267.904 7.49188 267.896L8.04071 260.229L13.0203 254.153L13.1482 253.997L13.2631 253.832C122.702 95.8894 298.29 29.2551 368.415 8.78353L368.466 8.76859L368.517 8.75256L379.652 5.24253L390.787 8.75256L390.803 8.7576L390.819 8.76254C461.718 30.5897 637.278 95.9059 746.705 253.832L746.82 253.997L746.948 254.153L751.928 260.229L752.477 267.896C752.477 267.903 752.478 267.911 752.478 267.918C752.506 268.353 752.572 269.124 752.664 270.213C754.979 297.358 774.177 522.553 645.119 686.112L645.102 686.135L645.084 686.158L639.303 693.659L630.306 697.027C629.242 697.286 627.212 697.867 624.285 698.706C598.113 706.201 500.215 734.236 379.652 736C311.57 735.004 250.563 725.599 205.978 716.351C183.684 711.727 165.509 707.144 152.621 703.678C146.177 701.945 141.053 700.49 137.382 699.444L136.801 699.279C135.237 698.833 133.94 698.463 132.952 698.19C132.285 698.006 131.544 697.802 130.925 697.666L121.995 694.323L116.215 686.822Z" fill="#63D349" stroke="#63D349" stroke-width="10"/>
</svg>
