<svg width="54" height="53" viewBox="0 0 54 53" fill="none" xmlns="http://www.w3.org/2000/svg">
<path d="M1.95508 14.4041L20.62 6C20.62 6 42.0138 17.7427 45.5066 20.0452C48.9995 22.3477 51.0733 25.1107 51.8374 29.6005C52.8198 34.8963 50.2001 40.0769 46.0524 42.7247C42.1229 45.2575 36.2287 48.1356 33.3908 49.5171C30.1162 51.1288 24.9861 52.3952 18.6553 46.639C11.3421 40.0769 13.0886 29.0249 13.0886 29.0249L1.95508 21.8872V14.4041Z" stroke="#091320" stroke-width="3.3" stroke-miterlimit="10" stroke-linecap="round"/>
<path d="M32.8457 44.4515C33.3914 42.3793 33.6097 40.1919 33.1731 38.0046C32.4091 33.6299 29.8986 30.061 26.8423 28.4493L7.08594 17.2822" stroke="#091320" stroke-width="3.3" stroke-miterlimit="10" stroke-linecap="round"/>
<path d="M32.2998 27.0674L26.0781 23.4988" stroke="#091320" stroke-width="3.3" stroke-miterlimit="10" stroke-linecap="round"/>
<path d="M42.7783 22.3472L36.5566 18.7786" stroke="#091320" stroke-width="3.3" stroke-miterlimit="10" stroke-linecap="round"/>
<path d="M26.0781 23.4987L36.5566 18.7786" stroke="#091320" stroke-width="3.3" stroke-miterlimit="10" stroke-linecap="round"/>
<path d="M32.2979 27.0676L42.7765 22.3474" stroke="#091320" stroke-width="3.3" stroke-miterlimit="10" stroke-linecap="round"/>
<circle cx="42.5" cy="11.5" r="11.5" fill="#EB4335"/>
<path d="M39.3239 10.019C39.3672 9.15233 39.6706 8.485 40.2339 8.017C40.8059 7.54033 41.5556 7.302 42.4829 7.302C43.1156 7.302 43.6572 7.41467 44.1079 7.64C44.5586 7.85667 44.8966 8.15567 45.1219 8.537C45.3559 8.90967 45.4729 9.33433 45.4729 9.811C45.4729 10.357 45.3299 10.8207 45.0439 11.202C44.7666 11.5747 44.4329 11.826 44.0429 11.956V12.008C44.5456 12.164 44.9356 12.4413 45.2129 12.84C45.4989 13.2387 45.6419 13.75 45.6419 14.374C45.6419 14.894 45.5206 15.3577 45.2779 15.765C45.0439 16.1723 44.6929 16.493 44.2249 16.727C43.7656 16.9523 43.2109 17.065 42.5609 17.065C41.5816 17.065 40.7842 16.818 40.1689 16.324C39.5536 15.83 39.2286 15.102 39.1939 14.14H40.9619C40.9792 14.5647 41.1222 14.907 41.3909 15.167C41.6682 15.4183 42.0452 15.544 42.5219 15.544C42.9639 15.544 43.3019 15.4227 43.5359 15.18C43.7786 14.9287 43.8999 14.608 43.8999 14.218C43.8999 13.698 43.7352 13.3253 43.4059 13.1C43.0766 12.8747 42.5652 12.762 41.8719 12.762H41.4949V11.267H41.8719C43.1026 11.267 43.7179 10.8553 43.7179 10.032C43.7179 9.65933 43.6052 9.369 43.3799 9.161C43.1632 8.953 42.8469 8.849 42.4309 8.849C42.0236 8.849 41.7072 8.96167 41.4819 9.187C41.2652 9.40367 41.1396 9.681 41.1049 10.019H39.3239Z" fill="white"/>
</svg>
