<svg width="50" height="51" viewBox="0 0 50 51" fill="none" xmlns="http://www.w3.org/2000/svg">
<path d="M12.0996 41.224C12.0996 41.224 17.5589 35.7197 18.1655 35.1081C18.7721 34.4965 19.4798 33.783 19.3787 32.4579C19.2776 30.4193 18.671 29.0941 19.2776 28.3806" stroke="#091320" stroke-width="3.5" stroke-miterlimit="10"/>
<path d="M23.7247 29.7063L29.4874 23.8962C30.5995 22.7749 32.4192 22.8769 33.4302 23.8962C36.3621 27.0561 41.7203 33.2739 40.2039 34.7009C38.1819 36.7395 33.7335 41.2245 33.7335 41.2245C32.0148 42.9574 28.072 42.4477 27.2632 43.2632C25.8478 44.6902 21.1973 49.3791 21.1973 49.3791" stroke="#091320" stroke-width="3.5" stroke-miterlimit="10"/>
<path d="M39.4961 35.4141L41.6191 37.6566" stroke="#091320" stroke-width="3.5" stroke-miterlimit="10"/>
<path d="M36.5656 42.6513L34.4424 40.511" stroke="#091320" stroke-width="3.5" stroke-miterlimit="10"/>
<path d="M40.2033 39.0836L42.3264 36.8412L45.8648 36.1277L48.089 38.3701L37.3726 49.1747L35.1484 46.9322L35.8561 43.3647L38.0803 41.2242" stroke="#091320" stroke-width="3.5" stroke-miterlimit="10" stroke-linejoin="round"/>
<path d="M13.0088 27.5655C10.4813 30.1138 8.15604 29.91 6.53846 28.279C4.92088 26.6481 3 24.7114 3 24.7114L6.53846 21.1438" stroke="#091320" stroke-width="3.5" stroke-miterlimit="10"/>
<path d="M27.3654 13.0912C29.8928 10.5429 29.6906 8.19849 28.073 6.56759C26.4555 4.93669 24.5346 3 24.5346 3L20.9961 6.56759" stroke="#091320" stroke-width="3.5" stroke-miterlimit="10"/>
<path d="M28.7802 24.6096C26.2527 22.0613 30.5999 16.3531 26.6571 12.3778C23.7252 9.42175 21.3999 7.07733 19.4791 5.14062L5.12305 19.6149C6.94282 21.4497 9.2681 23.7941 12.3011 26.8521C16.2439 30.8274 21.9054 26.4443 24.4329 28.9926" stroke="#091320" stroke-width="3.5" stroke-miterlimit="10"/>
</svg>
