<svg width="49" height="48" viewBox="0 0 49 48" fill="none" xmlns="http://www.w3.org/2000/svg">
<path d="M24.5 46C33.5789 46 38.3158 43.9052 38.3158 43.9052C38.3158 43.9052 38.3158 29.7654 38.3158 26.309C42.7566 25.0521 45.125 22.5384 47 19.6057C46.1118 17.6156 41.8684 7.87484 40.4868 6.199C39.1053 4.62791 32.0987 2.11417 31.4079 2.00943C30.421 1.79995 29.5329 5.15161 24.5 5.15161C19.4671 5.15161 18.5789 1.79995 17.5921 2.00943C16.9013 2.11417 9.99342 4.62791 8.51316 6.199C7.13158 7.87484 2.88816 17.6156 2 19.6057C3.875 22.5384 6.24342 25.1568 10.6842 26.309C10.6842 29.7654 10.6842 43.9052 10.6842 43.9052C10.6842 43.9052 15.4211 46 24.5 46Z" stroke="#091320" stroke-width="3.5" stroke-miterlimit="10"/>
<path d="M10.6846 26.0996V21.9099" stroke="#091320" stroke-width="3.5" stroke-miterlimit="10"/>
<path d="M38.3154 26.0996V21.9099" stroke="#091320" stroke-width="3.5" stroke-miterlimit="10"/>
<path d="M21.54 29.2415H27.4611" stroke="#091320" stroke-width="3.5" stroke-miterlimit="10"/>
<path d="M21.54 17.72H24.5005V29.2414" stroke="#091320" stroke-width="3.5" stroke-miterlimit="10"/>
</svg>
