<svg width="51" height="41" viewBox="0 0 51 41" fill="none" xmlns="http://www.w3.org/2000/svg">
<path d="M2 18.3888C2 14.1582 12.4682 9.71069 25.5 9.71069C38.5318 9.71069 49 14.1582 49 18.3888L46.2227 32.2738C46.2227 35.962 36.9295 38.9994 25.5 38.9994C14.0705 38.9994 4.77727 35.962 4.77727 32.2738L2 18.3888Z" stroke="#091320" stroke-width="3" stroke-miterlimit="10"/>
<path d="M49 18.3894C49 22.62 38.5318 25.9827 25.5 25.9827C12.4682 25.9827 2 22.62 2 18.3894" stroke="#091320" stroke-width="3" stroke-miterlimit="10"/>
<path d="M35.2208 22.7281C32.764 21.4266 29.239 20.5588 25.5003 20.5588C21.7617 20.5588 18.3435 21.3181 15.8867 22.6197" stroke="#091320" stroke-width="3" stroke-miterlimit="10"/>
<path d="M7.76855 20.5588C10.6526 17.4129 17.489 15.1348 25.5004 15.1348C33.5117 15.1348 40.3481 17.4129 43.2322 20.5588" stroke="#091320" stroke-width="3" stroke-miterlimit="10"/>
<path d="M29.773 38.9999V32.4912H21.2275V38.9999" stroke="#091320" stroke-width="3" stroke-miterlimit="10"/>
<path d="M25.5 9.71071V6.45679" stroke="#091320" stroke-width="3" stroke-miterlimit="10"/>
<path d="M30.84 2.11743H20.1582V6.45684H30.84V2.11743Z" stroke="#091320" stroke-width="3" stroke-miterlimit="10"/>
<path d="M12.6816 11.2295L13.7498 6.45679H15.8862" stroke="#091320" stroke-width="3" stroke-miterlimit="10"/>
<path d="M4.34961 14.8097L6.27235 8.62671H8.40872" stroke="#091320" stroke-width="3" stroke-miterlimit="10"/>
<path d="M38.3178 11.2295L37.2497 6.45679H35.1133" stroke="#091320" stroke-width="3" stroke-miterlimit="10"/>
<path d="M46.6499 14.8097L44.7272 8.62671H42.5908" stroke="#091320" stroke-width="3" stroke-miterlimit="10"/>
</svg>
