<?xml version="1.0" encoding="utf-8"?>
<!-- Generator: Adobe Illustrator 25.4.1, SVG Export Plug-In . SVG Version: 6.00 Build 0)  -->
<svg version="1.1" id="Warstwa_1" xmlns="http://www.w3.org/2000/svg" xmlns:xlink="http://www.w3.org/1999/xlink" x="0px" y="0px"
	 viewBox="0 0 218 372" style="enable-background:new 0 0 218 372;" xml:space="preserve">
<style type="text/css">
	.st0{fill:url(#SVGID_1_);fill-opacity:0.1;}
	.st1{fill:none;stroke:#091320;stroke-width:3;}
	.st2{fill:#63D349;stroke:#091320;stroke-width:3;}
	.st3{fill:none;stroke:#FFFFFF;stroke-width:4;stroke-miterlimit:10;}
</style>
<linearGradient id="SVGID_1_" gradientUnits="userSpaceOnUse" x1="49" y1="188" x2="175" y2="188" gradientTransform="matrix(1 0 0 -1 0 374)">
	<stop  offset="0" style="stop-color:#000000"/>
	<stop  offset="1" style="stop-color:#000000;stop-opacity:0"/>
</linearGradient>
<path class="st0" d="M49,0h148c11.6,0,21,9.4,21,21v330c0,11.6-9.4,21-21,21H49V0z"/>
<line class="st1" x1="49.5" y1="0" x2="49.5" y2="372"/>
<circle class="st2" cx="49" cy="186" r="47.5"/>
<path class="st3" d="M59.1,177.2h7.6l5,8.8l-5,8.8h-7.6"/>
<path class="st3" d="M49,169.6h5l5,7.6l-5,8.8"/>
<path class="st3" d="M57.8,211.2l-3.8-8.8"/>
<path class="st3" d="M66.7,194.8l3.8,6.3"/>
<path class="st3" d="M66.7,177.2l3.8-6.3"/>
<path class="st3" d="M54,169.6l3.8-7.6"/>
<path class="st3" d="M71.7,186h3.8"/>
<path class="st3" d="M49,186h-5l-5,8.8l5,7.6h5h5l5-7.6l-5-8.8H49z"/>
<path class="st3" d="M38.9,177.2h-7.6l-5,8.8l5,8.8h7.6"/>
<path class="st3" d="M49,169.6h-5l-5,7.6l5,8.8"/>
<path class="st3" d="M49,212.5c14.6,0,26.5-11.9,26.5-26.5c0-14.6-11.9-26.5-26.5-26.5c-14.6,0-26.5,11.9-26.5,26.5
	C22.5,200.6,34.4,212.5,49,212.5z"/>
<path class="st3" d="M40.2,211.2l3.8-8.8"/>
<path class="st3" d="M31.3,194.8l-3.8,6.3"/>
<path class="st3" d="M31.3,177.2l-3.8-6.3"/>
<path class="st3" d="M44,169.6l-3.8-7.6"/>
<path class="st3" d="M26.3,186h-3.8"/>
</svg>
