<?xml version="1.0" encoding="utf-8"?>
<!-- Generator: Adobe Illustrator 25.4.1, SVG Export Plug-In . SVG Version: 6.00 Build 0)  -->
<svg version="1.1" id="Warstwa_1" xmlns="http://www.w3.org/2000/svg" xmlns:xlink="http://www.w3.org/1999/xlink" x="0px" y="0px"
	 viewBox="0 0 416 316.9" style="enable-background:new 0 0 416 316.9;" xml:space="preserve">
<style type="text/css">
	.st0{fill-rule:evenodd;clip-rule:evenodd;fill:#FFFFFF;}
</style>
<path class="st0" d="M76.1,0h263.8c20.2,0,39.5,8,53.8,22.1C407.9,36.2,416,55.4,416,75.3v166.3c0,9.9-2,19.6-5.8,28.8
	c-3.8,9.1-9.5,17.4-16.6,24.3c-7,7-15.4,12.6-24.6,16.4c-9.2,3.8-19.1,5.8-29.1,5.8H76.1c-20.2,0-39.5-8-53.7-22.1
	C8.1,280.7,0.1,261.6,0,241.7V75.3c0-19.9,8-39.1,22.3-53.2C36.6,8,55.9,0,76.1,0z M339.9,32.2H76.1c-5.7,0-11.4,1.1-16.7,3.3
	c-5.3,2.2-10.1,5.4-14.1,9.4c-6.1,5.8-10.3,13.3-12,21.5L208,170.1L382.7,66.4c-2.1-9.7-7.5-18.3-15.2-24.5
	c-7.8-6.2-17.4-9.6-27.4-9.7H339.9z M383.5,241.7V103.2l-167.2,99.3h-0.2l-0.7,0.3c-2.1,1-4.3,1.6-6.7,1.6h-0.3h-0.6h-0.2
	c-2.3,0-4.6-0.6-6.7-1.6l-0.7-0.3h-0.2L32.5,103.2v138.4c0.1,11.4,4.7,22.4,12.8,30.5c8.2,8.1,19.2,12.6,30.8,12.7h263.8
	c11.5,0,22.6-4.6,30.8-12.7C378.9,264.1,383.5,253.1,383.5,241.7z"/>
</svg>
