<svg width="67" height="66" viewBox="0 0 67 66" fill="none" xmlns="http://www.w3.org/2000/svg">
<circle cx="33.7165" cy="32.9212" r="32.7402" fill="white"/>
<path d="M38.5347 37.8966C37.199 39.0191 35.4875 39.6374 33.7163 39.6374C31.9451 39.6374 30.2337 39.0191 28.898 37.8966C28.8004 37.8037 28.6842 37.731 28.5566 37.6829C28.429 37.6347 28.2925 37.6121 28.1556 37.6164C28.0186 37.6207 27.884 37.6519 27.7599 37.708C27.6358 37.7641 27.5248 37.8439 27.4337 37.9427C27.3426 38.0415 27.2732 38.1571 27.2299 38.2826C27.1865 38.408 27.1701 38.5406 27.1815 38.6724C27.1929 38.8042 27.232 38.9324 27.2964 39.0491C27.3608 39.1658 27.4491 39.2687 27.5559 39.3515C29.2631 40.7878 31.4514 41.5791 33.7163 41.5791C35.9812 41.5791 38.1696 40.7878 39.8767 39.3515C39.9836 39.2687 40.0719 39.1658 40.1362 39.0491C40.2006 38.9324 40.2397 38.8042 40.2511 38.6724C40.2626 38.5406 40.2461 38.408 40.2028 38.2826C40.1594 38.1571 40.0901 38.0415 39.999 37.9427C39.9078 37.8439 39.7969 37.7641 39.6728 37.708C39.5487 37.6519 39.414 37.6207 39.2771 37.6164C39.1401 37.6121 39.0037 37.6347 38.876 37.6829C38.7484 37.731 38.6323 37.8037 38.5347 37.8966Z" fill="#101B28" stroke="#101B28" stroke-width="0.970079"/>
<path d="M30.5716 31.0354C30.5124 30.9209 30.4303 30.8189 30.3301 30.7352C30.2299 30.6514 30.1136 30.5876 29.9877 30.5474C29.8619 30.5072 29.7291 30.4913 29.5969 30.5008C29.4647 30.5102 29.3358 30.5447 29.2174 30.6024L26.1372 32.0924C25.9317 32.2247 25.7834 32.425 25.7205 32.6556C25.6576 32.8862 25.6845 33.131 25.796 33.3438C25.9075 33.5566 26.0959 33.7226 26.3256 33.8104C26.5554 33.8982 26.8105 33.9018 27.0427 33.8204L30.1229 32.3264C30.3582 32.211 30.5371 32.011 30.621 31.7695C30.7049 31.528 30.6872 31.2643 30.5716 31.0354Z" fill="#101B28" stroke="#101B28" stroke-width="0.970079"/>
<path d="M41.3969 32.0924L38.3167 30.5985C38.198 30.54 38.0684 30.5047 37.9354 30.4947C37.8024 30.4847 37.6687 30.5002 37.542 30.5403C37.4153 30.5805 37.298 30.6444 37.197 30.7284C37.096 30.8125 37.0133 30.915 36.9535 31.03C36.8938 31.1451 36.8582 31.2704 36.8489 31.3988C36.8396 31.5272 36.8567 31.6561 36.8993 31.778C36.9418 31.9 37.009 32.0126 37.0968 32.1094C37.1847 32.2062 37.2916 32.2853 37.4113 32.3421L40.5076 33.8204C40.7382 33.8927 40.9879 33.8826 41.2114 33.7919C41.4349 33.7013 41.6171 33.5362 41.725 33.3267C41.8328 33.1172 41.859 32.8773 41.7987 32.6507C41.7385 32.4241 41.5959 32.226 41.3969 32.0924Z" fill="#101B28" stroke="#101B28" stroke-width="0.970079"/>
<path d="M49.6673 27.6652L41.2513 25.2702L36.2915 18.2882C36.0049 17.8843 35.6207 17.5539 35.172 17.3257C34.7233 17.0974 34.2238 16.9781 33.7166 16.9781C33.2093 16.9781 32.7098 17.0974 32.2611 17.3257C31.8124 17.5539 31.4282 17.8843 31.1417 18.2882L26.1818 25.2702L17.7658 27.6652C17.2793 27.8036 16.835 28.0544 16.4715 28.3959C16.108 28.7373 15.8362 29.1591 15.6797 29.6248C15.5233 30.0904 15.4868 30.5858 15.5735 31.0682C15.6602 31.5505 15.8674 32.0051 16.1772 32.3927L21.5251 39.1018L21.2826 47.5661C21.2701 47.968 21.3417 48.3682 21.4931 48.7429C21.6445 49.1175 21.8726 49.4589 22.1638 49.7465C22.583 50.1571 23.1144 50.4445 23.6962 50.575C24.278 50.7055 24.8863 50.6738 25.4502 50.4837L33.7166 47.648L41.983 50.4837C42.32 50.6015 42.6755 50.6622 43.034 50.6631C43.4507 50.6617 43.8629 50.58 44.2465 50.4227C44.63 50.2654 44.9771 50.0358 45.2675 49.7473C45.5578 49.4588 45.7854 49.1172 45.9371 48.7427C46.0887 48.3681 46.1613 47.9681 46.1505 47.5661L45.908 39.1018L51.2559 32.3927C51.5657 32.0051 51.7729 31.5505 51.8596 31.0682C51.9463 30.5858 51.9099 30.0904 51.7534 29.6248C51.5969 29.1591 51.3252 28.7373 50.9617 28.3959C50.5982 28.0544 50.1539 27.8036 49.6673 27.6652ZM49.6673 31.203L44.0849 38.1851C43.9434 38.3638 43.8705 38.5844 43.8788 38.8092L44.1294 47.6168C44.1357 47.7601 44.1118 47.9032 44.059 48.0373C44.0061 48.1714 43.9256 48.2938 43.8222 48.3969C43.6744 48.5433 43.4861 48.6458 43.2798 48.6921C43.0734 48.7384 42.8577 48.7267 42.658 48.6582L34.0561 45.6938C33.9467 45.6583 33.832 45.6399 33.7166 45.6392C33.6009 45.6379 33.486 45.6564 33.377 45.6938L24.7711 48.6426C24.6027 48.7014 24.422 48.7194 24.2447 48.6951C24.0674 48.6709 23.899 48.6051 23.7542 48.5034C23.6094 48.4018 23.4927 48.2675 23.4141 48.1123C23.3356 47.957 23.2977 47.7855 23.3037 47.6129L23.5543 38.8053C23.5611 38.5801 23.4868 38.3596 23.3441 38.1812L17.778 31.203C17.6668 31.0675 17.5927 30.9072 17.5623 30.7368C17.5319 30.5665 17.5463 30.3915 17.6042 30.2279C17.6584 30.0598 17.7558 29.9077 17.8872 29.7857C18.0187 29.6636 18.1799 29.5756 18.356 29.5297L27.1196 27.0372C27.3436 26.9736 27.537 26.8354 27.6653 26.6471L32.8071 19.3881C32.9083 19.246 33.0442 19.1301 33.2028 19.0505C33.3614 18.9709 33.5378 18.9301 33.7166 18.9318C33.8948 18.9298 34.0708 18.9704 34.2288 19.05C34.3868 19.1297 34.5219 19.2458 34.622 19.3881L39.7799 26.6627C39.9117 26.8494 40.1057 26.9871 40.3297 27.0528L49.0771 29.5297C49.2487 29.5782 49.4055 29.6664 49.5338 29.7866C49.6621 29.9068 49.7581 30.0553 49.8134 30.2194C49.8688 30.3835 49.8818 30.5581 49.8514 30.7282C49.821 30.8982 49.7481 31.0585 49.639 31.1952L49.6673 31.203Z" fill="#101B28" stroke="#101B28" stroke-width="0.970079"/>
</svg>
