<svg width="110" height="32" viewBox="0 0 110 32" fill="none" xmlns="http://www.w3.org/2000/svg">
<g clip-path="url(#clip0)">
<path d="M105.926 32H4.07407C2.99356 32 1.95731 31.5786 1.19327 30.8284C0.429232 30.0783 0 29.0609 0 28L0 4C0 2.93913 0.429232 1.92172 1.19327 1.17157C1.95731 0.421427 2.99356 0 4.07407 0L105.926 0C107.006 0 108.043 0.421427 108.807 1.17157C109.571 1.92172 110 2.93913 110 4V28C110 29.0609 109.571 30.0783 108.807 30.8284C108.043 31.5786 107.006 32 105.926 32Z" fill="black"/>
<path d="M105.926 0.64C106.832 0.646284 107.698 1.0023 108.339 1.63107C108.979 2.25983 109.342 3.11081 109.348 4V28C109.342 28.8892 108.979 29.7402 108.339 30.3689C107.698 30.9977 106.832 31.3537 105.926 31.36H4.07407C3.16842 31.3537 2.30168 30.9977 1.66127 30.3689C1.02086 29.7402 0.658252 28.8892 0.651852 28V4C0.658252 3.11081 1.02086 2.25983 1.66127 1.63107C2.30168 1.0023 3.16842 0.646284 4.07407 0.64H105.926ZM105.926 0H4.07407C2.99356 0 1.95731 0.421427 1.19327 1.17157C0.429232 1.92172 0 2.93913 0 4L0 28C0 29.0609 0.429232 30.0783 1.19327 30.8284C1.95731 31.5786 2.99356 32 4.07407 32H105.926C107.006 32 108.043 31.5786 108.807 30.8284C109.571 30.0783 110 29.0609 110 28V4C110 2.93913 109.571 1.92172 108.807 1.17157C108.043 0.421427 107.006 0 105.926 0V0Z" fill="#A6A6A6"/>
<path d="M38.6224 8.16002C38.6412 8.45061 38.6004 8.74196 38.5024 9.01679C38.4045 9.29162 38.2513 9.54436 38.052 9.76002C37.6987 10.1094 37.2475 10.3477 36.7558 10.4445C36.2641 10.5412 35.7542 10.4921 35.291 10.3033C34.8279 10.1146 34.4324 9.79472 34.155 9.38453C33.8777 8.97434 33.7309 8.49237 33.7335 8.00002C33.7303 7.67345 33.7934 7.34952 33.9191 7.04718C34.0449 6.74484 34.2309 6.47017 34.4661 6.23924C34.7013 6.00831 34.981 5.82576 35.289 5.70226C35.5969 5.57877 35.9268 5.51681 36.2594 5.52002C36.6 5.52347 36.935 5.60569 37.2372 5.76002C37.5279 5.8795 37.781 6.07278 37.9706 6.32002L37.5631 6.72002C37.4091 6.52903 37.2097 6.37809 36.9824 6.28045C36.7551 6.18281 36.5068 6.14145 36.2594 6.16002C36.0132 6.15048 35.7679 6.19592 35.542 6.29292C35.3162 6.38992 35.1158 6.53595 34.9557 6.72002C34.7599 6.88786 34.6064 7.09807 34.5075 7.33408C34.4085 7.57009 34.3667 7.82544 34.3854 8.08002C34.3667 8.33459 34.4085 8.58994 34.5075 8.82595C34.6064 9.06196 34.7599 9.27217 34.9557 9.44002C35.3104 9.77037 35.7716 9.96849 36.2594 10C36.5179 10.0108 36.7756 9.96633 37.0148 9.86964C37.254 9.77294 37.4689 9.62635 37.6446 9.44002C37.7748 9.31515 37.878 9.16576 37.948 9.0008C38.018 8.83585 38.0534 8.65871 38.052 8.48002H36.2594V7.84002H38.6224V8.16002ZM42.3706 6.16002H40.1706V7.68002H42.2076V8.24002H40.1706V9.76002H42.3706V10.4H39.5187V5.60002H42.3706V6.16002ZM45.0594 10.4H44.4076V6.16002H43.0224V5.60002H46.4446V6.16002H45.0594V10.4ZM48.8076 10.4V5.60002H49.4594V10.4H48.8076ZM52.2298 10.4H51.578V6.16002H50.1928V5.60002H53.5335V6.16002H52.1483V10.4H52.2298ZM59.9705 9.76002C59.6172 10.1094 59.166 10.3477 58.6743 10.4445C58.1826 10.5412 57.6727 10.4921 57.2095 10.3033C56.7464 10.1146 56.3509 9.79472 56.0736 9.38453C55.7962 8.97434 55.6494 8.49237 55.652 8.00002C55.652 7.34228 55.9182 6.71148 56.3919 6.24639C56.8656 5.7813 57.508 5.52002 58.178 5.52002C58.8479 5.52002 59.4904 5.7813 59.9641 6.24639C60.4378 6.71148 60.7039 7.34228 60.7039 8.00002C60.7132 8.32734 60.6527 8.65296 60.5265 8.95602C60.4002 9.25909 60.2108 9.53293 59.9705 9.76002ZM56.8743 9.36002C57.2199 9.70349 57.6864 9.90389 58.178 9.92002C58.4242 9.92955 58.6695 9.88411 58.8954 9.78711C59.1212 9.69011 59.3216 9.54408 59.4817 9.36002C59.8473 8.99849 60.0524 8.50954 60.052 8.00002C60.0707 7.74544 60.0289 7.49009 59.9299 7.25408C59.831 7.01807 59.6775 6.80786 59.4817 6.64002C59.136 6.29654 58.6695 6.09614 58.178 6.08002C57.9317 6.07048 57.6864 6.11592 57.4606 6.21292C57.2347 6.30992 57.0343 6.45595 56.8743 6.64002C56.5086 7.00154 56.3035 7.4905 56.3039 8.00002C56.2852 8.25459 56.327 8.50994 56.426 8.74595C56.5249 8.98196 56.6784 9.19217 56.8743 9.36002ZM61.6002 10.4V5.60002H62.3335L64.6965 9.36002V5.60002H65.3483V10.4H64.6965L62.1705 6.48002V10.4H61.6002Z" fill="white" stroke="white" stroke-width="0.2" stroke-miterlimit="10"/>
<path d="M55.4893 17.44C55.0264 17.4302 54.5663 17.5124 54.1367 17.6818C53.7071 17.8512 53.3169 18.1043 52.9895 18.4257C52.6621 18.7471 52.4044 19.1302 52.2319 19.552C52.0593 19.9738 51.9756 20.4256 51.9856 20.88C51.9823 21.3326 52.0707 21.7814 52.2456 22.2002C52.4206 22.619 52.6785 22.9995 53.0045 23.3196C53.3305 23.6396 53.7181 23.8929 54.1446 24.0646C54.5712 24.2364 55.0282 24.3232 55.4893 24.32C55.9521 24.3298 56.4122 24.2476 56.8418 24.0782C57.2714 23.9088 57.6617 23.6557 57.989 23.3343C58.3164 23.0129 58.5741 22.6298 58.7466 22.208C58.9192 21.7862 59.003 21.3344 58.993 20.88C59.0101 20.4237 58.9312 19.9689 58.7612 19.5439C58.5911 19.119 58.3337 18.733 58.0048 18.4102C57.676 18.0873 57.2829 17.8345 56.8501 17.6676C56.4172 17.5007 55.954 17.4232 55.4893 17.44ZM55.4893 22.88C54.9595 22.8343 54.4663 22.5954 54.1071 22.2104C53.7478 21.8254 53.5486 21.3222 53.5486 20.8C53.5486 20.2778 53.7478 19.7746 54.1071 19.3896C54.4663 19.0046 54.9595 18.7657 55.4893 18.72C55.7597 18.7215 56.0269 18.7775 56.2742 18.8846C56.5216 18.9918 56.7439 19.1477 56.9274 19.3428C57.1108 19.5379 57.2513 19.7679 57.3404 20.0186C57.4294 20.2693 57.4649 20.5353 57.4448 20.8C57.4579 21.0632 57.4175 21.3263 57.3259 21.574C57.2343 21.8217 57.0934 22.049 56.9113 22.2427C56.7293 22.4363 56.5098 22.5924 56.2656 22.7018C56.0215 22.8112 55.7575 22.8718 55.4893 22.88ZM47.9115 17.44C47.4486 17.4302 46.9885 17.5124 46.5589 17.6818C46.1293 17.8512 45.7391 18.1043 45.4117 18.4257C45.0843 18.7471 44.8266 19.1302 44.6541 19.552C44.4816 19.9738 44.3978 20.4256 44.4078 20.88C44.4045 21.3326 44.4929 21.7814 44.6679 22.2002C44.8428 22.619 45.1007 22.9995 45.4267 23.3196C45.7527 23.6396 46.1403 23.8929 46.5668 24.0646C46.9934 24.2364 47.4505 24.3232 47.9115 24.32C48.3743 24.3298 48.8344 24.2476 49.264 24.0782C49.6936 23.9088 50.0839 23.6557 50.4113 23.3343C50.7386 23.0129 50.9963 22.6298 51.1689 22.208C51.3414 21.7862 51.4252 21.3344 51.4152 20.88C51.4323 20.4237 51.3534 19.9689 51.1834 19.5439C51.0134 19.119 50.7559 18.733 50.4271 18.4102C50.0982 18.0873 49.7051 17.8345 49.2723 17.6676C48.8394 17.5007 48.3762 17.4232 47.9115 17.44ZM47.9115 22.88C47.3817 22.8343 46.8885 22.5954 46.5293 22.2104C46.1701 21.8254 45.9708 21.3222 45.9708 20.8C45.9708 20.2778 46.1701 19.7746 46.5293 19.3896C46.8885 19.0046 47.3817 18.7657 47.9115 18.72C48.1819 18.7215 48.4491 18.7775 48.6965 18.8846C48.9439 18.9918 49.1662 19.1477 49.3496 19.3428C49.533 19.5379 49.6736 19.7679 49.7626 20.0186C49.8516 20.2693 49.8872 20.5353 49.867 20.8C49.8802 21.0632 49.8397 21.3263 49.7481 21.574C49.6565 21.8217 49.5156 22.049 49.3336 22.2427C49.1515 22.4363 48.932 22.5924 48.6878 22.7018C48.4437 22.8112 48.1797 22.8718 47.9115 22.88ZM38.867 18.48V19.92H42.3707C42.3203 20.6065 42.0329 21.2556 41.5559 21.76C41.2049 22.1059 40.7848 22.3768 40.3221 22.5557C39.8594 22.7347 39.364 22.8179 38.867 22.8C38.3559 22.8045 37.8491 22.7077 37.3771 22.5153C36.905 22.3229 36.4773 22.0389 36.1197 21.6804C35.7621 21.3218 35.4819 20.896 35.2959 20.4286C35.11 19.9611 35.022 19.4616 35.0374 18.96C35.0288 18.4601 35.1213 17.9635 35.3097 17.499C35.4981 17.0345 35.7786 16.6114 36.1348 16.2542C36.4911 15.897 36.9161 15.6128 37.3851 15.4181C37.8541 15.2234 38.3578 15.122 38.867 15.12C39.8627 15.1324 40.8192 15.5024 41.5559 16.16L42.6152 15.12C41.632 14.1874 40.3156 13.6704 38.9485 13.68C37.5178 13.6901 36.1474 14.2471 35.1282 15.2329C34.1089 16.2187 33.521 17.5556 33.4893 18.96C33.521 20.3644 34.1089 21.7013 35.1282 22.6871C36.1474 23.6729 37.5178 24.2299 38.9485 24.24C39.6493 24.2785 40.35 24.1619 40.9988 23.8988C41.6475 23.6357 42.2278 23.2328 42.6967 22.72C43.5582 21.8081 44.0256 20.6035 44.0004 19.36C44.0176 19.0643 43.9901 18.7678 43.9189 18.48H38.867ZM75.8596 19.6C75.6589 18.9859 75.2689 18.4482 74.7434 18.0613C74.2179 17.6743 73.5829 17.4572 72.9263 17.44C72.4769 17.4388 72.0321 17.5288 71.6199 17.7044C71.2076 17.88 70.8368 18.1374 70.5307 18.4605C70.2247 18.7835 69.9899 19.1652 69.8413 19.5816C69.6927 19.998 69.6333 20.44 69.667 20.88C69.6539 21.3285 69.7328 21.775 69.8992 22.1929C70.0655 22.6109 70.3157 22.9917 70.635 23.3126C70.9544 23.6336 71.3362 23.8882 71.7578 24.0613C72.1795 24.2343 72.6323 24.3223 73.0893 24.32C73.657 24.3255 74.2168 24.1888 74.7158 23.9228C75.2148 23.6568 75.6365 23.2704 75.9411 22.8L74.8004 22C74.6247 22.2922 74.3746 22.5345 74.0745 22.7028C73.7744 22.8712 73.4349 22.9598 73.0893 22.96C72.7302 22.978 72.374 22.8881 72.0683 22.7023C71.7626 22.5165 71.5218 22.2436 71.3782 21.92L76.0226 20L75.8596 19.6ZM71.1337 20.72C71.1169 20.2252 71.2931 19.7428 71.6262 19.3711C71.9593 18.9995 72.4243 18.7666 72.9263 18.72C73.1899 18.7115 73.4508 18.7741 73.6807 18.9011C73.9105 19.028 74.1005 19.2144 74.23 19.44L71.1337 20.72ZM67.3041 24H68.8522V14H67.3041V24ZM64.8596 18.16C64.367 17.6609 63.6933 17.3733 62.9856 17.36C62.0849 17.4012 61.235 17.7817 60.6128 18.4224C59.9905 19.0631 59.6438 19.9147 59.6448 20.8C59.6384 21.2363 59.7198 21.6695 59.8844 22.0748C60.049 22.4801 60.2935 22.8495 60.6039 23.1617C60.9144 23.4739 61.2846 23.7229 61.6933 23.8942C62.102 24.0655 62.5412 24.1558 62.9856 24.16C63.3256 24.1627 63.6622 24.0924 63.9718 23.9543C64.2814 23.8161 64.5566 23.6133 64.7782 23.36H64.8596V23.84C64.9108 24.2841 64.7935 24.7311 64.53 25.0955C64.2666 25.4599 63.8755 25.7162 63.4317 25.8152C62.9878 25.9142 62.5224 25.8491 62.1244 25.6323C61.7263 25.4155 61.4237 25.0622 61.2744 24.64L59.9707 25.2C60.2308 25.7944 60.6628 26.3007 61.2132 26.6562C61.7636 27.0117 62.4082 27.2008 63.067 27.2C64.8596 27.2 66.3263 26.16 66.3263 23.68V17.6H64.8596V18.16ZM63.067 22.88C62.5372 22.8343 62.0441 22.5954 61.6849 22.2104C61.3256 21.8254 61.1264 21.3222 61.1264 20.8C61.1264 20.2778 61.3256 19.7746 61.6849 19.3896C62.0441 19.0046 62.5372 18.7657 63.067 18.72C63.3309 18.731 63.5897 18.7941 63.8281 18.9056C64.0665 19.0171 64.2795 19.1746 64.4545 19.3688C64.6294 19.563 64.7627 19.7898 64.8463 20.0357C64.9299 20.2816 64.9622 20.5416 64.9411 20.8C64.9622 21.0584 64.9299 21.3184 64.8463 21.5643C64.7627 21.8102 64.6294 22.037 64.4545 22.2312C64.2795 22.4254 64.0665 22.5829 63.8281 22.6944C63.5897 22.8059 63.3309 22.869 63.067 22.88ZM82.9485 14H79.2819V24H80.83V20.24H82.9485C83.7913 20.24 84.5996 19.9113 85.1955 19.3262C85.7915 18.7411 86.1263 17.9475 86.1263 17.12C86.1263 16.2925 85.7915 15.4989 85.1955 14.9138C84.5996 14.3287 83.7913 14 82.9485 14ZM83.03 18.8H80.83V15.36H83.03C83.4916 15.3595 83.9357 15.5339 84.2696 15.8469C84.6035 16.1599 84.8016 16.5872 84.8226 17.04C84.8045 17.5011 84.6098 17.9385 84.2775 18.2648C83.9451 18.5911 83.4996 18.7822 83.03 18.8ZM92.4004 17.36C91.8482 17.3165 91.2955 17.4385 90.8154 17.7099C90.3354 17.9813 89.9504 18.3893 89.7115 18.88L91.0967 19.44C91.2323 19.2017 91.4352 19.0069 91.681 18.8791C91.9267 18.7514 92.2048 18.6961 92.4819 18.72C92.868 18.6917 93.2507 18.8079 93.553 19.0454C93.8554 19.2829 94.0549 19.6239 94.1115 20V20.08C93.6373 19.8224 93.1052 19.6849 92.5633 19.68C91.0967 19.68 89.63 20.48 89.63 21.92C89.6435 22.2308 89.7199 22.5358 89.8546 22.8173C89.9894 23.0987 90.1799 23.3511 90.415 23.5596C90.6501 23.768 90.9251 23.9285 91.224 24.0316C91.5229 24.1347 91.8397 24.1783 92.1559 24.16C92.5376 24.1728 92.9164 24.0917 93.258 23.924C93.5995 23.7563 93.8929 23.5074 94.1115 23.2H94.193V24H95.6596V20.16C95.6011 19.3661 95.226 18.6268 94.6159 18.1026C94.0057 17.5784 93.2096 17.3116 92.4004 17.36ZM92.2374 22.88C91.7485 22.88 91.0152 22.64 91.0152 22C91.0152 21.2 91.9115 20.96 92.6448 20.96C93.1253 20.9617 93.5991 21.0711 94.03 21.28C93.9678 21.71 93.7547 22.1051 93.4274 22.3972C93.1001 22.6893 92.6792 22.8601 92.2374 22.88ZM100.793 17.6L99.0819 21.92H99.0004L97.2078 17.6H95.5782L98.267 23.68L96.7189 27.04H98.267L102.423 17.6H100.793ZM87.1041 24H88.6522V14H87.1041V24Z" fill="white"/>
<path d="M8.47379 6C8.22568 6.31987 8.10932 6.71972 8.14786 7.12V24.8C8.13205 25.2109 8.27794 25.6119 8.55527 25.92L8.63675 26L18.7405 16.08V15.92L8.47379 6Z" fill="url(#paint0_linear)"/>
<path d="M21.9999 19.44L18.6592 16.16V15.92L21.9999 12.64L22.0814 12.72L26.074 14.96C27.2147 15.6 27.2147 16.64 26.074 17.28L21.9999 19.44Z" fill="url(#paint1_linear)"/>
<path d="M22.082 19.36L18.6598 16L8.47461 26C8.88202 26.4 9.45239 26.4 10.1857 26.08L22.082 19.36Z" fill="url(#paint2_linear)"/>
<path d="M22.082 12.64L10.1857 6.00001C9.93741 5.81137 9.62876 5.71581 9.31515 5.73047C9.00155 5.74513 8.70354 5.86906 8.47461 6.08001L18.6598 16L22.082 12.64Z" fill="url(#paint3_linear)"/>
<path opacity="0.2" d="M22.0005 19.28L10.1857 25.84C9.95211 26.0165 9.66564 26.1122 9.37091 26.1122C9.07617 26.1122 8.7897 26.0165 8.55609 25.84L8.47461 25.92L8.55609 26C8.7897 26.1765 9.07617 26.2722 9.37091 26.2722C9.66564 26.2722 9.95211 26.1765 10.1857 26L22.0005 19.28Z" fill="black"/>
<path opacity="0.12" d="M8.47379 25.84C8.22568 25.5201 8.10932 25.1203 8.14786 24.72V24.8C8.13205 25.2109 8.27794 25.6119 8.55527 25.92V25.84H8.47379ZM26.0738 17.04L21.9997 19.28L22.0812 19.36L26.0738 17.12C26.3009 17.0242 26.4969 16.8692 26.6405 16.6717C26.7842 16.4743 26.87 16.242 26.8886 16C26.8886 16.4 26.5627 16.72 26.0738 17.04Z" fill="black"/>
<path opacity="0.25" d="M10.1855 6.08002L26.0744 14.96C26.5633 15.28 26.8892 15.6 26.8892 16C26.8705 15.7581 26.7847 15.5257 26.6411 15.3283C26.4974 15.1308 26.3014 14.9758 26.0744 14.88L10.1855 6.00002C9.04473 5.36002 8.14844 5.84002 8.14844 7.12002V7.20002C8.14844 6.00002 9.04473 5.44002 10.1855 6.08002Z" fill="white"/>
</g>
<defs>
<linearGradient id="paint0_linear" x1="17.7627" y1="6.968" x2="4.33279" y2="20.6384" gradientUnits="userSpaceOnUse">
<stop stop-color="#00A0FF"/>
<stop offset="0.01" stop-color="#00A1FF"/>
<stop offset="0.26" stop-color="#00BEFF"/>
<stop offset="0.51" stop-color="#00D2FF"/>
<stop offset="0.76" stop-color="#00DFFF"/>
<stop offset="1" stop-color="#00E3FF"/>
</linearGradient>
<linearGradient id="paint1_linear" x1="27.5651" y1="16.04" x2="7.85474" y2="16.04" gradientUnits="userSpaceOnUse">
<stop stop-color="#FFE000"/>
<stop offset="0.41" stop-color="#FFBD00"/>
<stop offset="0.78" stop-color="#FFA500"/>
<stop offset="1" stop-color="#FF9C00"/>
</linearGradient>
<linearGradient id="paint2_linear" x1="20.2242" y1="17.824" x2="2.01931" y2="36.3661" gradientUnits="userSpaceOnUse">
<stop stop-color="#FF3A44"/>
<stop offset="1" stop-color="#C31162"/>
</linearGradient>
<linearGradient id="paint3_linear" x1="5.91609" y1="0.16801" x2="14.0427" y2="8.44514" gradientUnits="userSpaceOnUse">
<stop stop-color="#32A071"/>
<stop offset="0.07" stop-color="#2DA771"/>
<stop offset="0.48" stop-color="#15CF74"/>
<stop offset="0.8" stop-color="#06E775"/>
<stop offset="1" stop-color="#00F076"/>
</linearGradient>
<clipPath id="clip0">
<rect width="110" height="32" fill="white"/>
</clipPath>
</defs>
</svg>
