<?xml version="1.0" encoding="utf-8"?>
<!-- Generator: Adobe Illustrator 25.4.1, SVG Export Plug-In . SVG Version: 6.00 Build 0)  -->
<svg version="1.1" id="Warstwa_1" xmlns="http://www.w3.org/2000/svg" xmlns:xlink="http://www.w3.org/1999/xlink" x="0px" y="0px"
	 viewBox="0 0 396 97.7" style="enable-background:new 0 0 396 97.7;" xml:space="preserve">
<style type="text/css">
	.st0{fill:#63D349;}
	.st1{fill:#091320;}
</style>
<path class="st0" d="M50,97.7c-18-0.2-32.3-5-32.9-5.1l-1.4-0.5L14.8,91C-3.3,68.2,0.2,36.6,0.4,35.3L0.5,34l0.8-1
	c14.5-20.9,37.8-29.8,47-32.5L50,0l1.6,0.5C61,3.4,84.3,12.1,98.8,33l0.8,1l0.1,1.2c0.1,1.4,3.6,32.9-14.3,55.6L84.5,92l-1.4,0.5
	C82.3,92.7,68,97.5,50,97.7z M21.5,83.6c3.9,1.1,15.2,4,28.4,4.2c13.3-0.2,24.6-3.1,28.4-4.2C91,66.4,90.1,43.1,89.7,37.5
	C77.7,20.8,58.9,13.1,50,10.2c-8.9,2.9-27.7,10.6-40,27.4C9.6,43.1,8.9,66.6,21.5,83.6z"/>
<path class="st0" d="M67.9,63.1h-6.1v19.2H51.3V63.1h-3.5c-7.6,0-13.3-5.6-13.3-13.2v-28H45v26.4c0,2.5,1.9,4.4,4.4,4.4h2V21.9h10.4
	v30.8h6.1V63.1z"/>
<path class="st0" d="M41.1,76.9c2.8,0,5.1-2.3,5.1-5.1s-2.3-5.1-5.1-5.1S36,69,36,71.8S38.2,76.9,41.1,76.9z"/>
<path class="st0" d="M120.2,66.1V31.9c0-7.6,5.6-13.2,13.3-13.2h16.7V29h-15c-2.5,0-4.4,1.9-4.4,4.4v30.9c0,2.5,1.9,4.4,4.4,4.4h4.6
	V49.1h-4.5V38.8h14.9v40.5h-16.7C125.9,79.3,120.2,73.7,120.2,66.1z"/>
<path class="st0" d="M155.5,66.1V31.9c0-7.6,5.6-13.2,13.3-13.2h6.9c7.6,0,13.3,5.6,13.3,13.2v34.2c0,7.6-5.6,13.2-13.3,13.2h-6.9
	C161.1,79.3,155.5,73.7,155.5,66.1z M174.1,68.8c2.5,0,4.4-1.9,4.4-4.4V33.5c0-2.5-1.9-4.4-4.4-4.4h-3.8c-2.5,0-4.4,1.9-4.4,4.4
	v30.9c0,2.5,1.9,4.4,4.4,4.4H174.1z"/>
<path class="st0" d="M194.2,31.9c0-7.6,5.6-13.2,13.3-13.2h20.2v60.5h-10.4v-30h-12.7v30h-10.4L194.2,31.9L194.2,31.9z M217.1,38.8
	V29H209c-2.5,0-4.4,1.9-4.4,4.4v5.2h12.5V38.8z"/>
<path class="st0" d="M232.8,66.1V18.7h10.4v45.7c0,2.5,1.9,4.4,4.4,4.4h18.5v10.3h-20.2C238.4,79.3,232.8,73.7,232.8,66.1z"/>
<path class="st1" d="M271.5,70.9c0-1.2,1-2.1,2.1-2.1h7.4v10.5h-9.5V70.9z"/>
<path class="st1" d="M286.3,66.1V40.5c0-7.6,5.6-13.2,13.3-13.2h20.2v52h-20.2C291.9,79.3,286.3,73.7,286.3,66.1z M309.3,68.8V37.6
	h-8.1c-2.5,0-4.4,1.9-4.4,4.4v22.4c0,2.5,1.9,4.4,4.4,4.4H309.3z"/>
<path class="st1" d="M324.8,27.4h19.7c7.6,0,13.3,5.6,13.3,13.2V66c0,7.6-5.6,13.2-13.3,13.2h-9.3v13h-10.4L324.8,27.4L324.8,27.4z
	 M343,68.8c2.5,0,4.4-1.9,4.4-4.4V42.1c0-2.5-1.9-4.4-4.4-4.4h-7.8v31.2L343,68.8L343,68.8z"/>
<path class="st1" d="M363,27.4h19.7c7.6,0,13.3,5.6,13.3,13.2V66c0,7.6-5.6,13.2-13.3,13.2h-9.3v13H363V27.4z M381.2,68.8
	c2.5,0,4.4-1.9,4.4-4.4V42.1c0-2.5-1.9-4.4-4.4-4.4h-7.8v31.2L381.2,68.8L381.2,68.8z"/>
</svg>
