<svg xmlns="http://www.w3.org/2000/svg" xmlns:xlink="http://www.w3.org/1999/xlink" width="172" height="174" fill="none" xmlns:v="https://vecta.io/nano"><g clip-path="url(#A)" fill="#fff"><path d="M18.07 102.25l-16.8 2.048-.518-4.25a10.87 10.87 0 0 1-.063-2.056c.04-.602.197-1.189.464-1.73.268-.521.678-.956 1.183-1.254.661-.364 1.392-.584 2.144-.648.589-.088 1.189-.061 1.768.079a2.63 2.63 0 0 1 1.229.69 3.05 3.05 0 0 1 .723 1.254c.001-.603.161-1.196.464-1.718a3.14 3.14 0 0 1 1.254-1.162c.628-.318 1.31-.515 2.01-.581a6.8 6.8 0 0 1 2.24.05 3.88 3.88 0 0 1 1.651.756 3.99 3.99 0 0 1 1.087 1.425 6.74 6.74 0 0 1 .56 2.09l.606 5.006zm-10.448-2.202l-.104-.836a2.78 2.78 0 0 0-.418-1.316c-.209-.284-.518-.477-.865-.539a4.14 4.14 0 0 0-1.316 0c-.43.036-.844.18-1.204.418a1.49 1.49 0 0 0-.577.869 3.67 3.67 0 0 0-.046 1.362l.075.623 4.455-.581zm7.614-.928l-.117-.953c-.103-.858-.39-1.424-.861-1.697a3.19 3.19 0 0 0-1.985-.251 4.52 4.52 0 0 0-1.563.418 1.63 1.63 0 0 0-.777.836c-.154.449-.194.928-.117 1.396l.109.89 5.312-.639zm1.689-8.304L0 90.524l.13-7.376 2.382.042-.071 3.928 4.493.079.054-3.03 2.403.042-.054 3.03 5.307.092.071-3.97 2.34.042-.13 7.414zm1.108-12.971c-.1.903-.428 1.766-.953 2.508a3.64 3.64 0 0 1-1.947 1.308c-.984.249-2.007.309-3.013.176l-.063-3.009c.584.072 1.173.086 1.76.042a2.16 2.16 0 0 0 1.112-.384 1.29 1.29 0 0 0 .476-.836c.046-.171.044-.35-.006-.52s-.144-.322-.274-.441a1.92 1.92 0 0 0-.915-.38c-.625-.115-1.27-.029-1.843.246a8.47 8.47 0 0 0-1.634 1.12l-1.768 1.513c-.591.528-1.268.952-2.002 1.254a4.75 4.75 0 0 1-2.507.23C3.08 80.466 2.082 79.909 1.464 79s-.83-2.073-.635-3.494c.079-.716.325-1.403.719-2.006a3.22 3.22 0 0 1 1.291-1.087 4.6 4.6 0 0 1 1.601-.397c.557-.039 1.116-.03 1.672.025v2.975l-1.367-.063c-.336-.011-.669.072-.961.238a1.02 1.02 0 0 0-.456.786 1 1 0 0 0 .314.957 1.81 1.81 0 0 0 .936.418c.513.098 1.044.033 1.517-.188.485-.257.939-.568 1.354-.928l1.739-1.475a9.61 9.61 0 0 1 2.345-1.5c.945-.399 1.987-.514 2.996-.33a4.31 4.31 0 0 1 2.048.836 3.91 3.91 0 0 1 1.254 1.722c.271.755.341 1.567.205 2.357zm1.22-7.147L5.462 66.749l-.719 2.507-2.47-.706 2.378-8.316 2.47.706-.706 2.47 13.791 3.949-.953 3.339zm6.138-15.157a5.4 5.4 0 0 1-1.713 2.052c-.671.442-1.468.652-2.269.598a8.03 8.03 0 0 1-2.925-.815l.924-2.867a8.53 8.53 0 0 0 1.646.61 2.09 2.09 0 0 0 1.178 0c.157-.054.303-.14.427-.251s.225-.246.296-.397c.101-.145.159-.316.168-.492s-.032-.352-.118-.507a1.89 1.89 0 0 0-.74-.656 3.01 3.01 0 0 0-1.822-.368 8.33 8.33 0 0 0-1.91.527l-2.165.836a7.07 7.07 0 0 1-2.303.535 4.8 4.8 0 0 1-2.461-.61c-1.254-.644-1.998-1.496-2.282-2.566s-.1-2.227.556-3.49a4.6 4.6 0 0 1 1.333-1.672 3.26 3.26 0 0 1 1.601-.594 4.56 4.56 0 0 1 1.642.151 9.94 9.94 0 0 1 1.555.56l-.969 2.817c-.409-.19-.827-.359-1.254-.506a1.87 1.87 0 0 0-.99-.092c-.152.041-.292.117-.411.22s-.212.233-.274.377a1 1 0 0 0 0 1.007 1.8 1.8 0 0 0 .744.715 2.48 2.48 0 0 0 1.496.318c.543-.083 1.075-.231 1.584-.439l2.123-.836a9.91 9.91 0 0 1 2.708-.656c1.019-.064 2.035.168 2.925.669.677.337 1.253.846 1.672 1.475a3.87 3.87 0 0 1 .635 2.039 4.64 4.64 0 0 1-.606 2.307zm3.486-6.365l-11.764-8.224-1.496 2.144-2.09-1.475 4.956-7.105 2.09 1.471-1.475 2.09 11.768 8.258-1.989 2.842zm3.184-4.689l-10.33-13.791 2.57-2.833 14.723 8.956-2.148 2.37-3.168-2.06-1.797 1.981 2.319 2.98-2.169 2.399zm-1.496-7.012l1.362-1.505-5.742-3.845 4.38 5.349zm9.224-1.346L29.111 22.981l3.41-2.762a9.66 9.66 0 0 1 2.507-1.55 3.4 3.4 0 0 1 2.319-.121c.893.332 1.667.923 2.223 1.697a8.68 8.68 0 0 1 1.03 1.545c.237.46.372.966.393 1.484a3.05 3.05 0 0 1-.38 1.534l7.017 4.936-2.746 2.223-6.306-4.731-.94.765 4.848 5.955-2.695 2.173zm-3.444-9.721l.782-.631a2.74 2.74 0 0 0 .836-1.041c.132-.344.132-.725 0-1.07a4.09 4.09 0 0 0-.706-1.187c-.363-.51-.871-.899-1.459-1.116-.479-.142-1.023.033-1.63.526l-.878.735 3.055 3.782zm13.908 1.822l-7.405-12.295-2.24 1.346-1.325-2.202 7.41-4.459 1.325 2.198-2.19 1.329 7.397 12.295-2.971 1.789zm10.545-5.253c-.933.457-1.974.651-3.009.56a3.48 3.48 0 0 1-2.119-1.166 9.32 9.32 0 0 1-1.571-2.616L49.59 9.098l3.139-1.329 4.702 11.1a7.8 7.8 0 0 0 .568 1.099 1.93 1.93 0 0 0 .769.74 1.24 1.24 0 0 0 .535.099c.184-.007.363-.053.527-.137a1.27 1.27 0 0 0 .786-.744 1.87 1.87 0 0 0 0-1.062c-.114-.399-.253-.79-.418-1.17l-4.702-11.1 3.134-1.329 4.518 10.661a9.31 9.31 0 0 1 .782 2.946 3.49 3.49 0 0 1-.631 2.332 5.69 5.69 0 0 1-2.499 1.772zm6.167-2.671L62.891 3.878l5.216-1.296a4.81 4.81 0 0 1 2.549-.038 3.48 3.48 0 0 1 1.789 1.254 6.56 6.56 0 0 1 1.091 2.441c.292.95.322 1.96.088 2.925a3.42 3.42 0 0 1-1.283 1.814 6.57 6.57 0 0 1-2.273 1.003l-1.521.38 1.764 7.105-3.343.84zm1.011-10.301l1.174-.293a2.3 2.3 0 0 0 1.07-.514c.114-.115.204-.251.265-.401a1.21 1.21 0 0 0 .09-.472 5.09 5.09 0 0 0-.184-1.333 5.92 5.92 0 0 0-.418-1.229 1.32 1.32 0 0 0-.694-.669 2.16 2.16 0 0 0-1.287 0l-1.153.288 1.137 4.622zm19.188 7.359a5.61 5.61 0 0 1-2.959-.61 3.72 3.72 0 0 1-1.592-1.881 8.38 8.38 0 0 1-.531-2.967l-.125-6.31a8.31 8.31 0 0 1 .418-2.976A3.61 3.61 0 0 1 83.892.71a7.06 7.06 0 0 1 5.926-.108 3.66 3.66 0 0 1 1.605 1.847c.354.942.533 1.94.527 2.946l.125 6.31c.042 1.013-.099 2.025-.418 2.988a3.73 3.73 0 0 1-1.53 1.943 5.69 5.69 0 0 1-2.963.727zm-.05-2.486c.355.023.706-.092.978-.322.223-.228.369-.521.418-.836a5.46 5.46 0 0 0 .084-1.099l-.163-8.003a4.87 4.87 0 0 0-.125-1.082 1.52 1.52 0 0 0-.418-.798c-.279-.219-.633-.321-.986-.284-.173-.01-.347.014-.51.071a1.31 1.31 0 0 0-.443.263 1.54 1.54 0 0 0-.418.815 5.29 5.29 0 0 0-.079 1.087l.159 8.003c.005.368.044.734.117 1.095a1.45 1.45 0 0 0 .418.807 1.34 1.34 0 0 0 .97.284zm6.867 2.365L95.978.435l7.105.836-.276 2.328-3.674-.418-.535 4.543 3.114.368-.28 2.386-3.114-.368-.89 7.556-3.448-.422zm14.642 2.679l4.325-13.687-2.507-.786.773-2.453 8.25 2.608-.773 2.449-2.454-.773-4.325 13.687-3.289-1.045zm6.732 2.156l7.368-15.237 3.105 1.5-3.03 6.269 2.688 1.3 3.034-6.269 3.101 1.505-7.368 15.233-3.105-1.5 3.268-6.753-2.692-1.3-3.268 6.754-3.101-1.5zM126 27.524l9.482-14.021 6.11 4.133-1.333 1.973-3.255-2.202-2.508 3.724 2.508 1.697-1.35 1.989-2.508-1.697-2.971 4.397 3.285 2.227-1.308 1.935L126 27.524zm12.479 9.733l4.772-4.714 4.965-9.532 2.273 2.307-2.975 5.471 5.433-2.984 2.202 2.227-9.562 4.865-4.768 4.714-2.34-2.353zm5.111 5.395l13.44-10.285 4.484 5.851-1.893 1.446-2.386-3.122-3.569 2.733 1.843 2.407-1.91 1.459-1.839-2.407-4.217 3.226 2.412 3.151-1.856 1.425-4.509-5.884zm4.789 6.185l16.328-5.537 1.893 3.322-13.089 11.217-1.584-2.779 2.925-2.365-1.324-2.324-3.553 1.279-1.596-2.813zm7.146.761l1.003 1.759 5.433-4.275-6.436 2.516zm-1.595 9.19l15.818-6.026 1.563 4.104a9.88 9.88 0 0 1 .681 2.879 3.42 3.42 0 0 1-.61 2.244 4.86 4.86 0 0 1-2.303 1.584 8.66 8.66 0 0 1-1.793.489 3.45 3.45 0 0 1-1.529-.088c-.512-.158-.975-.446-1.342-.836l-6.879 5.124-1.253-3.302 6.477-4.543-.418-1.133-7.163 2.729-1.249-3.226zm10.305-.238l.36.936c.14.434.389.825.723 1.137a1.47 1.47 0 0 0 1.011.338 4.12 4.12 0 0 0 1.35-.301 3.12 3.12 0 0 0 1.517-1.036c.284-.418.284-.982 0-1.714l-.418-1.091-4.543 1.73zm-7.748 53.839l11.79 5.186-.941 2.24-8.918-1.767 7.472 5.207-.906 2.169-11.953-4.764.677-1.609 8.317 3.284-7.523-5.144.548-1.304 8.993 1.764-8.203-3.636.647-1.626zm-6.081 12.429a4.08 4.08 0 0 1 1.538-1.622 2.79 2.79 0 0 1 1.847-.263 6.59 6.59 0 0 1 2.123.836l4.154 2.432c.663.367 1.254.85 1.747 1.425a2.75 2.75 0 0 1 .644 1.718 5.12 5.12 0 0 1-.683 2.129c-.382.65-.904 1.208-1.528 1.632-.553.297-1.192.398-1.81.284-.741-.149-1.449-.433-2.089-.836l-4.179-2.436c-.662-.37-1.253-.855-1.743-1.434-.412-.488-.65-1.1-.677-1.738a4.03 4.03 0 0 1 .656-2.127zm1.496.873c-.18.255-.259.568-.221.878a1.29 1.29 0 0 0 .418.673c.24.218.503.41.785.572l5.116 2.988a4.5 4.5 0 0 0 .881.418c.209.041.423.033.628-.023a1.38 1.38 0 0 0 .551-.301c.159-.141.282-.317.361-.514a1.37 1.37 0 0 0 .094-.62 1.22 1.22 0 0 0-.388-.669 4.51 4.51 0 0 0-.79-.568l-5.111-2.993a5.31 5.31 0 0 0-.882-.418c-.252-.098-.531-.109-.79-.029-.285.118-.518.336-.652.615v-.009zm-3.952 3.507l10.264 7.739-1.906 2.508c-.31.419-.666.802-1.062 1.141-.332.287-.72.502-1.14.631a2.38 2.38 0 0 1-1.254 0c-.526-.15-1.017-.404-1.442-.748a3.72 3.72 0 0 1-.936-.978 2.02 2.02 0 0 1-.326-1.033 2.3 2.3 0 0 1 .276-1.086 2.67 2.67 0 0 1-1.187.689 2.47 2.47 0 0 1-1.291-.041 4.47 4.47 0 0 1-1.405-.753c-.444-.325-.835-.719-1.157-1.166-.27-.371-.451-.8-.527-1.253-.065-.445-.027-.898.113-1.325a4.77 4.77 0 0 1 .765-1.404l2.215-2.921zm-.101 2.871l-.535.706c-.417.568-.58 1.057-.459 1.467a2.7 2.7 0 0 0 1.04 1.253c.334.27.713.478 1.12.615.309.099.643.082.941-.046a2.27 2.27 0 0 0 .865-.748l.489-.648-3.461-2.599zm4.752 3.589l-.481.631c-.239.285-.405.624-.484.987-.043.283.024.571.188.806.211.299.471.561.769.773a1.97 1.97 0 0 0 .982.452c.299.029.598-.058.836-.243.316-.246.597-.534.835-.856l.276-.368-2.921-2.182zm-9.964.28l9.549 8.618-1.555 1.722-9.549-8.622 1.555-1.718zm-2.715 2.98l8.897 9.303-1.697 1.625-7.777-8.12-2.248 2.153-1.12-1.17 3.945-3.791zm-4.585 4.288l8.045 10.03-4.213 3.377-1.032-1.288 2.378-1.909-2.315-2.884-1.872 1.5-1.02-1.279 1.868-1.5-2.662-3.318-2.403 1.926-1.011-1.253 4.237-3.402zm-9.228 6.707l5.671 9.591 1.763-1.044.882 1.462-5.521 3.273-.881-1.492 1.734-1.028-5.671-9.579 2.023-1.183zm-4.455 2.608l5.362 11.702-2.8 1.283c-.672.325-1.392.54-2.132.635-.586.07-1.178-.069-1.672-.393a3.81 3.81 0 0 1-1.274-1.651 6.29 6.29 0 0 1-.451-1.329c-.084-.382-.084-.779 0-1.161.099-.382.298-.729.576-1.008l-4.271-5.015 2.136-.977 3.87 4.705.982-.447-2.453-5.358 2.127-.986zm.932 7.677l-.661.305c-.345.141-.655.356-.907.631a1.15 1.15 0 0 0-.263.836c.034.38.139.75.309 1.091.179.479.503.89.928 1.174.351.192.836.151 1.438-.125l.777-.36-1.621-3.552zm-8.693-4.267l4.117 12.187-5.116 1.73-.53-1.567 2.887-.974-1.182-3.506-2.274.769-.522-1.551 2.273-.769-1.362-4.033-2.926.987-.518-1.534 5.153-1.739zm-6.088 2.023l2.842 12.537-1.596.36-4.673-6.457 1.63 7.159-1.889.418-2.842-12.538 1.517-.342 4.765 6.799-1.697-7.493 1.943-.443zm-8.04 1.734l1.366 12.793-3.017.321a5.75 5.75 0 0 1-2.508-.167 2.5 2.5 0 0 1-1.387-1.178 5.87 5.87 0 0 1-.61-2.203l-.497-4.676a6.21 6.21 0 0 1 .125-2.353 2.61 2.61 0 0 1 1.082-1.504c.707-.412 1.499-.652 2.315-.703l3.13-.33zm-2.165 1.877l-.71.075c-.409.011-.803.158-1.12.418a1.25 1.25 0 0 0-.339.878 10.03 10.03 0 0 0 .063 1.341l.522 4.894a5.86 5.86 0 0 0 .242 1.254 1.08 1.08 0 0 0 .202.378 1.07 1.07 0 0 0 .333.269 2.19 2.19 0 0 0 1.145.101l.677-.076-1.016-9.532zm-9.475-1.283a3.81 3.81 0 0 1 1.931.485 2.83 2.83 0 0 1 1.153 1.345 5.67 5.67 0 0 1 .418 2.148l-2.023.364c-.007-.445-.06-.887-.159-1.321a1.95 1.95 0 0 0-.447-.886c-.107-.106-.234-.189-.374-.244a1.09 1.09 0 0 0-.441-.077c-.156-.023-.314-.005-.461.053a.91.91 0 0 0-.375.273 1.47 1.47 0 0 0-.251.86 2.33 2.33 0 0 0 .359 1.388c.285.408.621.779.999 1.103l1.596 1.455a4.89 4.89 0 0 1 1.066 1.324 3.61 3.61 0 0 1 .376 1.797 3.04 3.04 0 0 1-.212 1.267c-.16.402-.404.765-.716 1.065a3.42 3.42 0 0 1-2.445.79 3.6 3.6 0 0 1-1.5-.305 2.35 2.35 0 0 1-.949-.786c-.239-.341-.413-.723-.514-1.128a6.4 6.4 0 0 1-.201-1.329l2.006-.318a6.66 6.66 0 0 0 .117 1.083c.044.279.166.539.351.752a1.03 1.03 0 0 0 .356.22 1.04 1.04 0 0 0 .413.064.98.98 0 0 0 .442-.07.97.97 0 0 0 .364-.26c.191-.237.294-.532.293-.836a1.98 1.98 0 0 0-.255-1.078c-.215-.325-.472-.62-.765-.878l-1.58-1.437a6.62 6.62 0 0 1-1.333-1.588c-.378-.66-.561-1.414-.527-2.173a3.26 3.26 0 0 1 .418-1.63 2.92 2.92 0 0 1 1.145-1.104 3.46 3.46 0 0 1 1.722-.388zm-7.104-.117l-4.572 12.295-2.478-.418-.51-13.106 2.148.343.034 3.013 2.211.351.986-2.846 2.182.368zm-3.636 3.936l-1.726-.275v5.47l1.726-5.195zm-5.759-5.591l-1.872 12.855-1.889-.552 1.325-8.3-3.615 7.594-1.542-.451 1.028-8.359-3.343 7.702-1.86-.543 5.345-11.839 1.826.539-1.053 8.676 3.761-7.878 1.889.556zm-8.086-2.457l-7.497 10.765-2.303-1.003 2.783-12.822 1.994.87-.723 2.925 2.056.894 1.672-2.507 2.019.878zm-4.505 2.925l-1.601-.727-1.358 5.299 2.959-4.572zm-3.215-6.361l-6.44 11.133-2.67-1.542a6.77 6.77 0 0 1-1.747-1.37 2.51 2.51 0 0 1-.652-1.597 3.76 3.76 0 0 1 .61-1.993 6.15 6.15 0 0 1 .836-1.137 2.61 2.61 0 0 1 .949-.673 2.22 2.22 0 0 1 1.158-.113l1.617-6.381 2.035 1.174-1.605 5.88.936.543 2.921-5.102 2.052 1.178zm-5.725 5.216l-.631-.364c-.314-.2-.67-.328-1.041-.372a1.16 1.16 0 0 0-.836.259c-.292.247-.534.546-.715.882-.286.424-.433.927-.418 1.438.046.418.355.765.932 1.099l.744.418 1.964-3.36zm-1.537-9.52l-7.698 10.305-2.428-1.813a5.76 5.76 0 0 1-1.709-1.81c-.297-.554-.374-1.2-.217-1.809a5.85 5.85 0 0 1 1.053-2.031l2.813-3.762a6.31 6.31 0 0 1 1.672-1.638 2.61 2.61 0 0 1 1.822-.368 5.19 5.19 0 0 1 2.173 1.058l2.52 1.868zm-2.858-.096l-.572-.418a1.86 1.86 0 0 0-1.103-.464 1.25 1.25 0 0 0-.836.418 9.8 9.8 0 0 0-.869 1.028l-2.925 3.945a5.55 5.55 0 0 0-.669 1.053 1.09 1.09 0 0 0-.108.413c-.009.143.011.287.058.423a2.18 2.18 0 0 0 .773.836l.547.418 5.705-7.652zm-6.077-7.381c.512.448.893 1.025 1.103 1.672a2.83 2.83 0 0 1-.046 1.772 5.73 5.73 0 0 1-1.12 1.851l-1.747-1.086a6.3 6.3 0 0 0 .769-1.087c.169-.292.26-.623.263-.961a1.09 1.09 0 0 0-.111-.431 1.1 1.1 0 0 0-.274-.351.92.92 0 0 0-.378-.26c-.146-.053-.304-.069-.458-.045a1.49 1.49 0 0 0-.765.468 2.38 2.38 0 0 0-.664 1.254 6.07 6.07 0 0 0 0 1.484l.209 2.148c.069.568.035 1.144-.1 1.701a3.58 3.58 0 0 1-.924 1.584 3.06 3.06 0 0 1-1.009.797c-.389.191-.815.296-1.248.31a3.42 3.42 0 0 1-2.336-1.053 3.66 3.66 0 0 1-.915-1.254c-.163-.385-.224-.805-.175-1.22a3.5 3.5 0 0 1 .376-1.183 6.84 6.84 0 0 1 .744-1.12l1.701 1.112a6.81 6.81 0 0 0-.639.882 1.5 1.5 0 0 0-.259.819 1.01 1.01 0 0 0 .38.723.97.97 0 0 0 .382.25.96.96 0 0 0 .454.046c.303-.039.581-.188.782-.417a1.95 1.95 0 0 0 .535-.966 4.25 4.25 0 0 0 .021-1.166l-.205-2.127a6.63 6.63 0 0 1 .075-2.09 3.97 3.97 0 0 1 1.07-1.968 3.22 3.22 0 0 1 1.413-.919 2.88 2.88 0 0 1 1.588-.046c.57.156 1.09.459 1.509.877zm44.958-32.317h2.558v-9.85h3.088v-1.4h-8.734v1.4h3.088v9.85zM71.367 93.412c-.108-.223-.249-.428-.418-.61a3.06 3.06 0 0 0-.631-.501c-.256-.155-.527-.281-.811-.376a5.21 5.21 0 0 0-.978-.23 57.51 57.51 0 0 1-7.715-1.634 38.66 38.66 0 0 1-6.269-2.37 22.4 22.4 0 0 1-4.551-2.879c-1.1-.89-2.039-1.963-2.775-3.172a8.91 8.91 0 0 1-.451-.89 7.37 7.37 0 0 1-.313-.878 7.22 7.22 0 0 1-.196-.857 7.1 7.1 0 0 1-.079-.836 6.79 6.79 0 0 1 .418-2.478c.294-.804.702-1.561 1.212-2.248a13.12 13.12 0 0 1 1.78-2.002 19.42 19.42 0 0 1 2.303-1.772 1.51 1.51 0 0 0 .209-.159c.049-.047.094-.099.134-.155a.47.47 0 0 0 .067-.15.4.4 0 0 0 0-.138.39.39 0 0 0-.117-.184.9.9 0 0 0-.238-.15 1.96 1.96 0 0 0-.364-.117 4.16 4.16 0 0 0-.476-.071c-.317-.025-.636-.025-.953 0a8.2 8.2 0 0 0-.999.13 7.35 7.35 0 0 0-.936.242 4.17 4.17 0 0 0-.773.338c-1.041.619-2.04 1.304-2.992 2.052a19.48 19.48 0 0 0-2.537 2.365 13.61 13.61 0 0 0-1.901 2.716 9.72 9.72 0 0 0-1.02 3.08 8.82 8.82 0 0 0-.088 1.053 8.66 8.66 0 0 0 .05 1.091 9.14 9.14 0 0 0 .196 1.128 8.92 8.92 0 0 0 .364 1.153 12.75 12.75 0 0 0 2.767 4.217 23.37 23.37 0 0 0 5.224 3.979 41.93 41.93 0 0 0 7.723 3.381 64.73 64.73 0 0 0 9.909 2.395 6.64 6.64 0 0 0 1.931.025c.628-.082 1.242-.248 1.826-.493a5.62 5.62 0 0 0 1.488-.907c.396-.326.717-.734.94-1.195a2.81 2.81 0 0 0 .175-.506 2.43 2.43 0 0 0 .054-.485 1.88 1.88 0 0 0-.054-.46 2.06 2.06 0 0 0-.151-.418m3.731-7.329a1.54 1.54 0 0 0-.155-.322c-.117-.17-.257-.322-.418-.451a3.12 3.12 0 0 0-.577-.376c-.233-.116-.477-.21-.727-.28a5.6 5.6 0 0 0-.861-.175c-1.676-.2-3.34-.497-4.981-.89-1.449-.344-2.872-.789-4.259-1.333-1.164-.451-2.284-1.01-3.343-1.672a11.19 11.19 0 0 1-2.336-1.947l-.456-.568a6.16 6.16 0 0 1-.368-.564 5.85 5.85 0 0 1-.28-.56 4.92 4.92 0 0 1-.201-.552c-.166-.553-.219-1.135-.155-1.709a4.79 4.79 0 0 1 .493-1.605 7.12 7.12 0 0 1 1.02-1.479c.444-.491.932-.94 1.459-1.341.067-.049.128-.105.184-.167a.58.58 0 0 0 .104-.163.38.38 0 0 0 .038-.155.36.36 0 0 0-.033-.15.58.58 0 0 0-.155-.188c-.087-.064-.181-.117-.28-.159a2.78 2.78 0 0 0-.389-.121l-.497-.075c-.326-.025-.653-.025-.978 0a7.17 7.17 0 0 0-.999.125 6.53 6.53 0 0 0-.911.251 3.16 3.16 0 0 0-.715.351 16.35 16.35 0 0 0-2.048 1.638 11.12 11.12 0 0 0-1.571 1.847 7.31 7.31 0 0 0-.961 2.052c-.208.729-.269 1.492-.18 2.244a5.75 5.75 0 0 0 .376 1.483 6.92 6.92 0 0 0 .347.765c.142.266.298.524.468.773a11.87 11.87 0 0 0 2.662 2.716c1.298.964 2.7 1.779 4.179 2.432a36.73 36.73 0 0 0 5.562 1.977 52.67 52.67 0 0 0 6.712 1.35 6.59 6.59 0 0 0 1.672 0c.525-.056 1.042-.177 1.538-.359a4.64 4.64 0 0 0 1.229-.665 2.58 2.58 0 0 0 .744-.886 1.93 1.93 0 0 0 .121-.372 1.31 1.31 0 0 0 0-.359c-.009-.117-.033-.232-.071-.343m2.664-5.882a1.31 1.31 0 0 0-.155-.251 1.67 1.67 0 0 0-.376-.347 2.92 2.92 0 0 0-.522-.288 4.37 4.37 0 0 0-.648-.217 5.83 5.83 0 0 0-.765-.134l-2.783-.418a22.28 22.28 0 0 1-2.47-.665 14.52 14.52 0 0 1-2.064-.869c-.565-.288-1.097-.635-1.588-1.036l-.343-.313c-.109-.105-.201-.209-.293-.313a3.42 3.42 0 0 1-.247-.318l-.201-.313a2.87 2.87 0 0 1-.351-1.028c-.041-.336-.014-.677.079-1.003a3.34 3.34 0 0 1 .456-.949c.227-.326.492-.623.79-.886a1.01 1.01 0 0 0 .159-.18.54.54 0 0 0 .079-.175c.013-.055.013-.112 0-.167s-.033-.112-.067-.159a.74.74 0 0 0-.201-.192 1.55 1.55 0 0 0-.313-.163 3.52 3.52 0 0 0-.418-.125 4.19 4.19 0 0 0-.514-.079c-.334-.025-.669-.025-1.003 0a7.04 7.04 0 0 0-.995.13 5.26 5.26 0 0 0-.886.251 2.7 2.7 0 0 0-.669.359 8.87 8.87 0 0 0-1.254 1.212 5.65 5.65 0 0 0-.836 1.329c-.205.45-.323.935-.347 1.429-.023.516.063 1.032.251 1.513.063.159.134.313.213.468a5.14 5.14 0 0 0 .284.476 5.75 5.75 0 0 0 .351.472c.131.164.271.322.418.472a10.31 10.31 0 0 0 2.09 1.609 18.34 18.34 0 0 0 2.925 1.383c1.181.44 2.39.802 3.619 1.082a38.65 38.65 0 0 0 4.179.719 6.72 6.72 0 0 0 1.446 0c.452-.041.898-.133 1.329-.276a3.84 3.84 0 0 0 1.045-.506c.258-.169.469-.402.61-.677.043-.09.074-.186.092-.284a.94.94 0 0 0 0-.28 1.03 1.03 0 0 0-.08-.267"/><use xlink:href="#B"/><use xlink:href="#C"/><path d="M86.077 53.43a.53.53 0 0 0 .493-.325.53.53 0 0 0-.112-.58.53.53 0 0 0-.579-.117.53.53 0 0 0-.329.491.53.53 0 0 0 .526.531z"/><use xlink:href="#D"/><path d="M86.077 58.625c.14 0 .273-.055.372-.154s.154-.233.154-.372-.055-.274-.154-.372a.53.53 0 0 0-.744 0 .53.53 0 0 0 0 .744.53.53 0 0 0 .372.154zm0-1.3a.53.53 0 0 0 .293-.089c.087-.058.154-.14.194-.236s.05-.202.03-.304-.07-.196-.144-.27-.168-.124-.27-.144-.208-.01-.304.03-.178.107-.236.194-.089.188-.089.293c0 .14.056.274.154.372a.53.53 0 0 0 .372.154zm-5.199-3.895a.53.53 0 0 0 .381-.905.53.53 0 0 0-.908.374c-.001.07.013.138.039.203a.51.51 0 0 0 .114.172.52.52 0 0 0 .171.115.54.54 0 0 0 .203.041z"/><path d="M80.878 54.726c.14 0 .274-.056.372-.154a.53.53 0 0 0 0-.744c-.098-.099-.233-.154-.372-.154a.53.53 0 0 0-.372.154c-.099.098-.154.233-.154.372s.055.274.154.372a.53.53 0 0 0 .372.154zm0 1.304a.53.53 0 0 0 .381-.905.53.53 0 0 0-.908.374c-.001.069.013.139.039.203a.52.52 0 0 0 .114.172c.049.049.107.088.171.115a.52.52 0 0 0 .203.041z"/><use xlink:href="#E"/><use xlink:href="#F"/><use xlink:href="#G"/><use xlink:href="#H"/><path d="M87.376 59.924a.53.53 0 0 0 .374-.908.53.53 0 0 0-.905.381.53.53 0 0 0 .531.527zm0-1.299a.52.52 0 0 0 .291-.091.53.53 0 0 0 .192-.237c.039-.096.049-.202.028-.304a.53.53 0 0 0-.145-.269c-.074-.074-.168-.123-.27-.143s-.208-.009-.304.031-.178.107-.236.194-.089.188-.089.292a.53.53 0 0 0 .531.526zm0-1.283a.53.53 0 0 0 .374-.908.53.53 0 0 0-.905.381.53.53 0 0 0 .531.527zm1.301 1.283a.52.52 0 0 0 .291-.091.53.53 0 0 0 .192-.237c.039-.096.049-.202.028-.304a.53.53 0 0 0-.145-.269c-.074-.074-.168-.123-.27-.143s-.208-.009-.304.031-.178.107-.236.194-.088.188-.088.292a.53.53 0 0 0 .531.526z"/><use xlink:href="#I"/><use xlink:href="#J"/><path d="M88.677 54.726a.52.52 0 0 0 .291-.091.53.53 0 0 0 .192-.237c.039-.096.049-.202.028-.304a.53.53 0 0 0-.145-.269c-.074-.074-.168-.123-.27-.143s-.208-.009-.304.031-.178.107-.236.194-.088.188-.088.292c0 .07.014.138.04.203a.51.51 0 0 0 .115.171.52.52 0 0 0 .172.114.54.54 0 0 0 .203.039zm0-1.296a.53.53 0 0 0 .375-.906.53.53 0 0 0-.906.375.53.53 0 0 0 .531.531zm0-1.3a.53.53 0 0 0 .375-.906.53.53 0 0 0-.906.375.53.53 0 0 0 .531.531zm-9.103 0a.53.53 0 0 0 .369-.908.53.53 0 0 0-.905.377c.001.141.058.276.158.375s.236.155.377.155z"/><use xlink:href="#K"/><path d="M79.574 54.726c.104-.002.205-.034.29-.093a.53.53 0 0 0 .19-.238c.038-.096.048-.202.026-.304s-.072-.195-.146-.267-.168-.122-.27-.142a.53.53 0 0 0-.538.225.52.52 0 0 0-.088.292.53.53 0 0 0 .534.526zm0 1.304a.53.53 0 0 0 .369-.908.53.53 0 0 0-.905.377c.001.141.058.276.158.376s.236.155.377.155zm.185.179a.53.53 0 0 0-.375.906.53.53 0 0 0 .906-.375.53.53 0 0 0-.531-.531zm-.184 1.363a.53.53 0 0 0-.48.331c-.038.096-.048.202-.027.304a.52.52 0 0 0 .146.267c.074.072.168.122.27.142s.207.009.303-.031a.53.53 0 0 0 .235-.194.52.52 0 0 0 .088-.292.53.53 0 0 0-.331-.488c-.065-.026-.134-.039-.203-.039zm0 1.295a.53.53 0 0 0-.369.908.53.53 0 0 0 .905-.377c-.001-.141-.058-.276-.158-.375s-.236-.155-.377-.155zm1.303 1.057a.53.53 0 0 0 .38-.906.53.53 0 0 0-.906.38c0 .14.055.274.154.372a.53.53 0 0 0 .372.154zm0 1.308c.133-.012.257-.073.347-.172s.14-.227.14-.361-.05-.263-.14-.361a.54.54 0 0 0-.347-.172c-.133.012-.257.073-.347.172s-.14.227-.14.361.05.263.14.361a.54.54 0 0 0 .347.172z"/><use xlink:href="#L"/><use xlink:href="#M"/><use xlink:href="#N"/><path d="M88.677 61.232a.54.54 0 0 0 .299-.088.53.53 0 0 0 .23-.55.54.54 0 0 0-.422-.422.53.53 0 0 0-.31.031c-.098.041-.181.11-.24.199a.53.53 0 0 0 .443.83zm0-1.308a.53.53 0 0 0 .374-.908.53.53 0 0 0-.905.381.53.53 0 0 0 .531.527z"/><use xlink:href="#O"/><path d="M89.98 58.625c.104-.002.205-.034.29-.093a.53.53 0 0 0 .19-.238c.038-.096.048-.202.026-.303a.53.53 0 0 0-.146-.267c-.074-.072-.168-.122-.27-.142s-.207-.009-.303.031-.178.108-.235.194a.53.53 0 0 0 .07.666.53.53 0 0 0 .377.152zm0-1.3c.104-.002.205-.034.29-.093a.53.53 0 0 0 .19-.238c.038-.096.048-.202.026-.304s-.072-.195-.146-.267-.168-.122-.27-.142-.207-.009-.303.031-.178.108-.235.194a.53.53 0 0 0-.088.292.52.52 0 0 0 .041.203c.027.064.067.123.116.172a.52.52 0 0 0 .174.114.53.53 0 0 0 .204.038z"/><use xlink:href="#P"/><path d="M89.98 54.726c.14 0 .274-.056.372-.154a.53.53 0 0 0 .154-.372c0-.139-.055-.273-.154-.372s-.233-.154-.372-.154a.53.53 0 0 0-.526.526c0 .139.055.274.154.372a.53.53 0 0 0 .372.154zm0-1.296a.53.53 0 0 0 .369-.908.53.53 0 0 0-.905.377.53.53 0 0 0 .535.531zm0-1.3a.53.53 0 0 0 .369-.908.53.53 0 0 0-.905.377.53.53 0 0 0 .535.531zm0-1.283a.53.53 0 0 0 .297-.09.54.54 0 0 0 .197-.24c.041-.098.051-.205.03-.309s-.072-.199-.146-.274-.17-.126-.274-.146-.211-.01-.309.03a.53.53 0 0 0-.33.494.53.53 0 0 0 .157.378c.101.1.236.157.378.157zm0-1.324a.53.53 0 0 0 .369-.908.53.53 0 0 0-.905.377.53.53 0 0 0 .535.531zm-1.303 0a.53.53 0 0 0 .375-.906.53.53 0 0 0-.906.375.53.53 0 0 0 .531.531z"/><use xlink:href="#Q"/><use xlink:href="#R"/><path d="M78.271 52.373a.53.53 0 0 0-.38.906.53.53 0 0 0 .906-.38c0-.14-.055-.274-.154-.372a.53.53 0 0 0-.372-.154zm0 1.3a.53.53 0 0 0-.293.089c-.087.058-.154.14-.194.236s-.05.202-.03.304.07.196.144.27a.52.52 0 0 0 .27.144c.103.02.208.01.304-.03s.178-.107.236-.194.089-.188.089-.293a.53.53 0 0 0-.154-.372c-.098-.099-.233-.154-.372-.154zm0 1.299a.53.53 0 0 0-.38.906.53.53 0 0 0 .906-.38c0-.14-.055-.274-.154-.372a.53.53 0 0 0-.372-.154zm0 1.308a.53.53 0 0 0-.293.089c-.087.058-.154.14-.194.236s-.05.202-.03.304.07.196.144.27a.52.52 0 0 0 .27.144c.103.02.208.01.304-.03s.178-.107.236-.194.089-.188.089-.293a.52.52 0 0 0-.324-.487.54.54 0 0 0-.202-.039zm0 1.292c-.14 0-.274.056-.372.154a.53.53 0 0 0-.154.372c0 .139.055.274.154.372a.53.53 0 0 0 .372.154c.139 0 .274-.055.372-.154a.53.53 0 0 0 0-.744.53.53 0 0 0-.372-.154zm0 1.295a.53.53 0 0 0-.381.905.53.53 0 0 0 .908-.374c.001-.069-.013-.138-.039-.203a.51.51 0 0 0-.114-.172c-.049-.049-.107-.088-.171-.115a.52.52 0 0 0-.202-.041zm-.001 1.3a.53.53 0 0 0-.299.086.54.54 0 0 0-.235.548c.019.105.07.2.145.276a.54.54 0 0 0 .274.149.53.53 0 0 0 .31-.029c.098-.04.182-.109.241-.197s.091-.192.091-.298a.53.53 0 0 0-.527-.535z"/><use xlink:href="#S"/><path d="M79.574 61.479a.53.53 0 0 0-.497.323.53.53 0 0 0 .111.582.53.53 0 0 0 .581.116.53.53 0 0 0 .327-.494c-.002-.14-.059-.274-.16-.373s-.235-.154-.375-.154"/><use xlink:href="#T"/><path d="M84.777 62.549a.53.53 0 0 0 .375-.906.53.53 0 0 0-.906.375.53.53 0 0 0 .531.531zm1.3 0a.53.53 0 0 0 .381-.905.53.53 0 0 0-.908.374.53.53 0 0 0 .526.531zm1.299 0a.53.53 0 0 0 .375-.906.53.53 0 0 0-.907.375.53.53 0 0 0 .531.531zm1.301 0a.53.53 0 0 0 .375-.906.53.53 0 0 0-.906.375.53.53 0 0 0 .531.531zm1.303 0a.53.53 0 0 0 .369-.908.53.53 0 0 0-.905.377.53.53 0 0 0 .535.531zm.001-1.316c.133-.012.257-.073.347-.172s.14-.227.14-.361-.05-.262-.14-.361-.214-.16-.347-.172c-.074-.007-.148.002-.219.026s-.135.062-.19.112-.099.111-.128.179a.55.55 0 0 0-.045.216.55.55 0 0 0 .045.216.53.53 0 0 0 .318.291c.071.024.145.033.219.026zm2.591-.001a.54.54 0 0 0 .299-.088.53.53 0 0 0 .199-.24.54.54 0 0 0 .032-.31c-.02-.104-.072-.2-.147-.275a.54.54 0 0 0-.275-.147.53.53 0 0 0-.31.031c-.098.041-.181.11-.24.199a.53.53 0 0 0 .443.83zm0-1.308a.53.53 0 0 0 .374-.908.53.53 0 0 0-.905.381.53.53 0 0 0 .531.527zm0-1.299a.52.52 0 0 0 .291-.091.53.53 0 0 0 .192-.237c.039-.096.049-.202.028-.304a.53.53 0 0 0-.145-.269c-.074-.074-.168-.123-.27-.143s-.208-.009-.304.031-.178.107-.236.194-.088.188-.088.292a.53.53 0 0 0 .531.526zm0-1.3a.52.52 0 0 0 .291-.091.53.53 0 0 0 .192-.237c.039-.096.049-.202.028-.304a.53.53 0 0 0-.145-.269c-.074-.074-.168-.123-.27-.143s-.208-.009-.304.031-.178.108-.236.194a.52.52 0 0 0-.088.292.53.53 0 0 0 .041.203c.027.065.066.122.115.171a.52.52 0 0 0 .172.114.54.54 0 0 0 .203.039zm0-1.296a.53.53 0 0 0 .375-.906.53.53 0 0 0-.906.375.53.53 0 0 0 .531.531z"/><use xlink:href="#U"/><path d="M92.572 53.43a.53.53 0 0 0 .375-.906.53.53 0 0 0-.906.375.53.53 0 0 0 .531.531zm0-1.3a.53.53 0 0 0 .375-.906.53.53 0 0 0-.906.375.53.53 0 0 0 .531.531zm0-1.283c.106.001.21-.03.298-.088a.54.54 0 0 0 .199-.239c.041-.097.052-.205.032-.309s-.071-.2-.145-.275-.17-.127-.274-.148a.53.53 0 0 0-.31.03.54.54 0 0 0-.241.197c-.059.088-.091.192-.091.298 0 .141.056.277.155.377s.234.157.376.158zm0-1.324a.53.53 0 0 0 .375-.906.53.53 0 0 0-.906.375.53.53 0 0 0 .531.531zm0-1.304a.52.52 0 0 0 .291-.091.53.53 0 0 0 .192-.237c.039-.096.049-.202.028-.304s-.071-.195-.145-.268a.53.53 0 0 0-.27-.143c-.102-.02-.208-.009-.304.031s-.178.107-.236.194-.088.188-.088.292a.52.52 0 0 0 .041.202c.027.064.066.122.115.171a.52.52 0 0 0 .172.114.54.54 0 0 0 .203.039zm-2.592 0c.14 0 .274-.055.372-.154a.53.53 0 0 0 .154-.372c0-.139-.055-.274-.154-.372a.53.53 0 0 0-.372-.154c-.139 0-.274.055-.372.154a.53.53 0 0 0-.154.372c0 .139.055.274.154.372a.53.53 0 0 0 .372.154z"/><use xlink:href="#V"/><path d="M76.972 50.847c.106.002.21-.028.299-.086s.159-.141.201-.238.054-.205.034-.31-.07-.2-.144-.276-.17-.127-.274-.149-.212-.011-.31.029-.182.109-.241.197-.091.192-.091.298c-.001.07.013.139.039.203a.53.53 0 0 0 .285.289.53.53 0 0 0 .203.042z"/><use xlink:href="#W"/><use xlink:href="#X"/><path d="M76.972 54.726c.104 0 .206-.031.293-.089s.154-.14.194-.236.05-.202.03-.304-.07-.196-.144-.27-.167-.124-.27-.144-.208-.01-.304.03-.178.107-.236.194-.089.188-.089.292c-.001.069.013.138.039.202a.52.52 0 0 0 .114.171c.049.049.107.088.171.114s.133.039.202.039z"/><use xlink:href="#Y"/><path d="M76.972 57.325c.104 0 .206-.031.293-.089s.154-.14.194-.236.05-.202.03-.304-.07-.196-.144-.27-.167-.124-.27-.144-.208-.01-.304.03-.178.107-.236.194-.089.188-.089.293c-.001.069.013.138.039.202a.52.52 0 0 0 .285.285c.064.026.133.039.202.039z"/><use xlink:href="#Z"/><path d="M76.972 59.924a.53.53 0 0 0 .38-.906.53.53 0 0 0-.906.38c0 .14.055.274.154.372a.53.53 0 0 0 .372.154zm0 1.309a.53.53 0 0 0 .3-.086.54.54 0 0 0 .201-.239.53.53 0 0 0 .033-.31.54.54 0 0 0-.146-.276c-.075-.076-.171-.127-.275-.148s-.212-.01-.311.031-.182.11-.241.199a.53.53 0 0 0-.089.299.53.53 0 0 0 .039.203.52.52 0 0 0 .285.287.54.54 0 0 0 .203.041zm0 1.316a.53.53 0 0 0 .381-.905.53.53 0 0 0-.908.374c-.001.069.013.138.039.203a.51.51 0 0 0 .114.172c.049.049.107.088.171.115a.52.52 0 0 0 .203.041zm1.299-1.07a.53.53 0 0 0-.38.906.53.53 0 0 0 .906-.38c0-.14-.055-.274-.154-.372a.53.53 0 0 0-.372-.154z"/><path d="M78.271 62.779a.53.53 0 0 0-.293.089c-.087.058-.154.14-.194.236s-.05.202-.03.304.07.196.144.27a.52.52 0 0 0 .27.144c.103.02.208.01.304-.03s.178-.107.236-.194.089-.188.089-.292a.54.54 0 0 0-.039-.202.52.52 0 0 0-.487-.324zm1.304 0c-.104.002-.205.034-.29.093a.53.53 0 0 0-.217.541.53.53 0 0 0 .416.41c.102.02.207.009.303-.031a.53.53 0 0 0 .235-.194.52.52 0 0 0 .088-.292.53.53 0 0 0-.535-.526zm1.303 1.053a.53.53 0 0 0 .293-.089c.087-.058.154-.14.194-.236s.05-.202.03-.304-.07-.196-.144-.27-.168-.124-.27-.144-.208-.01-.304.03-.178.107-.236.194-.089.188-.089.293a.52.52 0 0 0 .527.526z"/><use xlink:href="#a"/><path d="M86.077 63.832a.53.53 0 0 0 .293-.089c.087-.058.154-.14.194-.236s.05-.202.03-.304-.07-.196-.144-.27-.168-.124-.27-.144-.208-.01-.304.03-.178.107-.236.194-.089.188-.089.292c0 .14.056.274.154.372a.53.53 0 0 0 .372.154zm1.299 0a.52.52 0 0 0 .291-.091.53.53 0 0 0 .192-.237c.039-.096.049-.202.028-.304a.53.53 0 0 0-.145-.269c-.074-.074-.168-.123-.27-.143s-.208-.009-.304.031-.178.107-.236.194-.089.188-.089.292a.53.53 0 0 0 .041.203c.027.065.066.122.115.171a.52.52 0 0 0 .172.114.54.54 0 0 0 .203.039z"/><use xlink:href="#b"/><path d="M89.98 63.832c.104-.002.205-.034.29-.093a.53.53 0 0 0 .19-.238c.038-.096.048-.202.026-.303a.53.53 0 0 0-.146-.267c-.074-.072-.168-.122-.27-.142s-.207-.009-.303.031-.178.108-.235.194a.53.53 0 0 0-.088.292.52.52 0 0 0 .041.203c.027.064.067.123.116.172a.52.52 0 0 0 .174.114.53.53 0 0 0 .204.038zm2.592 0a.52.52 0 0 0 .291-.091.53.53 0 0 0 .192-.237c.039-.096.049-.202.028-.304a.53.53 0 0 0-.145-.269c-.074-.074-.168-.123-.27-.143s-.208-.009-.304.031-.178.107-.236.194-.088.188-.088.292a.53.53 0 0 0 .041.203c.027.065.066.122.115.171a.52.52 0 0 0 .172.114.54.54 0 0 0 .203.039zm0-1.283a.53.53 0 0 0 .375-.906.53.53 0 0 0-.906.375.53.53 0 0 0 .531.531zm1.316 0a.53.53 0 0 0 .375-.906.53.53 0 0 0-.906.375.53.53 0 0 0 .531.531zm0-1.317a.54.54 0 0 0 .299-.088.53.53 0 0 0 .23-.55.54.54 0 0 0-.422-.422.53.53 0 0 0-.31.031c-.098.041-.181.11-.24.199a.53.53 0 0 0 .443.83zm0-1.308a.53.53 0 0 0 .374-.908.53.53 0 0 0-.905.381.53.53 0 0 0 .531.527zm0-1.299a.52.52 0 0 0 .291-.091.53.53 0 0 0 .192-.237c.039-.096.049-.202.028-.304a.53.53 0 0 0-.145-.269c-.074-.074-.168-.123-.27-.143s-.208-.009-.304.031-.178.107-.236.194-.088.188-.088.292a.53.53 0 0 0 .531.526zm0-1.3a.52.52 0 0 0 .291-.091.53.53 0 0 0 .192-.237c.039-.096.049-.202.028-.304a.53.53 0 0 0-.145-.269c-.074-.074-.168-.123-.27-.143s-.208-.009-.304.031-.178.108-.236.194a.52.52 0 0 0-.088.292.53.53 0 0 0 .041.203c.027.065.066.122.115.171a.52.52 0 0 0 .172.114.53.53 0 0 0 .203.039zm0-1.296a.53.53 0 0 0 .375-.906.53.53 0 0 0-.906.375.53.53 0 0 0 .531.531zm0-1.303a.52.52 0 0 0 .291-.091.53.53 0 0 0 .192-.237c.039-.096.049-.202.028-.304a.53.53 0 0 0-.145-.269c-.074-.074-.168-.123-.27-.143s-.208-.009-.304.031-.178.107-.236.194-.088.188-.088.292c0 .07.014.138.041.203s.066.122.115.171a.52.52 0 0 0 .172.114.54.54 0 0 0 .203.039zm0-1.296a.53.53 0 0 0 .375-.906.53.53 0 0 0-.906.375.53.53 0 0 0 .531.531zm0-1.3a.53.53 0 0 0 .375-.906.53.53 0 0 0-.906.375.53.53 0 0 0 .531.531zm0-2.607a.53.53 0 0 0 .375-.906.53.53 0 0 0-.906.375.53.53 0 0 0 .531.531zm-16.916-2.6a.53.53 0 0 0 .381-.905.53.53 0 0 0-.908.374.53.53 0 0 0 .039.203.52.52 0 0 0 .285.287.54.54 0 0 0 .203.041z"/><path d="M76.972 48.219a.53.53 0 0 0 .293-.089c.087-.058.154-.14.194-.236s.05-.202.03-.304-.07-.196-.144-.27a.52.52 0 0 0-.27-.144c-.103-.02-.208-.01-.304.03s-.178.107-.236.194-.089.188-.089.293a.52.52 0 0 0 .153.373.52.52 0 0 0 .373.153zm-1.301 0a.53.53 0 0 0 .293-.089c.087-.058.154-.14.194-.236s.05-.202.03-.304a.53.53 0 0 0-.144-.27c-.073-.074-.167-.124-.27-.144s-.208-.01-.304.03-.178.107-.236.194-.089.188-.089.293a.54.54 0 0 0 .039.202.52.52 0 0 0 .285.285.52.52 0 0 0 .202.039zm0 1.304a.53.53 0 0 0 .381-.905.53.53 0 0 0-.908.374.53.53 0 0 0 .039.203.52.52 0 0 0 .285.287.54.54 0 0 0 .203.04z"/><path d="M75.671 50.847a.53.53 0 0 0 .299-.086.54.54 0 0 0 .201-.238.53.53 0 0 0 .034-.31.54.54 0 0 0-.144-.276c-.074-.076-.17-.127-.274-.149a.53.53 0 0 0-.31.029c-.098.04-.182.109-.241.197s-.091.192-.091.298a.54.54 0 0 0 .039.203.53.53 0 0 0 .488.331zm0 1.283a.53.53 0 0 0 .381-.905.53.53 0 0 0-.908.374.53.53 0 0 0 .039.203.52.52 0 0 0 .114.172c.049.049.107.088.171.115a.52.52 0 0 0 .203.04z"/><path d="M75.671 53.43a.53.53 0 0 0 .381-.905.53.53 0 0 0-.908.374.53.53 0 0 0 .039.203.52.52 0 0 0 .285.287.54.54 0 0 0 .203.041zm0 1.296a.53.53 0 0 0 .487-.325c.04-.096.05-.202.03-.304a.53.53 0 0 0-.144-.27c-.073-.074-.167-.124-.27-.144s-.208-.01-.304.03-.178.107-.236.194-.089.188-.089.292a.54.54 0 0 0 .039.202.52.52 0 0 0 .285.285.54.54 0 0 0 .202.039z"/><path d="M75.671 56.03a.53.53 0 0 0 .381-.905.53.53 0 0 0-.908.374.53.53 0 0 0 .039.203.52.52 0 0 0 .114.172c.049.049.107.088.171.115a.52.52 0 0 0 .203.041zm0 1.295a.53.53 0 0 0 .293-.089c.087-.058.154-.14.194-.236s.05-.202.03-.304a.53.53 0 0 0-.144-.27c-.073-.074-.167-.124-.27-.144s-.208-.01-.304.03-.178.107-.236.194-.089.188-.089.293a.54.54 0 0 0 .039.202.52.52 0 0 0 .285.285.54.54 0 0 0 .202.039z"/><use xlink:href="#c"/><use xlink:href="#d"/><path d="M75.671 61.233c.106.002.211-.028.3-.086s.159-.141.201-.239.053-.206.033-.31-.071-.2-.146-.276-.171-.127-.275-.148-.212-.01-.311.031-.182.11-.24.199-.09.193-.089.299a.53.53 0 0 0 .039.203c.026.064.065.123.114.172s.107.089.171.115.133.041.203.041z"/><path d="M75.671 62.549a.53.53 0 0 0 .381-.905.53.53 0 0 0-.908.374c0 .069.013.138.039.203a.51.51 0 0 0 .114.172c.049.049.107.088.171.115a.52.52 0 0 0 .203.041zm0 1.283a.53.53 0 0 0 .487-.325c.04-.096.05-.202.03-.304a.53.53 0 0 0-.144-.27c-.073-.074-.167-.124-.27-.144s-.208-.01-.304.03-.178.107-.236.194-.089.188-.089.293a.52.52 0 0 0 .527.526zm1.301 0a.53.53 0 0 0 .293-.089c.087-.058.154-.14.194-.236s.05-.202.03-.304-.07-.196-.144-.27a.52.52 0 0 0-.27-.144c-.103-.02-.208-.01-.304.03s-.178.107-.236.194-.089.188-.089.293a.52.52 0 0 0 .527.526zm0 1.3c.104 0 .206-.031.292-.089s.154-.14.194-.236.05-.202.03-.304-.07-.196-.144-.27a.52.52 0 0 0-.27-.144c-.103-.02-.208-.01-.304.03s-.178.107-.236.194-.089.188-.089.293c0 .14.055.274.154.372a.53.53 0 0 0 .372.154zm1.299-1.053c-.14 0-.274.055-.372.154a.53.53 0 0 0-.154.372c0 .139.055.274.154.372a.53.53 0 0 0 .372.154c.139 0 .274-.055.372-.154a.53.53 0 0 0 0-.744.53.53 0 0 0-.372-.154zm1.304 0c-.104.002-.205.034-.29.093a.53.53 0 0 0-.217.541.52.52 0 0 0 .146.267c.074.072.168.122.27.142s.207.009.303-.031a.53.53 0 0 0 .235-.194.52.52 0 0 0 .088-.292.53.53 0 0 0-.535-.526zm1.303 1.053a.53.53 0 0 0 .487-.325c.04-.096.05-.202.03-.304s-.07-.196-.144-.27a.52.52 0 0 0-.27-.144c-.103-.02-.208-.01-.304.03s-.178.107-.236.194-.089.188-.089.293c0 .14.055.274.154.372a.53.53 0 0 0 .372.154z"/><use xlink:href="#e"/><path d="M86.077 65.132a.53.53 0 0 0 .372-.154.52.52 0 0 0 .114-.171c.026-.064.04-.132.04-.202s-.014-.138-.04-.202a.52.52 0 0 0-.285-.285c-.064-.026-.132-.04-.201-.04-.14 0-.274.055-.372.154a.53.53 0 0 0 0 .744.53.53 0 0 0 .372.154zm1.299 0a.52.52 0 0 0 .291-.091.53.53 0 0 0 .192-.237c.039-.096.049-.202.028-.304s-.071-.195-.145-.268a.53.53 0 0 0-.27-.143c-.102-.02-.208-.009-.304.031s-.178.107-.236.194-.089.188-.089.292a.53.53 0 0 0 .531.527zm1.301 0a.52.52 0 0 0 .291-.091.53.53 0 0 0 .192-.237c.039-.096.049-.202.028-.304s-.071-.195-.145-.268a.53.53 0 0 0-.27-.143c-.102-.02-.208-.009-.304.031s-.178.107-.236.194-.088.188-.088.292a.53.53 0 0 0 .531.527zm1.303 0c.104-.002.205-.034.29-.093a.53.53 0 0 0 .19-.238c.038-.096.048-.202.026-.304s-.072-.195-.146-.267-.168-.122-.27-.142-.207-.009-.303.031-.178.108-.235.194a.53.53 0 0 0 .07.666.53.53 0 0 0 .173.114.55.55 0 0 0 .204.039zm2.592 0a.52.52 0 0 0 .291-.091.53.53 0 0 0 .192-.237c.039-.096.049-.202.028-.304s-.071-.195-.145-.268a.53.53 0 0 0-.27-.143c-.102-.02-.208-.009-.304.031s-.178.107-.236.194-.088.188-.088.292a.53.53 0 0 0 .531.527zm1.316 0a.52.52 0 0 0 .291-.091.53.53 0 0 0 .192-.237c.039-.096.049-.202.028-.304s-.071-.195-.145-.268a.53.53 0 0 0-.27-.143c-.102-.02-.208-.009-.304.031s-.178.107-.236.194-.088.188-.088.292a.53.53 0 0 0 .531.527zm0-1.3a.52.52 0 0 0 .291-.091.53.53 0 0 0 .192-.237c.039-.096.049-.202.028-.304a.53.53 0 0 0-.145-.269c-.074-.074-.168-.123-.27-.143s-.208-.009-.304.031-.178.107-.236.194-.088.188-.088.292a.53.53 0 0 0 .041.203c.027.065.066.122.115.171a.52.52 0 0 0 .172.114.54.54 0 0 0 .203.039z"/><use xlink:href="#f"/><use xlink:href="#g"/><use xlink:href="#h"/><path d="M95.167 59.924a.53.53 0 0 0 .494-.326.53.53 0 0 0-.114-.58.53.53 0 0 0-.58-.114.53.53 0 0 0-.326.494.53.53 0 0 0 .527.527z"/><use xlink:href="#i"/><path d="M95.167 57.325a.53.53 0 0 0 .293-.089c.087-.058.154-.14.194-.236s.05-.202.03-.304-.07-.196-.144-.27a.52.52 0 0 0-.27-.144c-.103-.02-.208-.01-.304.03s-.178.107-.236.194-.089.188-.089.293c0 .14.055.274.154.372a.53.53 0 0 0 .372.154zM76.972 45.624a.53.53 0 0 0 .381-.905.53.53 0 0 0-.908.374.53.53 0 0 0 .039.203.52.52 0 0 0 .285.287.54.54 0 0 0 .203.041zm-1.301 0a.53.53 0 0 0 .381-.905.53.53 0 0 0-.908.374.53.53 0 0 0 .039.203.52.52 0 0 0 .285.287.54.54 0 0 0 .203.041z"/><path d="M75.671 46.923a.53.53 0 0 0 .381-.905.53.53 0 0 0-.908.374.53.53 0 0 0 .039.203.52.52 0 0 0 .285.287.54.54 0 0 0 .203.041zm-1.299 0a.53.53 0 0 0 .381-.905.53.53 0 0 0-.908.374.53.53 0 0 0 .527.531zm0 1.296a.53.53 0 0 0 .293-.089c.087-.058.154-.14.194-.236s.05-.202.03-.304-.07-.196-.144-.27a.52.52 0 0 0-.27-.144c-.103-.02-.208-.01-.304.03s-.178.107-.236.194-.089.188-.089.293c0 .14.056.274.154.372a.53.53 0 0 0 .372.154zm0 1.304a.53.53 0 0 0 .381-.905.53.53 0 0 0-.908.374.53.53 0 0 0 .527.531zm0 1.324a.53.53 0 0 0 .299-.086.54.54 0 0 0 .201-.238.53.53 0 0 0 .034-.31c-.02-.105-.07-.2-.145-.276a.54.54 0 0 0-.274-.149.53.53 0 0 0-.31.029c-.098.04-.182.109-.241.197s-.091.192-.091.298c0 .14.055.275.154.375a.54.54 0 0 0 .373.16zm-.001 1.283a.53.53 0 0 0 .358-.91.53.53 0 0 0-.902.379.53.53 0 0 0 .527.531m.018 1.3a.53.53 0 0 0 .381-.905.53.53 0 0 0-.908.374.53.53 0 0 0 .527.531z"/><path d="M74.371 54.726c.103-.003.203-.037.287-.096a.53.53 0 0 0 .212-.54.52.52 0 0 0-.413-.406c-.101-.019-.206-.01-.301.029s-.177.105-.235.19a.53.53 0 0 0-.092.288c0 .14.055.274.154.372a.53.53 0 0 0 .372.154m.017 1.313a.53.53 0 0 0 .381-.905.53.53 0 0 0-.908.374.53.53 0 0 0 .527.531z"/><path d="M74.372 57.325a.53.53 0 0 0 .293-.089c.087-.058.154-.14.194-.236s.05-.202.03-.304-.07-.196-.144-.27a.52.52 0 0 0-.27-.144c-.103-.02-.208-.01-.304.03s-.178.107-.236.194-.089.188-.089.293c0 .14.056.274.154.372a.53.53 0 0 0 .372.154zm0 1.3a.53.53 0 0 0 .293-.089c.087-.058.154-.14.194-.236s.05-.202.03-.304-.07-.196-.144-.27a.52.52 0 0 0-.27-.144c-.103-.02-.208-.01-.304.03s-.178.107-.236.194-.089.188-.089.293a.53.53 0 0 0 .527.527zm0 1.299a.53.53 0 0 0 .38-.906.53.53 0 0 0-.906.38.53.53 0 0 0 .527.527zm0 1.309a.53.53 0 0 0 .3-.086.54.54 0 0 0 .201-.239.53.53 0 0 0 .033-.31.54.54 0 0 0-.146-.276c-.075-.076-.171-.127-.275-.148s-.212-.01-.311.031-.182.11-.24.199a.54.54 0 0 0-.089.299.53.53 0 0 0 .527.531z"/><path d="M74.372 62.549a.53.53 0 0 0 .48-.333.53.53 0 0 0-.117-.572.53.53 0 0 0-.573-.117.53.53 0 0 0-.333.48.53.53 0 0 0 .155.388.53.53 0 0 0 .388.155z"/><path d="M74.372 63.832c.104 0 .206-.031.293-.089s.154-.14.194-.236.05-.202.03-.304-.07-.196-.144-.27-.167-.124-.27-.144-.208-.01-.304.03-.178.107-.236.194-.089.188-.089.292c0 .14.056.274.154.372s.233.154.372.154z"/><path d="M74.372 65.132a.53.53 0 0 0 .293-.089c.087-.058.154-.14.194-.236s.05-.202.03-.304-.07-.196-.144-.27a.52.52 0 0 0-.27-.144c-.103-.02-.208-.01-.304.03s-.178.107-.236.194-.089.188-.089.293a.53.53 0 0 0 .527.527zm1.299 0a.53.53 0 0 0 .293-.089c.087-.058.154-.14.194-.236s.05-.202.03-.304-.07-.196-.144-.27a.52.52 0 0 0-.27-.144c-.103-.02-.208-.01-.304.03s-.178.107-.236.194-.089.188-.089.293c0 .14.056.274.154.372a.53.53 0 0 0 .372.154zm0 1.299a.53.53 0 0 0 .38-.906.53.53 0 0 0-.906.38c0 .14.056.274.154.372a.53.53 0 0 0 .372.154zm1.301 0a.53.53 0 0 0 .38-.906.53.53 0 0 0-.906.38c0 .14.055.274.154.372a.53.53 0 0 0 .372.154z"/><use xlink:href="#j"/><path d="M79.574 65.374a.53.53 0 0 0-.382.908.53.53 0 0 0 .905-.389c-.001-.141-.058-.276-.158-.376s-.236-.155-.377-.155m1.316 1.069a.53.53 0 0 0 .38-.906.53.53 0 0 0-.906.38c0 .14.055.274.154.372a.53.53 0 0 0 .372.154zm1.309 0a.53.53 0 0 0 .38-.906.53.53 0 0 0-.906.38c0 .14.055.274.154.372a.53.53 0 0 0 .372.154zm2.59 0a.53.53 0 0 0 .374-.908.53.53 0 0 0-.905.381.53.53 0 0 0 .531.527z"/><use xlink:href="#k"/><path d="M87.376 66.431a.53.53 0 0 0 .374-.908.53.53 0 0 0-.905.381.53.53 0 0 0 .531.527zm1.301 0a.53.53 0 0 0 .374-.908.53.53 0 0 0-.905.381.53.53 0 0 0 .531.527z"/><use xlink:href="#l"/><path d="M92.572 66.431a.53.53 0 0 0 .374-.908.53.53 0 0 0-.905.381.53.53 0 0 0 .531.527zm1.316 0a.53.53 0 0 0 .374-.908.53.53 0 0 0-.905.381.53.53 0 0 0 .531.527zm1.279 0a.53.53 0 0 0 .383-.902.53.53 0 0 0-.91.363.53.53 0 0 0 .527.527m0-1.287a.53.53 0 0 0 .293-.089c.087-.058.154-.14.194-.236s.05-.202.03-.304-.07-.196-.144-.27a.52.52 0 0 0-.27-.144c-.103-.02-.208-.01-.304.03s-.178.107-.236.194-.089.188-.089.293a.53.53 0 0 0 .527.527z"/><use xlink:href="#m"/><path d="M96.466 63.832a.53.53 0 0 0 .293-.089c.087-.058.154-.14.194-.236s.05-.202.03-.304-.07-.196-.144-.27a.52.52 0 0 0-.27-.144c-.103-.02-.208-.01-.304.03s-.178.107-.236.194-.089.188-.089.292c0 .14.055.274.154.372a.53.53 0 0 0 .372.154zm0-1.283a.53.53 0 0 0 .381-.905.53.53 0 0 0-.908.374.53.53 0 0 0 .526.531z"/><use xlink:href="#n"/><use xlink:href="#o"/><path d="M96.466 58.625a.53.53 0 0 0 .293-.089c.087-.058.154-.14.194-.236s.05-.202.03-.304-.07-.196-.144-.27a.52.52 0 0 0-.27-.144c-.103-.02-.208-.01-.304.03s-.178.107-.236.194-.089.188-.089.293a.53.53 0 0 0 .526.527zM76.972 44.324a.53.53 0 0 0 .381-.905.53.53 0 0 0-.908.374.53.53 0 0 0 .039.203.52.52 0 0 0 .285.287.54.54 0 0 0 .203.041zm-1.301 0a.53.53 0 0 0 .381-.905.53.53 0 0 0-.908.374.53.53 0 0 0 .039.203.52.52 0 0 0 .285.287.54.54 0 0 0 .203.041zm-1.299 0a.53.53 0 0 0 .381-.905.53.53 0 0 0-.908.374.53.53 0 0 0 .527.531z"/><path d="M74.372 45.624a.53.53 0 0 0 .381-.905.53.53 0 0 0-.908.374.53.53 0 0 0 .527.531zm-1.3 5.223a.53.53 0 0 0 .299-.086.54.54 0 0 0 .201-.238.53.53 0 0 0 .034-.31.54.54 0 0 0-.144-.276c-.074-.076-.17-.127-.274-.149a.53.53 0 0 0-.31.029c-.098.04-.182.109-.241.197s-.091.192-.091.298c0 .14.055.275.154.375a.54.54 0 0 0 .373.16zm0 1.283a.53.53 0 0 0 .381-.905.53.53 0 0 0-.908.374.53.53 0 0 0 .527.531zm0 1.3a.53.53 0 0 0 .381-.905.53.53 0 0 0-.908.374.53.53 0 0 0 .527.531z"/><use xlink:href="#p"/><path d="M73.072 56.03a.53.53 0 0 0 .381-.905.53.53 0 0 0-.908.374.53.53 0 0 0 .527.531zm0 1.295a.53.53 0 0 0 .293-.089c.087-.058.154-.14.194-.236s.05-.202.03-.304-.07-.196-.144-.27a.52.52 0 0 0-.27-.144c-.103-.02-.208-.01-.304.03s-.178.107-.236.194-.089.188-.089.293c0 .14.055.274.154.372a.53.53 0 0 0 .372.154zm0 1.3a.53.53 0 0 0 .293-.089c.087-.058.154-.14.194-.236s.05-.202.03-.304-.07-.196-.144-.27a.52.52 0 0 0-.27-.144c-.103-.02-.208-.01-.304.03s-.178.107-.236.194-.089.188-.089.293a.53.53 0 0 0 .527.527zm0 1.299a.53.53 0 0 0 .38-.906.53.53 0 0 0-.906.38.53.53 0 0 0 .527.527zm0 1.309a.53.53 0 0 0 .3-.086.54.54 0 0 0 .201-.239.53.53 0 0 0 .033-.31.54.54 0 0 0-.146-.276c-.075-.076-.171-.127-.275-.148s-.212-.01-.311.031-.182.11-.24.199a.54.54 0 0 0-.089.299.53.53 0 0 0 .527.531z"/><path d="M73.072 62.549a.53.53 0 0 0 .381-.905.53.53 0 0 0-.908.374.53.53 0 0 0 .527.531zm0 1.283a.53.53 0 0 0 .487-.325c.04-.096.05-.202.03-.304s-.07-.196-.144-.27a.52.52 0 0 0-.27-.144c-.103-.02-.208-.01-.304.03s-.178.107-.236.194-.089.188-.089.292c0 .14.055.274.154.372a.53.53 0 0 0 .372.154z"/><path d="M73.072 65.132a.53.53 0 0 0 .487-.325c.04-.096.05-.202.03-.304s-.07-.196-.144-.27a.52.52 0 0 0-.27-.144c-.103-.02-.208-.01-.304.03s-.178.107-.236.194-.089.188-.089.293a.53.53 0 0 0 .527.527zm0 1.299a.53.53 0 0 0 .38-.906.53.53 0 0 0-.906.38.53.53 0 0 0 .527.526zm1.299 0a.53.53 0 0 0 .362-.907.53.53 0 0 0-.905.368.53.53 0 0 0 .527.527m.017 1.312a.53.53 0 0 0 .38-.906.53.53 0 0 0-.906.38.53.53 0 0 0 .527.526zm1.299 0a.53.53 0 0 0 .38-.906.53.53 0 0 0-.906.38.53.53 0 0 0 .154.372c.098.099.233.154.372.154z"/><use xlink:href="#q"/><use xlink:href="#r"/><use xlink:href="#s"/><path d="M80.878 67.731a.53.53 0 0 0 .38-.906.53.53 0 0 0-.906.38c0 .14.055.273.154.372s.233.154.372.154zm1.309 0a.53.53 0 0 0 .38-.906.53.53 0 0 0-.906.38c0 .14.055.273.154.372s.233.154.372.154z"/><use xlink:href="#t"/><path d="M86.077 67.731a.53.53 0 0 0 .38-.906.53.53 0 0 0-.906.38.53.53 0 0 0 .527.526zm1.299 0a.53.53 0 0 0 .374-.908.53.53 0 0 0-.905.381.53.53 0 0 0 .531.526zm1.301 0a.53.53 0 0 0 .374-.908.53.53 0 0 0-.905.381.53.53 0 0 0 .531.526zm1.303 0a.53.53 0 0 0 .368-.908.53.53 0 0 0-.903.382.53.53 0 0 0 .535.526zm2.592 0a.53.53 0 0 0 .374-.908.53.53 0 0 0-.905.381.53.53 0 0 0 .531.526zm1.316 0a.53.53 0 0 0 .374-.908.53.53 0 0 0-.905.381.53.53 0 0 0 .531.526zm1.279 0a.53.53 0 0 0 .38-.906.53.53 0 0 0-.906.38.53.53 0 0 0 .527.526z"/><use xlink:href="#u"/><path d="M96.466 66.431a.53.53 0 0 0 .38-.906.53.53 0 0 0-.906.38.53.53 0 0 0 .526.526zm1.299 0a.53.53 0 0 0 .373-.905.53.53 0 0 0-.907.365.53.53 0 0 0 .526.527m.01-1.286a.53.53 0 0 0 .293-.089c.087-.058.154-.14.194-.236s.05-.202.03-.304-.07-.196-.144-.27a.52.52 0 0 0-.27-.144c-.103-.02-.208-.01-.304.03s-.178.107-.236.194-.089.188-.089.293a.53.53 0 0 0 .527.527z"/><path d="M97.767 63.832a.53.53 0 0 0 .293-.089c.087-.058.154-.14.194-.236s.05-.202.03-.304-.07-.196-.144-.27a.52.52 0 0 0-.27-.144c-.103-.02-.208-.01-.304.03s-.178.107-.236.194-.089.188-.089.292c0 .14.055.274.154.372a.53.53 0 0 0 .372.154zm-.002-1.283a.53.53 0 0 0 .374-.903.53.53 0 0 0-.909.36.53.53 0 0 0 .526.531"/><use xlink:href="#v"/><path d="M97.767 59.924a.53.53 0 0 0 .38-.906.53.53 0 0 0-.906.38.53.53 0 0 0 .526.527zm0-1.299a.53.53 0 0 0 .293-.089c.087-.058.154-.14.194-.236s.05-.202.03-.304-.07-.196-.144-.27a.52.52 0 0 0-.27-.144c-.103-.02-.208-.01-.304.03s-.178.107-.236.194-.089.188-.089.293a.53.53 0 0 0 .527.527zm0-1.3a.53.53 0 0 0 .293-.089c.087-.058.154-.14.194-.236s.05-.202.03-.304-.07-.196-.144-.27a.52.52 0 0 0-.27-.144c-.103-.02-.208-.01-.304.03s-.178.107-.236.194-.089.188-.089.293c0 .14.055.274.154.372a.53.53 0 0 0 .372.154zm0-1.295a.53.53 0 0 0 .381-.905.53.53 0 0 0-.908.374.53.53 0 0 0 .527.531zm-.002-1.304a.53.53 0 0 0 .479-.329.52.52 0 0 0 .028-.302.53.53 0 0 0-.144-.268c-.074-.074-.166-.123-.267-.144a.52.52 0 0 0-.302.028.54.54 0 0 0-.237.19c-.059.085-.091.186-.092.289 0 .14.055.274.154.372a.53.53 0 0 0 .372.154M76.972 43.024a.53.53 0 0 0 .381-.905.53.53 0 0 0-.908.374.53.53 0 0 0 .039.203.52.52 0 0 0 .285.287.54.54 0 0 0 .203.041zm-1.301 0a.53.53 0 0 0 .381-.905.53.53 0 0 0-.908.374.53.53 0 0 0 .039.203.52.52 0 0 0 .285.287.54.54 0 0 0 .203.041zm-1.3 0a.53.53 0 0 0 .36-.909.53.53 0 0 0-.903.374.53.53 0 0 0 .527.531m-2.582 9.11a.53.53 0 0 0 .381-.905.53.53 0 0 0-.908.374.53.53 0 0 0 .527.531z"/><path d="M71.773 53.43a.53.53 0 0 0 .493-.325.53.53 0 0 0-.112-.58.53.53 0 0 0-.579-.117.53.53 0 0 0-.329.491.53.53 0 0 0 .527.531z"/><use xlink:href="#w"/><path d="M71.773 56.03a.53.53 0 0 0 .381-.905.53.53 0 0 0-.908.374.53.53 0 0 0 .527.531zm0 1.295a.53.53 0 0 0 .293-.089c.087-.058.154-.14.194-.236s.05-.202.03-.304a.53.53 0 0 0-.144-.27c-.073-.074-.167-.124-.27-.144s-.208-.01-.304.03-.178.107-.236.194-.089.188-.089.293c0 .14.055.274.154.372a.53.53 0 0 0 .372.154z"/><use xlink:href="#x"/><path d="M71.773 59.924a.53.53 0 0 0 .38-.906.53.53 0 0 0-.906.38.53.53 0 0 0 .527.527zm0 1.309a.53.53 0 0 0 .3-.086.54.54 0 0 0 .201-.239.53.53 0 0 0 .033-.31.54.54 0 0 0-.146-.276c-.075-.076-.171-.127-.275-.148s-.212-.01-.311.031-.182.11-.241.199a.53.53 0 0 0 .438.83zm0 1.316a.53.53 0 0 0 .381-.905.53.53 0 0 0-.908.374.53.53 0 0 0 .527.531zm0 1.283a.53.53 0 0 0 .293-.089c.087-.058.154-.14.194-.236s.05-.202.03-.304a.53.53 0 0 0-.144-.27c-.073-.074-.167-.124-.27-.144s-.208-.01-.304.03-.178.107-.236.194-.089.188-.089.292c0 .14.055.274.154.372a.53.53 0 0 0 .372.154z"/><path d="M71.773 65.132a.53.53 0 0 0 .293-.089c.087-.058.154-.14.194-.236s.05-.202.03-.304a.53.53 0 0 0-.144-.27c-.073-.074-.167-.124-.27-.144s-.208-.01-.304.03-.178.107-.236.194-.089.188-.089.293a.53.53 0 0 0 .527.527zm0 1.299a.53.53 0 0 0 .38-.906.53.53 0 0 0-.906.38.53.53 0 0 0 .527.526zm0 1.3a.53.53 0 0 0 .38-.906.53.53 0 0 0-.906.38.53.53 0 0 0 .527.526zm1.299 0a.53.53 0 0 0 .38-.906.53.53 0 0 0-.906.38.53.53 0 0 0 .527.526zm0 1.3a.53.53 0 0 0 .38-.906.53.53 0 0 0-.906.38.53.53 0 0 0 .527.527zm1.3 0a.53.53 0 0 0 .38-.906.53.53 0 0 0-.906.38.53.53 0 0 0 .527.527zm1.299 0a.53.53 0 0 0 .38-.906.53.53 0 0 0-.906.38c0 .14.056.274.154.372a.53.53 0 0 0 .372.154zm1.301 0a.53.53 0 0 0 .38-.906.53.53 0 0 0-.906.38c0 .14.055.274.154.372a.53.53 0 0 0 .372.154zm1.299-1.049a.53.53 0 0 0-.381.905.53.53 0 0 0 .908-.374.52.52 0 0 0-.153-.375c-.049-.049-.107-.088-.171-.115a.52.52 0 0 0-.202-.04zm1.304 0a.53.53 0 0 0-.369.908.53.53 0 0 0 .905-.377c-.001-.141-.058-.276-.158-.376s-.236-.155-.377-.155zm1.303 1.049a.53.53 0 0 0 .38-.906.53.53 0 0 0-.906.38c0 .14.055.274.154.372a.53.53 0 0 0 .372.154zm1.309 0a.53.53 0 0 0 .38-.906.53.53 0 0 0-.906.38c0 .14.055.274.154.372a.53.53 0 0 0 .372.154zm2.59 0a.53.53 0 0 0 .374-.908.53.53 0 0 0-.905.381.53.53 0 0 0 .531.526zm1.3 0a.53.53 0 0 0 .38-.906.53.53 0 0 0-.906.38.53.53 0 0 0 .527.527zm1.299 0a.53.53 0 0 0 .374-.908.53.53 0 0 0-.905.381.53.53 0 0 0 .531.526zm1.301 0a.53.53 0 0 0 .374-.908.53.53 0 0 0-.905.381.53.53 0 0 0 .531.526zm1.303 0a.53.53 0 0 0 .368-.909.53.53 0 0 0-.903.383.53.53 0 0 0 .042.203.54.54 0 0 0 .116.171.53.53 0 0 0 .377.152zm2.592 0a.53.53 0 0 0 .374-.908.53.53 0 0 0-.905.381.53.53 0 0 0 .531.526zm1.316 0a.53.53 0 0 0 .374-.908.53.53 0 0 0-.905.381.53.53 0 0 0 .531.526zm1.279 0a.53.53 0 0 0 .38-.906.53.53 0 0 0-.906.38.53.53 0 0 0 .527.527zm1.299 0a.53.53 0 0 0 .38-.906.53.53 0 0 0-.906.38.53.53 0 0 0 .526.527zm1.301 0a.53.53 0 0 0 .38-.906.53.53 0 0 0-.906.38.53.53 0 0 0 .526.527z"/><path d="M97.767 67.731a.53.53 0 0 0 .38-.906.53.53 0 0 0-.906.38.53.53 0 0 0 .526.526zm1.299-6.498a.53.53 0 0 0 .3-.086.54.54 0 0 0 .201-.239.53.53 0 0 0 .033-.31.54.54 0 0 0-.146-.276c-.075-.076-.171-.127-.275-.148s-.212-.01-.311.031-.182.11-.241.199a.54.54 0 0 0-.089.299.53.53 0 0 0 .526.531zm-15.564-1.066c-.106-.001-.21.03-.298.088a.54.54 0 0 0-.199.239c-.041.097-.052.205-.032.309s.071.2.145.275.17.127.274.148a.53.53 0 0 0 .31-.03.54.54 0 0 0 .241-.197c.059-.088.09-.192.09-.298 0-.141-.056-.277-.155-.377s-.234-.157-.376-.158zm15.564-.243a.53.53 0 0 0 .38-.906.53.53 0 0 0-.906.38.53.53 0 0 0 .527.527zm-23.395-18.2a.53.53 0 0 0 .381-.905.53.53 0 0 0-.908.374.53.53 0 0 0 .039.203.52.52 0 0 0 .114.172c.049.049.107.088.171.115a.52.52 0 0 0 .203.041zM70.486 53.43a.53.53 0 0 0 .381-.905.53.53 0 0 0-.908.374.53.53 0 0 0 .527.531z"/><use xlink:href="#y"/><path d="M70.486 56.03a.53.53 0 0 0 .493-.325.53.53 0 0 0-.112-.58.53.53 0 0 0-.579-.117.53.53 0 0 0-.329.491.53.53 0 0 0 .527.531z"/><use xlink:href="#z"/><path d="M70.486 59.924a.53.53 0 0 0 .494-.326.53.53 0 0 0-.114-.58.53.53 0 0 0-.58-.114.53.53 0 0 0-.326.494.53.53 0 0 0 .527.527z"/><use xlink:href="#AA"/><path d="M70.486 62.549a.53.53 0 0 0 .381-.905.53.53 0 0 0-.908.374.53.53 0 0 0 .527.531zm0 1.283c.104 0 .206-.031.292-.089s.154-.14.194-.236.05-.202.03-.304-.07-.196-.144-.27-.168-.124-.27-.144-.208-.01-.304.03-.178.107-.236.194-.089.188-.089.292c0 .14.055.274.154.372a.53.53 0 0 0 .372.154zm0 1.3c.104 0 .206-.031.292-.089s.154-.14.194-.236.05-.202.03-.304-.07-.196-.144-.27-.168-.124-.27-.144-.208-.01-.304.03-.178.107-.236.194-.089.188-.089.293a.53.53 0 0 0 .527.527z"/><path d="M70.486 66.431a.53.53 0 0 0 .38-.906.53.53 0 0 0-.906.38.53.53 0 0 0 .527.526zm0 1.3a.53.53 0 0 0 .38-.906.53.53 0 0 0-.906.38.53.53 0 0 0 .527.526zm0 1.3a.53.53 0 0 0 .38-.906.53.53 0 0 0-.906.38.53.53 0 0 0 .527.527zm1.287 0a.53.53 0 0 0 .38-.906.53.53 0 0 0-.906.38.53.53 0 0 0 .527.527zm0 1.299a.53.53 0 0 0 .38-.906.53.53 0 0 0-.906.38.53.53 0 0 0 .527.527zm1.299 0a.53.53 0 0 0 .38-.906.53.53 0 0 0-.906.38.53.53 0 0 0 .527.527zm1.3 0a.53.53 0 0 0 .38-.906.53.53 0 0 0-.906.38.53.53 0 0 0 .527.527zm1.299 0a.53.53 0 0 0 .38-.906.53.53 0 0 0-.906.38c0 .14.056.274.154.372a.53.53 0 0 0 .372.154zm1.301 0a.53.53 0 0 0 .38-.906.53.53 0 0 0-.906.38c0 .14.055.274.154.372a.53.53 0 0 0 .372.154z"/><use xlink:href="#AB"/><path d="M79.575 69.273a.53.53 0 0 0-.369.908.53.53 0 0 0 .905-.377c-.001-.141-.058-.276-.158-.376s-.236-.155-.377-.155zm1.303 1.057a.53.53 0 0 0 .38-.906.53.53 0 0 0-.906.38c0 .14.055.274.154.372a.53.53 0 0 0 .372.154zm1.309 0a.53.53 0 0 0 .38-.906.53.53 0 0 0-.906.38c0 .14.055.274.154.372a.53.53 0 0 0 .372.154zm2.59 0a.53.53 0 0 0 .374-.908.53.53 0 0 0-.905.381.53.53 0 0 0 .531.527zm1.3 0a.53.53 0 0 0 .38-.906.53.53 0 0 0-.906.38.53.53 0 0 0 .527.527zm1.299 0a.53.53 0 0 0 .374-.908.53.53 0 0 0-.905.381.53.53 0 0 0 .531.527zm1.301 0a.53.53 0 0 0 .374-.908.53.53 0 0 0-.905.381.53.53 0 0 0 .531.527zm1.303 0a.53.53 0 0 0 .368-.909.53.53 0 0 0-.903.382.53.53 0 0 0 .535.527zM75.671 40.425a.53.53 0 0 0 .299-.086.54.54 0 0 0 .201-.238.53.53 0 0 0 .034-.31.54.54 0 0 0-.144-.276c-.074-.076-.17-.127-.274-.149a.53.53 0 0 0-.31.029c-.098.04-.182.109-.241.197s-.091.192-.091.298a.55.55 0 0 0 .039.204.53.53 0 0 0 .488.331z"/><use xlink:href="#AC"/><path d="M69.169 67.731a.53.53 0 0 0 .491-.329.53.53 0 0 0-.117-.579.53.53 0 0 0-.58-.112.53.53 0 0 0-.325.493c.002.14.059.273.158.371s.233.154.373.155z"/><path d="M69.169 69.031a.53.53 0 0 0 .491-.329.53.53 0 0 0-.117-.579.53.53 0 0 0-.58-.112.53.53 0 0 0-.325.493c.002.14.059.273.158.371s.233.154.373.155z"/><path d="M69.169 70.33a.53.53 0 0 0 .374-.908.53.53 0 0 0-.905.381c.002.14.059.273.158.371s.233.154.373.155zm1.317 0a.53.53 0 0 0 .38-.906.53.53 0 0 0-.906.38.53.53 0 0 0 .527.527zm0 1.309a.53.53 0 0 0 .3-.086.54.54 0 0 0 .201-.239.53.53 0 0 0 .033-.31.54.54 0 0 0-.146-.276c-.075-.076-.171-.127-.275-.148a.53.53 0 0 0-.31.031.54.54 0 0 0-.241.199.53.53 0 0 0 .438.83zm1.287 0a.53.53 0 0 0 .3-.086.54.54 0 0 0 .201-.239.53.53 0 0 0 .033-.31.54.54 0 0 0-.146-.276c-.075-.076-.171-.127-.275-.148s-.212-.01-.311.031-.182.11-.241.199a.53.53 0 0 0 .438.83zm1.299 0a.53.53 0 0 0 .3-.086.54.54 0 0 0 .201-.239.53.53 0 0 0 .033-.31.54.54 0 0 0-.146-.276c-.075-.076-.171-.127-.275-.148s-.212-.01-.311.031-.182.11-.24.199a.54.54 0 0 0-.089.299.53.53 0 0 0 .527.531zm1.3 0a.53.53 0 0 0 .3-.086.54.54 0 0 0 .201-.239.53.53 0 0 0 .033-.31.54.54 0 0 0-.146-.276c-.075-.076-.171-.127-.275-.148s-.212-.01-.311.031-.182.11-.24.199a.54.54 0 0 0-.089.299.53.53 0 0 0 .527.531zm1.299 0a.53.53 0 0 0 .3-.086.54.54 0 0 0 .201-.239.53.53 0 0 0 .033-.31.54.54 0 0 0-.146-.276c-.075-.076-.171-.127-.275-.148s-.212-.01-.311.031-.182.11-.24.199a.54.54 0 0 0-.089.299.53.53 0 0 0 .039.203.52.52 0 0 0 .114.172c.049.049.107.088.171.115a.52.52 0 0 0 .203.04zm1.301 0a.53.53 0 0 0 .3-.086.54.54 0 0 0 .201-.239.53.53 0 0 0 .033-.31.54.54 0 0 0-.146-.276c-.075-.076-.171-.127-.275-.148s-.212-.01-.311.031-.182.11-.241.199a.53.53 0 0 0-.089.299.53.53 0 0 0 .039.203.52.52 0 0 0 .114.172c.049.049.107.088.171.115a.52.52 0 0 0 .203.04zm1.298-1.066a.53.53 0 0 0-.299.086.54.54 0 0 0-.235.548c.019.105.07.2.145.276a.54.54 0 0 0 .274.149.53.53 0 0 0 .31-.029c.098-.04.182-.109.241-.197s.091-.192.091-.298a.53.53 0 0 0-.527-.534zm1.304 0a.53.53 0 0 0-.297.09.54.54 0 0 0-.197.24c-.041.098-.051.205-.031.309s.072.199.146.274.17.126.274.146.211.01.309-.03a.53.53 0 0 0 .33-.494.54.54 0 0 0-.535-.535zm1.304 1.065c.133-.012.257-.073.347-.172s.14-.227.14-.361-.05-.263-.14-.361a.54.54 0 0 0-.347-.172c-.133.012-.257.073-.347.172s-.14.228-.14.361.05.263.14.361a.54.54 0 0 0 .347.172zm1.309.001a.53.53 0 0 0 .3-.086.54.54 0 0 0 .201-.239.53.53 0 0 0 .033-.31.54.54 0 0 0-.146-.276.53.53 0 0 0-.275-.148c-.105-.021-.212-.01-.311.031s-.182.11-.24.199a.54.54 0 0 0-.089.299c-.001.07.013.138.039.203a.53.53 0 0 0 .114.172c.049.049.107.088.171.115a.52.52 0 0 0 .202.04zm2.59-.001a.54.54 0 0 0 .299-.088.53.53 0 0 0 .23-.55.54.54 0 0 0-.422-.422.53.53 0 0 0-.31.031c-.098.041-.181.11-.24.199a.53.53 0 0 0 .443.83zm1.3.001a.53.53 0 0 0 .3-.086.54.54 0 0 0 .201-.239.53.53 0 0 0 .033-.31.54.54 0 0 0-.146-.276c-.075-.076-.171-.127-.275-.148s-.212-.01-.311.031-.182.11-.241.199a.53.53 0 0 0 .438.83zm1.299-.001a.54.54 0 0 0 .299-.088.53.53 0 0 0 .199-.24.54.54 0 0 0 .032-.31c-.02-.104-.072-.2-.147-.275a.54.54 0 0 0-.275-.147.53.53 0 0 0-.31.031c-.098.041-.181.11-.24.199a.53.53 0 0 0 .443.83zm1.301 0a.54.54 0 0 0 .299-.088.53.53 0 0 0 .23-.55.54.54 0 0 0-.422-.422.53.53 0 0 0-.31.031c-.098.041-.181.11-.24.199a.53.53 0 0 0 .443.83zm1.304 0c.133-.012.257-.073.347-.172s.14-.228.14-.361-.05-.262-.14-.361-.214-.16-.347-.172c-.074-.007-.148.002-.219.026s-.135.062-.19.112-.099.111-.128.179a.55.55 0 0 0-.045.216.55.55 0 0 0 .045.216.53.53 0 0 0 .318.291c.071.024.145.033.219.026zm-14.31-32.521a.53.53 0 0 0 .381-.905.53.53 0 0 0-.908.374.53.53 0 0 0 .039.203.52.52 0 0 0 .285.287.54.54 0 0 0 .203.041z"/><path d="M69.169 71.638a.54.54 0 0 0 .299-.088.53.53 0 0 0 .23-.55.54.54 0 0 0-.422-.422.53.53 0 0 0-.31.031c-.098.041-.181.11-.24.199a.53.53 0 0 0-.088.299.53.53 0 0 0 .157.374.54.54 0 0 0 .374.157zm0 1.3a.53.53 0 0 0 .374-.908.53.53 0 0 0-.905.381c.002.14.059.273.158.371s.233.154.373.155zm1.317 0a.53.53 0 0 0 .38-.906.53.53 0 0 0-.906.38.53.53 0 0 0 .527.527zm1.287 0a.53.53 0 0 0 .38-.906.53.53 0 0 0-.906.38.53.53 0 0 0 .527.527zm1.299 0a.53.53 0 0 0 .38-.906.53.53 0 0 0-.906.38.53.53 0 0 0 .527.527zm1.299 0a.53.53 0 0 0 .357-.912.53.53 0 0 0-.9.385.53.53 0 0 0 .527.527m1.316 0a.53.53 0 0 0 .38-.906.53.53 0 0 0-.906.38c0 .14.056.274.154.372a.53.53 0 0 0 .372.154zm1.301 0a.53.53 0 0 0 .38-.906.53.53 0 0 0-.906.38c0 .14.055.274.154.372a.53.53 0 0 0 .372.154zm1.299-1.057a.53.53 0 0 0-.381.905.53.53 0 0 0 .908-.374c.001-.07-.013-.138-.039-.203a.51.51 0 0 0-.114-.172.52.52 0 0 0-.171-.115.54.54 0 0 0-.202-.041zm1.303 0a.53.53 0 0 0-.386.903.53.53 0 0 0 .909-.372c-.001-.141-.058-.276-.158-.376s-.236-.155-.377-.155m1.316 1.057a.53.53 0 0 0 .38-.906.53.53 0 0 0-.906.38c0 .14.055.274.154.372a.53.53 0 0 0 .372.154zm1.309 0a.53.53 0 0 0 .38-.906.53.53 0 0 0-.906.38c0 .14.055.274.154.372a.53.53 0 0 0 .372.154zm2.59 0a.53.53 0 0 0 .374-.908.53.53 0 0 0-.905.381.53.53 0 0 0 .531.527zm1.3 0a.53.53 0 0 0 .38-.906.53.53 0 0 0-.906.38.53.53 0 0 0 .527.527zm1.299 0a.53.53 0 0 0 .374-.908.53.53 0 0 0-.905.381.53.53 0 0 0 .531.527zm1.301 0a.53.53 0 0 0 .374-.908.53.53 0 0 0-.905.381.53.53 0 0 0 .531.527zm1.303 0a.53.53 0 0 0 .368-.909.53.53 0 0 0-.903.382.53.53 0 0 0 .535.526zM75.671 37.817a.53.53 0 0 0 .381-.905.53.53 0 0 0-.908.374.53.53 0 0 0 .039.203.52.52 0 0 0 .114.172c.049.049.107.088.171.115a.52.52 0 0 0 .203.04zM69.169 74.25c.14 0 .274-.055.372-.154a.53.53 0 0 0 0-.744.53.53 0 0 0-.372-.154c-.139 0-.274.055-.372.154a.53.53 0 0 0-.154.372c0 .139.055.274.154.372a.53.53 0 0 0 .372.154z"/><path d="M70.486 74.25c.104 0 .206-.031.292-.089s.154-.14.194-.236.05-.202.03-.304-.07-.196-.144-.27-.168-.124-.27-.144-.208-.01-.304.03-.178.107-.236.194-.089.188-.089.293a.53.53 0 0 0 .527.527zm1.287 0a.53.53 0 0 0 .293-.089c.087-.058.154-.14.194-.236s.05-.202.03-.304a.53.53 0 0 0-.144-.27c-.073-.074-.167-.124-.27-.144s-.208-.01-.304.03-.178.107-.236.194-.089.188-.089.293a.53.53 0 0 0 .527.527zm1.299 0a.53.53 0 0 0 .293-.089c.087-.058.154-.14.194-.236s.05-.202.03-.304-.07-.196-.144-.27a.52.52 0 0 0-.27-.144c-.103-.02-.208-.01-.304.03s-.178.107-.236.194-.089.188-.089.293a.53.53 0 0 0 .527.527zm1.3 0a.53.53 0 0 0 .293-.089c.087-.058.154-.14.194-.236s.05-.202.03-.304-.07-.196-.144-.27a.52.52 0 0 0-.27-.144c-.103-.02-.208-.01-.304.03s-.178.107-.236.194-.089.188-.089.293a.53.53 0 0 0 .527.527zm1.299 0a.53.53 0 0 0 .293-.089c.087-.058.154-.14.194-.236s.05-.202.03-.304-.07-.196-.144-.27a.52.52 0 0 0-.27-.144c-.103-.02-.208-.01-.304.03s-.178.107-.236.194-.089.188-.089.293c0 .14.056.274.154.372a.53.53 0 0 0 .372.154zm1.301 0c.104 0 .206-.031.292-.089s.154-.14.194-.236.05-.202.03-.304-.07-.196-.144-.27a.52.52 0 0 0-.27-.144c-.103-.02-.208-.01-.304.03s-.178.107-.236.194-.089.188-.089.293c0 .14.055.274.154.372a.53.53 0 0 0 .372.154zm1.299-1.069a.53.53 0 0 0-.381.905.53.53 0 0 0 .908-.374c.001-.069-.013-.138-.039-.203a.51.51 0 0 0-.114-.172c-.049-.049-.107-.088-.171-.115a.52.52 0 0 0-.202-.04zm1.304 0a.53.53 0 0 0-.369.908.53.53 0 0 0 .905-.377c-.001-.141-.058-.276-.158-.376s-.236-.155-.377-.155zm1.303 1.069a.53.53 0 0 0 .293-.089c.087-.058.154-.14.194-.236s.05-.202.03-.304-.07-.196-.144-.27a.52.52 0 0 0-.27-.144c-.103-.02-.208-.01-.304.03s-.178.107-.236.194-.089.188-.089.293c0 .14.055.274.154.372a.53.53 0 0 0 .372.154zm1.309 0a.53.53 0 0 0 .293-.089c.087-.058.154-.14.194-.236s.05-.202.03-.304-.07-.196-.144-.27-.168-.124-.27-.144-.208-.01-.304.03-.178.107-.236.194-.089.188-.089.293c0 .14.055.274.154.372a.53.53 0 0 0 .372.154z"/><use xlink:href="#AD"/><path d="M86.077 74.25c.14 0 .273-.055.372-.154s.154-.233.154-.372-.055-.274-.154-.372a.53.53 0 0 0-.372-.154c-.139 0-.274.055-.372.154a.53.53 0 0 0 0 .744.53.53 0 0 0 .372.154zm1.299 0a.52.52 0 0 0 .291-.091.53.53 0 0 0 .192-.237c.039-.096.049-.202.028-.304a.53.53 0 0 0-.145-.269c-.074-.074-.168-.123-.27-.143s-.208-.009-.304.031-.178.108-.236.194-.089.188-.089.292a.53.53 0 0 0 .531.527zm1.301 0a.52.52 0 0 0 .291-.091.53.53 0 0 0 .192-.237c.039-.096.049-.202.028-.304a.53.53 0 0 0-.145-.269c-.074-.074-.168-.123-.27-.143s-.208-.009-.304.031-.178.108-.236.194a.52.52 0 0 0-.088.292.53.53 0 0 0 .531.527zm1.303.001a.53.53 0 0 0 .48-.331c.038-.096.048-.202.026-.304s-.072-.195-.146-.267-.168-.122-.27-.142a.53.53 0 0 0-.303.031c-.096.04-.178.108-.235.194a.53.53 0 0 0 .07.666.53.53 0 0 0 .173.114.55.55 0 0 0 .204.039zm-20.811 1.287a.53.53 0 0 0 .374-.908.53.53 0 0 0-.905.381c.002.14.059.273.158.371s.233.154.373.155zm1.317 0a.53.53 0 0 0 .38-.906.53.53 0 0 0-.906.38.53.53 0 0 0 .527.527zm1.287 0a.53.53 0 0 0 .38-.906.53.53 0 0 0-.906.38.53.53 0 0 0 .527.527zm1.299 0a.53.53 0 0 0 .38-.906.53.53 0 0 0-.906.38.53.53 0 0 0 .527.527zm1.3 0a.53.53 0 0 0 .38-.906.53.53 0 0 0-.906.38.53.53 0 0 0 .527.527zm1.299 0a.53.53 0 0 0 .38-.906.53.53 0 0 0-.906.38c0 .14.056.274.154.372a.53.53 0 0 0 .372.154zm1.301 0a.53.53 0 0 0 .38-.906.53.53 0 0 0-.906.38c0 .14.055.274.154.372a.53.53 0 0 0 .372.154zm1.299-1.058a.53.53 0 0 0-.381.905.53.53 0 0 0 .908-.374c.001-.069-.013-.138-.039-.203a.51.51 0 0 0-.114-.172.52.52 0 0 0-.171-.115.54.54 0 0 0-.202-.041zm1.304 0a.53.53 0 0 0-.369.908.53.53 0 0 0 .905-.377c-.001-.141-.058-.276-.158-.376s-.236-.155-.377-.155zm1.83.531a.53.53 0 0 0-.089-.293c-.058-.087-.14-.154-.236-.194s-.202-.05-.304-.03-.196.07-.27.144-.124.168-.144.27-.01.208.03.304.107.178.194.236.188.089.293.089c.14 0 .274-.055.372-.154a.53.53 0 0 0 .154-.372zm.782.527a.53.53 0 0 0 .38-.906.53.53 0 0 0-.906.38c0 .14.055.274.154.372a.53.53 0 0 0 .372.154zm2.59 0a.53.53 0 0 0 .374-.908.53.53 0 0 0-.905.381.53.53 0 0 0 .531.527z"/><path d="M86.077 75.538a.53.53 0 0 0 .38-.906.53.53 0 0 0-.906.38.53.53 0 0 0 .527.527zm1.299 0a.53.53 0 0 0 .374-.908.53.53 0 0 0-.905.381.53.53 0 0 0 .531.527zm1.301 0a.53.53 0 0 0 .374-.908.53.53 0 0 0-.905.381.53.53 0 0 0 .531.527zm1.303 0a.53.53 0 0 0 .368-.909.53.53 0 0 0-.903.382.53.53 0 0 0 .331.488.55.55 0 0 0 .204.039z"/><use xlink:href="#AE"/><path d="M91.285 59.924a.53.53 0 0 0 .374-.908.53.53 0 0 0-.905.381.53.53 0 0 0 .531.527zm0-1.299a.52.52 0 0 0 .291-.091.53.53 0 0 0 .192-.237c.039-.096.049-.202.028-.304a.53.53 0 0 0-.145-.269c-.074-.074-.168-.123-.27-.143s-.208-.009-.304.031-.178.107-.236.194-.088.188-.088.292a.53.53 0 0 0 .531.526zm0-1.3a.52.52 0 0 0 .291-.091.53.53 0 0 0 .192-.237c.039-.096.049-.202.028-.304a.53.53 0 0 0-.145-.269c-.074-.074-.168-.123-.27-.143s-.208-.009-.304.031-.178.108-.236.194a.52.52 0 0 0-.088.292.55.55 0 0 0 .04.203.51.51 0 0 0 .115.171.52.52 0 0 0 .172.114.53.53 0 0 0 .203.039zm0-1.296a.53.53 0 0 0 .375-.906.53.53 0 0 0-.906.375.53.53 0 0 0 .531.531zm0-1.303c.104-.001.205-.032.29-.09a.53.53 0 0 0 .222-.539c-.02-.102-.07-.195-.143-.269s-.166-.124-.267-.145a.53.53 0 0 0-.303.027.52.52 0 0 0-.237.19c-.058.085-.091.186-.093.29a.55.55 0 0 0 .04.203.51.51 0 0 0 .115.171.52.52 0 0 0 .172.114.53.53 0 0 0 .203.039m.001-1.287a.53.53 0 0 0 .375-.906.53.53 0 0 0-.906.375.53.53 0 0 0 .531.531zm0-1.3a.53.53 0 0 0 .375-.906.53.53 0 0 0-.906.375.53.53 0 0 0 .531.531z"/><path d="M91.285 50.847c.106.001.21-.03.298-.088a.54.54 0 0 0 .199-.239c.041-.097.052-.205.032-.309s-.071-.2-.145-.275-.17-.127-.274-.148a.53.53 0 0 0-.31.03.54.54 0 0 0-.241.197c-.059.088-.09.192-.09.298 0 .141.056.277.155.377s.234.157.376.158zm0-1.324a.53.53 0 0 0 .375-.906.53.53 0 0 0-.906.375.53.53 0 0 0 .531.531zm0-1.304a.52.52 0 0 0 .291-.091.53.53 0 0 0 .192-.237c.039-.096.049-.202.028-.304s-.071-.195-.145-.268a.53.53 0 0 0-.27-.143c-.102-.02-.208-.009-.304.031s-.178.107-.236.194-.088.188-.088.292a.54.54 0 0 0 .04.202.52.52 0 0 0 .287.285.54.54 0 0 0 .203.039zm0 15.613a.52.52 0 0 0 .291-.091.53.53 0 0 0 .192-.237c.039-.096.049-.202.028-.304a.53.53 0 0 0-.145-.269c-.074-.074-.168-.123-.27-.143s-.208-.009-.304.031-.178.107-.236.194-.088.188-.088.292a.55.55 0 0 0 .04.203.51.51 0 0 0 .115.171.52.52 0 0 0 .172.114.54.54 0 0 0 .203.039zm0-1.283a.53.53 0 0 0 .375-.906.53.53 0 0 0-.906.375.53.53 0 0 0 .531.531zm0-15.626a.53.53 0 0 0 .375-.906.53.53 0 0 0-.906.375.53.53 0 0 0 .531.531zm0 18.209a.52.52 0 0 0 .291-.091.53.53 0 0 0 .192-.237c.039-.096.049-.202.028-.304s-.071-.195-.145-.268a.53.53 0 0 0-.27-.143c-.102-.02-.208-.009-.304.031s-.178.107-.236.194-.088.188-.088.292a.53.53 0 0 0 .531.527zm0-19.508a.53.53 0 0 0 .375-.906.53.53 0 0 0-.906.375.53.53 0 0 0 .531.531zm0 20.807a.53.53 0 0 0 .378-.903.53.53 0 0 0-.909.364.53.53 0 0 0 .531.527m0-22.095a.53.53 0 0 0 .375-.906.53.53 0 0 0-.906.375.53.53 0 0 0 .531.531zm0-1.346a.53.53 0 0 0 .291-.091c.086-.058.153-.141.192-.237s.049-.202.028-.304a.53.53 0 0 0-.145-.269c-.074-.074-.168-.123-.27-.143s-.208-.009-.304.031-.178.107-.236.194-.088.188-.088.292a.53.53 0 0 0 .531.527z"/><path d="M91.285 67.731a.53.53 0 0 0 .491-.329.53.53 0 0 0-.117-.579.53.53 0 0 0-.58-.112.53.53 0 0 0-.325.493.53.53 0 0 0 .531.526z"/><path d="M91.285 69.031a.53.53 0 0 0 .491-.329.53.53 0 0 0-.117-.579.53.53 0 0 0-.58-.112.53.53 0 0 0-.325.493.53.53 0 0 0 .531.526z"/><path d="M91.285 70.33a.53.53 0 0 0 .374-.908.53.53 0 0 0-.905.381.53.53 0 0 0 .531.527zm0 1.308a.54.54 0 0 0 .299-.088.53.53 0 0 0 .23-.55c-.021-.104-.072-.2-.146-.275s-.171-.126-.275-.147a.53.53 0 0 0-.31.031c-.098.041-.181.11-.24.199a.53.53 0 0 0 .443.83zm0 1.3a.53.53 0 0 0 .374-.908.53.53 0 0 0-.905.381.53.53 0 0 0 .531.527zm0 1.312a.52.52 0 0 0 .291-.091.53.53 0 0 0 .192-.237c.039-.096.049-.202.028-.304a.53.53 0 0 0-.145-.269c-.074-.074-.168-.123-.27-.143s-.208-.009-.304.031-.178.108-.236.194a.52.52 0 0 0-.088.292.53.53 0 0 0 .531.527zm0 1.288a.53.53 0 0 0 .374-.908.53.53 0 0 0-.905.381.53.53 0 0 0 .531.527zm1.671 16.95v-11.25h-2.8l-2.533 5.893-2.633-5.893h-2.85v11.25h1.81v-7.531l3.285 7.748 3.164-7.748v7.531h2.558zm7.741-.898c.607-.66.911-1.704.911-3.13a5.95 5.95 0 0 0-.368-2.261 2.59 2.59 0 0 0-1.204-1.341 4.7 4.7 0 0 0-2.244-.456c-2.538 0-3.82 1.36-3.845 4.079 0 1.421.309 2.453.924 3.105s1.571.986 2.867.999c1.371 0 2.357-.331 2.959-.995zm-3.954-.573a2.02 2.02 0 0 1-.418-.978 14.91 14.91 0 0 1-.121-1.58 6.27 6.27 0 0 1 .293-2.144c.192-.518.635-.786 1.329-.807a1.2 1.2 0 0 1 .781.177 1.19 1.19 0 0 1 .494.63 7.13 7.13 0 0 1 .267 2.19 7.02 7.02 0 0 1-.263 2.177c-.18.514-.606.769-1.279.769a1.29 1.29 0 0 1-.586-.082c-.186-.073-.353-.187-.488-.335m7.872.974a2.29 2.29 0 0 0 .568.33c.399.154.826.222 1.254.201a4.34 4.34 0 0 0 1.671-.33 2.57 2.57 0 0 0 1.225-1.254 6.04 6.04 0 0 0 .485-2.683 5.41 5.41 0 0 0-.46-2.478 2.26 2.26 0 0 0-1.12-1.124 4.15 4.15 0 0 0-1.517-.259 4.6 4.6 0 0 0-2.09.418v-3.573h-2.269v11.25h2.269l-.016-.497zm0-6.11c0-.046.121-.125.359-.238a2.99 2.99 0 0 1 1.02-.222c.794 0 1.325.242 1.592.723a4.31 4.31 0 0 1 .418 2.09 4.86 4.86 0 0 1-.468 2.411 1.73 1.73 0 0 1-1.609.781 1.96 1.96 0 0 1-.915-.318c-.259-.175-.385-.288-.385-.338l-.012-4.89zm7.99-4.309c-.255-.247-.596-.385-.951-.385s-.696.138-.951.385c-.227.248-.351.574-.347.911a1.26 1.26 0 0 0 .347.89 1.19 1.19 0 0 0 .936.389 1.21 1.21 0 0 0 .522-.085 1.2 1.2 0 0 0 .435-.299 1.38 1.38 0 0 0 0-1.822m.172 2.875h-2.244v8.041h2.244v-8.041zm3.239-3.21h-2.223v11.25h2.223v-11.25zm8.071 7.343v-.514a4.38 4.38 0 0 0-.652-2.533c-.514-.752-1.484-1.133-2.926-1.133-1.192 0-2.097.352-2.716 1.057-.623.69-.928 1.78-.928 3.264 0 1.295.289 2.24.836 2.825s1.4.928 2.574 1.011l.669.025a6.46 6.46 0 0 0 1.789-.205c.468-.134.702-.242.702-.326l.338-1.396c-.273.223-.581.401-.911.527a4.86 4.86 0 0 1-1.939.313 1.47 1.47 0 0 1-.863-.283c-.251-.183-.437-.441-.533-.736a5.93 5.93 0 0 1-.418-1.609h4.953c0-.054 0-.15.029-.288h-.004zm-4.978-.777c0-1.555.548-2.353 1.647-2.386 1.237 0 1.856.795 1.856 2.386h-3.503zm-26.027 12.679h-2.269v8.036h2.269v-4.952a1.76 1.76 0 0 1 .314-.915 2.14 2.14 0 0 1 .894-.79c.402-.21.851-.313 1.304-.297a3.36 3.36 0 0 1 .773.1l-.196-1.161a3.1 3.1 0 0 0-.694-.046 3.2 3.2 0 0 0-1.187.192 3.32 3.32 0 0 0-.69.326 1.82 1.82 0 0 0-.38.326l-.138.167v-.986zm10.894 4.129v-.514a4.34 4.34 0 0 0-.656-2.533c-.51-.752-1.484-1.132-2.926-1.132-1.195 0-2.102.352-2.72 1.057-.618.689-.928 1.78-.928 3.264 0 1.295.288 2.24.836 2.829s1.4.924 2.57 1.007l.673.025c.601.016 1.202-.053 1.784-.204.468-.134.702-.243.702-.326l.343-1.396c-.276.222-.584.4-.915.526a4.84 4.84 0 0 1-1.939.314 1.48 1.48 0 0 1-.863-.284c-.251-.183-.437-.441-.533-.736a5.87 5.87 0 0 1-.418-1.609h4.952c0-.054 0-.15.03-.288h.008zm-4.99-.778c0-1.554.548-2.352 1.642-2.386 1.243 0 1.863.796 1.86 2.386h-3.502zm12.663 4.685v-6.181a1.79 1.79 0 0 0-.155-.727c-.103-.229-.252-.434-.438-.602-.517-.426-1.18-.633-1.848-.576-.395-.005-.789.047-1.17.154-.273.075-.535.187-.777.335l-.322.213v-.652h-2.269v8.036h2.269v-5.817c.089-.229.222-.438.393-.614a1.61 1.61 0 0 1 1.082-.469c1.029 0 1.543.338 1.543 1.012v5.888h1.692zm5.943-7.681c-.656-.297-1.37-.44-2.09-.418a3.25 3.25 0 0 0-2.215.757c-.58.501-.877 1.537-.898 3.105-.048.927.118 1.854.485 2.708.248.55.683.994 1.228 1.253.532.214 1.099.323 1.672.322.427.021.854-.048 1.254-.2.205-.081.397-.192.568-.331v.485h2.244v-11.25h-2.244l-.004 3.569zm0 5.968c0 .058-.13.171-.389.342a2.09 2.09 0 0 1-.944.314 1.9 1.9 0 0 1-1.212-.36c-.325-.271-.552-.641-.648-1.053-.142-.582-.207-1.181-.192-1.78a4.33 4.33 0 0 1 .418-2.089c.271-.481.806-.723 1.6-.723.348.013.69.088 1.012.221.242.113.367.192.367.238l-.012 4.89zm5.835-5.132c.39-.135.803-.196 1.216-.18a6.07 6.07 0 0 1 1.818.217c.313.087.615.208.902.36l-.384-1.3c-.292-.106-.591-.191-.894-.255a8.06 8.06 0 0 0-1.739-.154h-.255-.276c-1.983.089-3.005.785-3.063 2.089 0 .744.201 1.254.602 1.559.544.35 1.157.58 1.797.677.593.099 1.173.263 1.73.489a1.04 1.04 0 0 1 .426.44c.095.187.131.397.105.605a1.29 1.29 0 0 1-.098.548c-.072.173-.181.328-.32.455-.251.217-.732.321-1.442.321-.567.005-1.13-.09-1.663-.28a5.22 5.22 0 0 1-.974-.459l.313 1.404c.338.109.681.198 1.028.267.584.117 1.178.172 1.772.163l.577-.025c.827-.012 1.63-.276 2.303-.756.526-.426.79-1.131.79-2.115a1.81 1.81 0 0 0-.156-.824 1.79 1.79 0 0 0-.513-.663c-.449-.332-.963-.565-1.509-.686l-1.701-.418c-.551-.138-.835-.388-.835-.698a.77.77 0 0 1 .105-.455c.082-.137.204-.245.35-.309m-17.364-36.033l1.254.468 1.212.489 1.166.514 1.124.543a30.17 30.17 0 0 1 2.699 1.563c.822.524 1.608 1.102 2.353 1.73a16.47 16.47 0 0 1 1.935 1.927 12.17 12.17 0 0 1 1.455 2.123c.038.077.086.148.142.213a1.62 1.62 0 0 0 .213.209c.079.071.171.138.267.209s.209.13.326.192a5.59 5.59 0 0 0 .778.359l.927.293 1.024.213c.356.059.714.096 1.074.113a7.66 7.66 0 0 0 1.455-.05c.351-.045.694-.144 1.015-.293a.92.92 0 0 0 .481-.477.65.65 0 0 0 .011-.319.66.66 0 0 0-.141-.287 18.79 18.79 0 0 0-2.165-2.541 25.23 25.23 0 0 0-2.662-2.261 33.03 33.03 0 0 0-3.063-1.998l-3.398-1.755-1.383-.61-1.421-.577-1.463-.547-1.496-.514-6.268-1.747-3.803-.769v1.776l1.036.242 5.341 1.588"/><path d="M100.959 67.798l.836.389.798.418.756.418a16.63 16.63 0 0 1 1.756 1.187 12.02 12.02 0 0 1 1.429 1.296c.403.431.76.903 1.066 1.408a6.11 6.11 0 0 1 .66 1.509.81.81 0 0 0 .092.205 1.12 1.12 0 0 0 .155.205 1.62 1.62 0 0 0 .213.196c.082.07.17.133.263.188a4.81 4.81 0 0 0 .673.347 7.54 7.54 0 0 0 .836.284 8.15 8.15 0 0 0 .952.205c.34.055.681.092 1.024.113a7.78 7.78 0 0 0 1.43-.054 3.83 3.83 0 0 0 1.061-.284 1.27 1.27 0 0 0 .589-.464.6.6 0 0 0 0-.585c-.31-.677-.697-1.317-1.153-1.906a13.33 13.33 0 0 0-1.622-1.751c-.637-.575-1.313-1.105-2.022-1.588a26.02 26.02 0 0 0-2.378-1.425l-.995-.506-1.04-.481-1.087-.46-1.124-.418a46.57 46.57 0 0 0-4.455-1.388v2.445l.372.142.886.376m.443 7.727a7.6 7.6 0 0 0 1.404-.054c.378-.048.748-.141 1.104-.276a1.81 1.81 0 0 0 .681-.451.66.66 0 0 0 .146-.268.67.67 0 0 0 .013-.305 4.87 4.87 0 0 0-.477-1.296 6.54 6.54 0 0 0-.836-1.225c-.352-.414-.741-.796-1.161-1.141a13.69 13.69 0 0 0-1.467-1.049l-.644-.38-.439-.234v6.423c.23.062.463.112.698.15a8.05 8.05 0 0 0 .978.105zm-8.801-5.216a.53.53 0 0 0 .374-.908.53.53 0 0 0-.905.381.53.53 0 0 0 .531.527zm1.316 0a.53.53 0 0 0 .374-.908.53.53 0 0 0-.905.381.53.53 0 0 0 .531.527zm1.279 0a.53.53 0 0 0 .38-.906.53.53 0 0 0-.906.38.53.53 0 0 0 .527.527zm1.299 0a.53.53 0 0 0 .38-.906.53.53 0 0 0-.906.38.53.53 0 0 0 .526.527zm1.301 0a.53.53 0 0 0 .38-.906.53.53 0 0 0-.906.38.53.53 0 0 0 .526.527z"/><path d="M92.572 71.638a.54.54 0 0 0 .299-.088.53.53 0 0 0 .199-.24.54.54 0 0 0 .032-.31c-.02-.104-.072-.2-.147-.275a.54.54 0 0 0-.275-.147.53.53 0 0 0-.31.031c-.098.041-.181.11-.24.199a.53.53 0 0 0 .443.83zm1.316 0a.54.54 0 0 0 .299-.088.53.53 0 0 0 .23-.55.54.54 0 0 0-.422-.422.53.53 0 0 0-.31.031c-.098.041-.181.11-.24.199a.53.53 0 0 0 .443.83zm1.279.001a.53.53 0 0 0 .3-.086.54.54 0 0 0 .201-.239.53.53 0 0 0 .033-.31.54.54 0 0 0-.146-.276c-.075-.076-.171-.127-.275-.148s-.212-.01-.311.031-.182.11-.24.199a.54.54 0 0 0-.089.299.53.53 0 0 0 .527.531zm1.299 0a.53.53 0 0 0 .3-.086.54.54 0 0 0 .201-.239.53.53 0 0 0 .033-.31.54.54 0 0 0-.146-.276c-.075-.076-.171-.127-.275-.148s-.212-.01-.311.031-.182.11-.241.199a.53.53 0 0 0 .437.83zm1.301 0a.53.53 0 0 0 .3-.086.54.54 0 0 0 .201-.239.53.53 0 0 0 .033-.31.54.54 0 0 0-.146-.276c-.075-.076-.171-.127-.275-.148a.53.53 0 0 0-.31.031.54.54 0 0 0-.241.199.53.53 0 0 0 .437.83zm-5.195 1.299a.53.53 0 0 0 .374-.908.53.53 0 0 0-.905.381.53.53 0 0 0 .531.527z"/><path d="M93.888 72.938a.53.53 0 0 0 .374-.908.53.53 0 0 0-.905.381.53.53 0 0 0 .531.527zm1.279 0a.53.53 0 0 0 .38-.906.53.53 0 0 0-.906.38.53.53 0 0 0 .527.527zm1.299 0a.53.53 0 0 0 .38-.906.53.53 0 0 0-.906.38.53.53 0 0 0 .526.527zm1.299 0a.53.53 0 0 0 .368-.909.53.53 0 0 0-.903.382.53.53 0 0 0 .527.527m-5.185 1.312a.52.52 0 0 0 .291-.091.53.53 0 0 0 .192-.237c.039-.096.049-.202.028-.304a.53.53 0 0 0-.145-.269c-.074-.074-.168-.123-.27-.143s-.208-.009-.304.031-.178.108-.236.194a.52.52 0 0 0-.088.292.53.53 0 0 0 .531.527z"/><path d="M93.888 74.25a.52.52 0 0 0 .291-.091.53.53 0 0 0 .192-.237c.039-.096.049-.202.028-.304a.53.53 0 0 0-.145-.269c-.074-.074-.168-.123-.27-.143s-.208-.009-.304.031-.178.108-.236.194a.52.52 0 0 0-.088.292.53.53 0 0 0 .531.527zm1.279 0a.53.53 0 0 0 .293-.089c.087-.058.154-.14.194-.236s.05-.202.03-.304-.07-.196-.144-.27a.52.52 0 0 0-.27-.144c-.103-.02-.208-.01-.304.03s-.178.107-.236.194-.089.188-.089.293a.53.53 0 0 0 .527.527zm1.299 0a.53.53 0 0 0 .293-.089c.087-.058.154-.14.194-.236s.05-.202.03-.304-.07-.196-.144-.27a.52.52 0 0 0-.27-.144c-.103-.02-.208-.01-.304.03s-.178.107-.236.194-.089.188-.089.293a.53.53 0 0 0 .526.527zm1.301 0a.53.53 0 0 0 .293-.089c.087-.058.154-.14.194-.236s.05-.202.03-.304-.07-.196-.144-.27a.52.52 0 0 0-.27-.144c-.103-.02-.208-.01-.304.03s-.178.107-.236.194-.089.188-.089.293a.53.53 0 0 0 .527.527zm-5.195 1.288a.53.53 0 0 0 .374-.908.53.53 0 0 0-.905.381.53.53 0 0 0 .531.527z"/><path d="M93.888 75.538a.53.53 0 0 0 .374-.908.53.53 0 0 0-.905.381.53.53 0 0 0 .531.527zm1.279 0a.53.53 0 0 0 .38-.906.53.53 0 0 0-.906.38.53.53 0 0 0 .527.527zm1.299 0a.53.53 0 0 0 .38-.906.53.53 0 0 0-.906.38.53.53 0 0 0 .526.527zm1.301 0a.53.53 0 0 0 .38-.906.53.53 0 0 0-.906.38.53.53 0 0 0 .526.527zm28.869 7.029h-.15a1.26 1.26 0 0 1-.556 1.034c-.203.134-.442.206-.685.208-.204.002-.404-.048-.584-.143a1.22 1.22 0 0 1-.657-1.098 1.24 1.24 0 0 1 .096-.485 1.25 1.25 0 0 1 .451-.543 1.23 1.23 0 0 1 1.726.334c.138.205.211.447.209.694h.288a1.55 1.55 0 0 0-.121-.593c-.115-.273-.306-.507-.552-.673a1.53 1.53 0 0 0-.835-.259 1.57 1.57 0 0 0-.594.117 1.51 1.51 0 0 0-.673.556 1.53 1.53 0 0 0-.259.836 1.57 1.57 0 0 0 .117.593c.118.276.314.512.565.678a1.54 1.54 0 0 0 .844.258 1.55 1.55 0 0 0 .593-.121c.277-.117.514-.312.68-.563s.256-.545.256-.845l-.159.017z"/><path d="M125.115 82.722v.497h-.301v-1.296h.502a.54.54 0 0 1 .355.105c.043.034.078.077.101.126s.035.104.033.158a.27.27 0 0 1-.054.171.39.39 0 0 1-.155.121.27.27 0 0 1 .171.113c.036.059.053.127.05.196v.079a.76.76 0 0 0 0 .117c.006.037.025.07.055.092h-.314a.16.16 0 0 1-.046-.096.94.94 0 0 1 0-.13v-.079c.003-.026 0-.051-.008-.076a.19.19 0 0 0-.038-.066c-.019-.018-.042-.032-.067-.04a.21.21 0 0 0-.079-.01l-.205.017zm0-.23h.197c.051.004.101-.011.142-.042.015-.015.027-.034.035-.054s.012-.042.011-.063a.22.22 0 0 0-.012-.07.16.16 0 0 0-.038-.059.2.2 0 0 0-.064-.039.19.19 0 0 0-.074-.011h-.197v.339zM84.648 121.5l-.886 2.578H82.09l3.74-10.82h2.758l3.807 10.82h-2.478l-.953-2.578h-4.317zm3.807-1.576l-1.672-4.597-1.58 4.597h3.251zm14.338-3.552l-2.62 7.961-2.511-5.897-2.39 5.897-2.925-7.961h2.207l1.183 3.41 1.116-2.671-.23-.739h2.324l1.387 3.297 1.141-3.297h1.32zm5.082 7.706v-.811c-.153.225-.364.406-.61.523-.552.247-1.156.353-1.759.309a3.12 3.12 0 0 1-1.76-.543 1.87 1.87 0 0 1-.559-.706 1.85 1.85 0 0 1-.159-.887 1.98 1.98 0 0 1 .19-.984c.146-.306.368-.57.645-.767.759-.452 1.624-.695 2.508-.706.426-.012.839-.15 1.187-.397.123-.083.225-.193.297-.322a.95.95 0 0 0 .121-.422c-.002-.141-.037-.28-.103-.405s-.161-.233-.278-.314c-.301-.214-.666-.32-1.036-.3-.73-.045-1.458.128-2.09.497-.37.221-.701.504-.977.836l.321-1.534c0-.029.117-.109.356-.247a4.45 4.45 0 0 1 .986-.38 5.76 5.76 0 0 1 1.513-.184c1.195 0 2.06.201 2.591.61.253.18.458.42.597.697s.208.585.201.896v5.549l-2.182-.008zm-1.065-1.208c.71-.192 1.065-.501 1.065-.927v-1.764l-.079.163a.78.78 0 0 1-.334.284c-.25.117-.519.186-.794.205a3.75 3.75 0 0 0-1.379.418c-.161.1-.291.243-.375.413s-.119.359-.102.548c.046.522.468.786 1.254.786.251-.002.5-.04.74-.113m4.159 1.195v-7.731h2.181v.948l.134-.163c.107-.121.231-.227.368-.313.543-.329 1.166-.501 1.801-.497.224-.013.449.002.669.046l.188 1.115a3.11 3.11 0 0 0-.744-.096c-.436-.016-.868.082-1.254.284-.352.167-.65.429-.861.757-.181.261-.285.568-.301.886v4.76l-2.181.004zm12.838-10.82v10.82h-2.161v-.464c-.163.134-.346.242-.543.318a3.07 3.07 0 0 1-1.204.192 4.34 4.34 0 0 1-1.6-.309 2.45 2.45 0 0 1-1.179-1.2c-.353-.819-.513-1.708-.468-2.599.02-1.507.308-2.503.865-2.988.595-.498 1.353-.757 2.127-.727a4.48 4.48 0 0 1 2.002.393v-3.436h2.161zm-2.161 9.169v-4.685c0-.045-.117-.125-.351-.234-.31-.126-.639-.197-.974-.209-.764 0-1.253.23-1.537.694a4.17 4.17 0 0 0-.389 1.998 6.47 6.47 0 0 0 .184 1.709 1.89 1.89 0 0 0 .618 1.016 1.84 1.84 0 0 0 1.17.342c.322-.023.634-.125.907-.296.247-.168.372-.276.372-.335zm5.173-4.2c0 .301.267.523.798.673l1.634.418a3.79 3.79 0 0 1 1.454.656 1.74 1.74 0 0 1 .492.639c.111.248.164.519.152.79 0 .945-.255 1.626-.765 2.036-.646.46-1.417.714-2.21.727h-.556c-.571.009-1.141-.043-1.701-.155-.335-.067-.666-.154-.991-.259l-.301-1.35c.296.18.61.328.937.443.524.192 1.079.287 1.638.28.482.05.968-.059 1.383-.309.13-.125.232-.276.298-.443s.096-.347.087-.527c.025-.199-.011-.402-.102-.581a1.01 1.01 0 0 0-.412-.422 7.9 7.9 0 0 0-1.672-.468c-.616-.092-1.206-.314-1.73-.652-.21-.184-.373-.416-.474-.676a1.74 1.74 0 0 1-.107-.82c.058-1.253 1.04-1.91 2.925-1.993h.268.242c.561-.012 1.121.037 1.672.146.292.061.58.143.861.247l.372 1.253a4.56 4.56 0 0 0-.87-.346c-.57-.155-1.16-.224-1.751-.205-.396-.018-.791.041-1.166.171a.74.74 0 0 0-.324.3c-.074.131-.107.281-.094.431M99.3 137.894H82.166v2.09H99.3v-2.09z"/></g><defs><clipPath id="A"><path fill="#fff" d="M0 0h172v173.467H0z"/></clipPath><path id="B" d="M86.077 56.03a.53.53 0 0 0 .493-.325.53.53 0 0 0-.112-.58.53.53 0 0 0-.579-.117.53.53 0 0 0-.329.491.53.53 0 0 0 .526.531z"/><path id="C" d="M86.077 54.726c.104 0 .206-.031.293-.089s.154-.14.194-.236.05-.202.03-.304-.07-.196-.144-.27-.168-.124-.27-.144-.208-.01-.304.03-.178.107-.236.194-.089.188-.089.292c0 .14.056.274.154.372s.233.154.372.154z"/><path id="D" d="M84.777 58.625c.104-.001.205-.032.291-.091s.153-.141.192-.237.049-.202.028-.304-.071-.195-.145-.269-.168-.123-.27-.143-.208-.009-.304.031-.178.107-.236.194-.088.188-.088.292a.53.53 0 0 0 .531.526z"/><path id="E" d="M80.878 58.625c.104 0 .206-.031.293-.089s.154-.14.194-.236.05-.202.03-.304-.07-.196-.144-.27-.167-.124-.27-.144-.208-.01-.304.03-.178.107-.236.194-.089.188-.089.293c0 .14.055.274.154.372s.233.154.372.154z"/><path id="F" d="M83.478 59.924a.53.53 0 0 0 .494-.326.53.53 0 0 0-.114-.58.53.53 0 0 0-.58-.114.53.53 0 0 0-.326.494c0 .14.055.274.154.372s.233.154.372.154z"/><path id="G" d="M84.777 59.924a.53.53 0 0 0 .491-.329.53.53 0 0 0-.117-.579.53.53 0 0 0-.58-.112.53.53 0 0 0-.325.493.53.53 0 0 0 .531.527z"/><path id="H" d="M86.077 59.924a.53.53 0 0 0 .494-.326.53.53 0 0 0-.114-.58.53.53 0 0 0-.58-.114.53.53 0 0 0-.326.494.53.53 0 0 0 .527.527z"/><path id="I" d="M88.677 57.325c.104-.001.205-.032.291-.091s.153-.141.192-.237.049-.202.028-.304-.071-.195-.145-.269-.168-.123-.27-.143-.208-.009-.304.031-.178.108-.236.194-.088.188-.088.292c0 .069.014.138.04.203s.066.122.115.171.108.088.172.114a.53.53 0 0 0 .203.039z"/><path id="J" d="M88.677 56.029a.53.53 0 0 0 .49-.328.53.53 0 0 0-.115-.578.53.53 0 0 0-.578-.115.53.53 0 0 0-.328.49.53.53 0 0 0 .531.531z"/><path id="K" d="M79.574 53.43a.53.53 0 0 0 .487-.331.53.53 0 0 0-.118-.577.53.53 0 0 0-.578-.113.53.53 0 0 0-.327.49c.001.141.058.276.158.376s.236.155.377.155z"/><path id="L" d="M84.777 61.232c.106.001.21-.03.299-.088s.158-.142.199-.24.052-.206.031-.31-.072-.2-.147-.275-.171-.126-.275-.147-.212-.01-.31.031-.181.11-.24.199-.089.193-.088.299a.53.53 0 0 0 .531.531z"/><path id="M" d="M86.077 61.233c.106.002.211-.028.3-.086s.159-.141.201-.239.053-.206.033-.31-.071-.2-.146-.276-.171-.127-.275-.148-.212-.01-.311.031-.182.11-.241.199-.09.193-.089.299a.53.53 0 0 0 .527.531z"/><path id="N" d="M87.376 61.232c.106.001.21-.03.299-.088s.158-.142.199-.24.052-.206.032-.31-.072-.2-.147-.275-.171-.126-.275-.147-.212-.01-.31.031-.181.11-.24.199-.089.193-.088.299a.53.53 0 0 0 .531.531z"/><path id="O" d="M89.98 59.924a.53.53 0 0 0 .488-.331.53.53 0 0 0-.12-.578.53.53 0 0 0-.579-.111.53.53 0 0 0-.324.493.53.53 0 0 0 .158.374.53.53 0 0 0 .377.152z"/><path id="P" d="M89.98 56.03a.53.53 0 0 0 .487-.331.53.53 0 0 0-.118-.577.53.53 0 0 0-.578-.113.53.53 0 0 0-.327.49.53.53 0 0 0 .157.377.53.53 0 0 0 .378.154z"/><path id="Q" d="M78.27 49.761c-.106-.002-.21.028-.299.086s-.159.141-.201.238-.053.205-.034.31.07.2.145.276.17.127.274.149.212.011.31-.029.182-.109.241-.197.091-.192.091-.298a.53.53 0 0 0-.153-.377.53.53 0 0 0-.374-.158z"/><path id="R" d="M78.271 51.073a.53.53 0 0 0-.494.326.53.53 0 0 0 .114.58.53.53 0 0 0 .58.114.53.53 0 0 0 .326-.494c0-.14-.055-.274-.154-.372s-.233-.154-.372-.154z"/><path id="S" d="M79.574 60.167c-.106 0-.209.031-.297.09s-.156.142-.197.24-.051.205-.031.309.072.199.146.274.17.126.274.146.211.01.309-.03.181-.109.24-.197.09-.191.09-.297a.54.54 0 0 0-.535-.535z"/><path id="T" d="M80.878 62.549a.53.53 0 0 0 .493-.325.53.53 0 0 0-.112-.58.53.53 0 0 0-.579-.117.53.53 0 0 0-.329.491c-.001.069.013.138.039.203s.065.123.114.172.107.088.171.115.133.041.203.041z"/><path id="U" d="M92.572 54.726c.104-.001.205-.032.291-.091s.153-.141.192-.237.049-.202.028-.304-.071-.195-.145-.269-.168-.123-.27-.143-.208-.009-.304.031-.178.107-.236.194-.088.188-.088.292c0 .07.014.138.041.203s.066.122.115.171.108.088.172.114.133.039.203.039z"/><path id="V" d="M76.972 49.523a.53.53 0 0 0 .493-.325.53.53 0 0 0-.112-.58.53.53 0 0 0-.579-.117.53.53 0 0 0-.329.491.53.53 0 0 0 .039.203c.026.064.065.123.114.172s.107.089.171.115.133.04.203.04z"/><path id="W" d="M76.972 52.13a.53.53 0 0 0 .493-.325.53.53 0 0 0-.112-.58.53.53 0 0 0-.579-.117.53.53 0 0 0-.329.491.53.53 0 0 0 .039.203c.026.064.065.123.114.172s.107.088.171.115.133.04.203.04z"/><path id="X" d="M76.972 53.43a.53.53 0 0 0 .493-.325.53.53 0 0 0-.112-.58.53.53 0 0 0-.579-.117.53.53 0 0 0-.329.491.53.53 0 0 0 .039.203c.026.064.065.123.114.172s.107.089.171.115.133.041.203.041z"/><path id="Y" d="M76.972 56.03a.53.53 0 0 0 .493-.325.53.53 0 0 0-.112-.58.53.53 0 0 0-.579-.117.53.53 0 0 0-.329.491.53.53 0 0 0 .039.203c.026.064.065.123.114.172s.107.088.171.115.133.041.203.041z"/><path id="Z" d="M76.972 58.625c.104 0 .206-.031.292-.089s.154-.14.194-.236.05-.202.03-.304-.07-.196-.144-.27-.167-.124-.27-.144-.208-.01-.304.03-.178.107-.236.194-.089.188-.089.293c0 .14.055.274.154.372s.233.154.372.154z"/><path id="a" d="M84.777 63.832c.104-.001.205-.032.291-.091s.153-.141.192-.237.049-.202.028-.304-.071-.195-.145-.269-.168-.123-.27-.143-.208-.009-.304.031-.178.107-.236.194-.088.188-.088.292c0 .069.014.138.041.203s.066.122.115.171.108.088.172.114.133.039.203.039z"/><path id="b" d="M88.677 63.832c.104-.001.205-.032.291-.091s.153-.141.192-.237.049-.202.028-.304-.071-.195-.145-.269-.168-.123-.27-.143-.208-.009-.304.031-.178.107-.236.194-.088.188-.088.292c0 .069.014.138.04.203s.066.122.115.171.108.088.172.114.133.039.203.039z"/><path id="c" d="M75.671 58.625c.104 0 .206-.031.293-.089s.154-.14.194-.236.05-.202.03-.304-.07-.196-.144-.27-.167-.124-.27-.144-.208-.01-.304.03-.178.107-.236.194-.089.188-.089.293c0 .14.056.274.154.372s.233.154.372.154z"/><path id="d" d="M75.671 59.924a.53.53 0 0 0 .494-.326.53.53 0 0 0-.114-.58.53.53 0 0 0-.58-.114.53.53 0 0 0-.326.494c0 .14.056.274.154.372s.233.154.372.154z"/><path id="e" d="M84.777 65.132c.104-.001.205-.032.291-.091s.153-.141.192-.237.049-.202.028-.304-.071-.195-.145-.268-.168-.123-.27-.143-.208-.009-.304.031-.178.107-.236.194-.088.188-.088.292a.53.53 0 0 0 .531.527z"/><path id="f" d="M95.167 63.832c.104 0 .206-.031.293-.089s.154-.14.194-.236.05-.202.03-.304-.07-.196-.144-.27-.167-.124-.27-.144-.208-.01-.304.03-.178.107-.236.194-.089.188-.089.292c0 .14.055.274.154.372s.233.154.372.154z"/><path id="g" d="M95.167 62.549a.53.53 0 0 0 .493-.325.53.53 0 0 0-.112-.58.53.53 0 0 0-.579-.117.53.53 0 0 0-.329.491.53.53 0 0 0 .527.531z"/><path id="h" d="M95.167 61.233c.106.002.211-.028.3-.086s.159-.141.201-.239.053-.206.033-.31-.071-.2-.146-.276-.171-.127-.275-.148-.212-.01-.311.031-.182.11-.24.199-.09.193-.089.299a.53.53 0 0 0 .527.531z"/><path id="i" d="M95.167 58.625c.104 0 .206-.031.293-.089s.154-.14.194-.236.05-.202.03-.304-.07-.196-.144-.27-.167-.124-.27-.144-.208-.01-.304.03-.178.107-.236.194-.089.188-.089.293a.53.53 0 0 0 .527.527z"/><path id="j" d="M78.271 65.374a.53.53 0 0 0-.493.325.53.53 0 0 0 .112.58.53.53 0 0 0 .579.117.53.53 0 0 0 .329-.491c.001-.07-.013-.139-.039-.203s-.065-.123-.114-.172-.107-.088-.171-.115-.133-.04-.202-.04z"/><path id="k" d="M86.077 66.431a.53.53 0 0 0 .494-.326.53.53 0 0 0-.114-.58.53.53 0 0 0-.58-.114.53.53 0 0 0-.326.494.53.53 0 0 0 .527.526z"/><path id="l" d="M89.98 66.431a.53.53 0 0 0 .488-.331.53.53 0 0 0-.12-.578.53.53 0 0 0-.579-.111.53.53 0 0 0-.324.493.53.53 0 0 0 .158.374.53.53 0 0 0 .173.114c.065.026.134.039.204.039z"/><path id="m" d="M96.466 65.132c.104 0 .206-.031.293-.089s.154-.14.194-.236.05-.202.03-.304-.07-.196-.144-.27-.167-.124-.27-.144-.208-.01-.304.03-.178.107-.236.194-.089.188-.089.293a.53.53 0 0 0 .526.527z"/><path id="n" d="M96.466 61.233c.106.002.211-.028.3-.086s.159-.141.201-.239.053-.206.033-.31-.071-.2-.146-.276-.171-.127-.275-.148-.212-.01-.311.031-.182.11-.241.199-.09.193-.089.299a.53.53 0 0 0 .526.531z"/><path id="o" d="M96.466 59.924a.53.53 0 0 0 .494-.326.53.53 0 0 0-.114-.58.53.53 0 0 0-.58-.114.53.53 0 0 0-.326.494.53.53 0 0 0 .526.527z"/><path id="p" d="M73.072 54.726c.104 0 .206-.031.293-.089a.53.53 0 0 0 .194-.236c.04-.096.05-.202.03-.304s-.07-.196-.144-.27-.167-.124-.27-.144-.208-.01-.304.03-.178.107-.236.194-.089.188-.089.292c0 .14.055.274.154.372s.233.154.372.154z"/><path id="q" d="M76.972 67.731a.53.53 0 0 0 .494-.326.53.53 0 0 0-.114-.58.53.53 0 0 0-.58-.114.53.53 0 0 0-.326.494c0 .14.055.273.154.372s.233.154.372.154z"/><path id="r" d="M78.271 66.674a.53.53 0 0 0-.493.325.53.53 0 0 0 .112.58.53.53 0 0 0 .579.117.53.53 0 0 0 .329-.491c.001-.069-.013-.138-.039-.203s-.065-.123-.114-.172-.107-.089-.171-.115-.133-.041-.202-.041z"/><path id="s" d="M79.575 66.674a.53.53 0 0 0-.487.331.53.53 0 0 0 .118.577.53.53 0 0 0 .578.113.53.53 0 0 0 .327-.49c-.001-.141-.058-.276-.158-.376s-.236-.155-.377-.155z"/><path id="t" d="M84.777 67.731a.53.53 0 0 0 .491-.329.53.53 0 0 0-.117-.579.53.53 0 0 0-.58-.112.53.53 0 0 0-.325.493.53.53 0 0 0 .531.526z"/><path id="u" d="M96.466 67.731a.53.53 0 0 0 .494-.326.53.53 0 0 0-.114-.58.53.53 0 0 0-.58-.114.53.53 0 0 0-.326.494.53.53 0 0 0 .526.526z"/><path id="v" d="M97.767 61.233c.106.002.211-.028.3-.086s.159-.141.201-.239.053-.206.033-.31-.071-.2-.146-.276-.171-.127-.275-.148-.212-.01-.31.031-.182.11-.241.199-.09.193-.089.299a.53.53 0 0 0 .526.531z"/><path id="w" d="M71.773 54.726c.104 0 .206-.031.293-.089s.154-.14.194-.236.05-.202.03-.304-.071-.196-.144-.27-.167-.124-.27-.144-.208-.01-.304.03-.178.107-.236.194-.089.188-.089.292c0 .14.055.274.154.372s.233.154.372.154z"/><path id="x" d="M71.773 58.625c.104 0 .206-.031.293-.089s.154-.14.194-.236.05-.202.03-.304-.071-.196-.144-.27-.167-.124-.27-.144-.208-.01-.304.03-.178.107-.236.194-.089.188-.089.293a.53.53 0 0 0 .527.527z"/><path id="y" d="M70.486 54.726c.104 0 .206-.031.292-.089s.154-.14.194-.236.05-.202.03-.304-.07-.196-.144-.27-.168-.124-.27-.144-.208-.01-.304.03-.178.107-.236.194-.089.188-.089.292c0 .14.055.274.154.372s.233.154.372.154z"/><path id="z" d="M70.486 58.625c.104 0 .206-.031.292-.089s.154-.14.194-.236.05-.202.03-.304-.07-.196-.144-.27-.168-.124-.27-.144-.208-.01-.304.03-.178.107-.236.194-.089.188-.089.293a.53.53 0 0 0 .527.527z"/><path id="AA" d="M70.486 61.233c.106.002.211-.028.3-.086s.159-.141.201-.239.053-.206.033-.31-.071-.2-.146-.276-.171-.127-.275-.148-.212-.01-.31.031-.182.11-.241.199-.09.193-.089.299a.53.53 0 0 0 .527.531z"/><path id="AB" d="M78.271 69.273a.53.53 0 0 0-.493.325.53.53 0 0 0 .112.58.53.53 0 0 0 .579.117.53.53 0 0 0 .329-.491c.001-.069-.013-.138-.039-.203s-.065-.123-.114-.172-.107-.088-.171-.115-.133-.04-.202-.04z"/><path id="AC" d="M69.169 66.431a.53.53 0 0 0 .491-.329.53.53 0 0 0-.117-.579.53.53 0 0 0-.58-.112.53.53 0 0 0-.325.493c.002.14.059.273.158.371s.233.154.373.155z"/><path id="AD" d="M84.777 74.25c.104-.001.205-.032.291-.091s.153-.141.192-.237.049-.202.028-.304-.071-.195-.145-.269-.168-.123-.27-.143-.208-.009-.304.031-.178.108-.236.194-.088.188-.088.292a.53.53 0 0 0 .531.527z"/><path id="AE" d="M91.285 61.232c.106.001.21-.03.299-.088s.158-.142.199-.24.052-.206.031-.31-.072-.2-.146-.275-.171-.126-.275-.147-.212-.01-.31.031-.181.11-.24.199-.089.193-.088.299a.53.53 0 0 0 .531.531z"/></defs></svg>