<svg width="66" height="66" viewBox="0 0 66 66" fill="none" xmlns="http://www.w3.org/2000/svg">
<circle cx="33.0238" cy="32.9212" r="32.7402" fill="white"/>
<path d="M53.5031 36.6908V28.9342C53.52 27.9035 53.1553 26.9029 52.4791 26.1247C52.1951 25.8373 51.856 25.6104 51.4821 25.4575C51.1081 25.3046 50.7071 25.229 50.3032 25.2351C48.8824 25.2351 47.9544 26.3039 47.0584 27.3406C46.0665 28.4862 45.1385 29.5678 43.5705 29.5678C42.5594 29.5678 38.9499 26.5471 35.8524 23.0976C35.6249 22.843 35.3057 22.6892 34.9648 22.6699C34.6239 22.6507 34.2894 22.7677 34.0348 22.9952C33.7802 23.2226 33.6264 23.5419 33.6072 23.8827C33.588 24.2236 33.705 24.5581 33.9324 24.8127C35.4748 26.5279 40.7226 32.1277 43.5322 32.1277C46.3417 32.1277 47.82 30.3294 48.9528 29.0174C49.3496 28.563 50.0152 27.795 50.2648 27.795C50.5144 27.795 50.5912 27.8654 50.6296 27.9038C50.8287 28.1981 50.9316 28.5469 50.924 28.9022V36.6908C50.9432 37.0283 50.8282 37.3597 50.604 37.6127C50.3798 37.8657 50.0646 38.0197 49.7272 38.0412H48.7736C48.5872 37.99 48.3904 37.99 48.204 38.0412H32.6908C32.5044 37.99 32.3077 37.99 32.1213 38.0412H26.5022C26.4077 38.019 26.3112 38.0061 26.2142 38.0028C26.1171 38.0053 26.0206 38.0181 25.9262 38.0412H20.3072C20.2128 38.0186 20.1162 38.0057 20.0192 38.0028C19.9222 38.0061 19.8257 38.019 19.7312 38.0412H17.1713C16.607 38.066 16.0519 37.8916 15.6033 37.5484C15.4586 37.3879 15.3482 37.1995 15.2789 36.9948C15.2095 36.7901 15.1827 36.5734 15.2001 36.358C15.2001 35.1612 16.8321 34.4381 19.9552 33.1581C20.7296 32.8445 21.5615 32.5181 22.4319 32.1277C22.5884 32.0625 22.7304 31.9667 22.8496 31.8461C22.9688 31.7255 23.0628 31.5825 23.1263 31.4252C23.1897 31.268 23.2212 31.0997 23.2191 30.9301C23.2169 30.7606 23.1811 30.5931 23.1137 30.4375C23.0463 30.282 22.9486 30.1413 22.8264 30.0238C22.7042 29.9063 22.5598 29.8142 22.4017 29.7529C22.2436 29.6916 22.0749 29.6624 21.9054 29.6669C21.7359 29.6713 21.569 29.7094 21.4144 29.779C20.5632 30.1502 19.7504 30.483 18.9952 30.7902C15.4433 32.2237 12.6402 33.3501 12.6402 36.3388C12.6167 36.9055 12.7128 37.4708 12.9223 37.9979C13.1318 38.525 13.45 39.002 13.8562 39.3979C14.762 40.1796 15.9237 40.601 17.1201 40.5819H18.7456V41.8618C18.7456 42.2013 18.8805 42.5269 19.1205 42.7669C19.3606 43.007 19.6861 43.1418 20.0256 43.1418C20.3651 43.1418 20.6906 43.007 20.9307 42.7669C21.1707 42.5269 21.3056 42.2013 21.3056 41.8618V40.5819H24.9407V41.8618C24.9407 42.2013 25.0755 42.5269 25.3155 42.7669C25.5556 43.007 25.8812 43.1418 26.2206 43.1418C26.5601 43.1418 26.8857 43.007 27.1257 42.7669C27.3657 42.5269 27.5006 42.2013 27.5006 41.8618V40.5819H31.1037V41.8618C31.1037 42.2013 31.2385 42.5269 31.4786 42.7669C31.7186 43.007 32.0442 43.1418 32.3837 43.1418C32.7231 43.1418 33.0487 43.007 33.2887 42.7669C33.5288 42.5269 33.6636 42.2013 33.6636 41.8618V40.5819H47.2057V41.8618C47.2057 42.2013 47.3405 42.5269 47.5805 42.7669C47.8206 43.007 48.1461 43.1418 48.4856 43.1418C48.8251 43.1418 49.1507 43.007 49.3907 42.7669C49.6307 42.5269 49.7656 42.2013 49.7656 41.8618V40.5819C50.7751 40.555 51.7333 40.1316 52.4329 39.4034C53.1324 38.6751 53.5169 37.7006 53.5031 36.6908Z" fill="#1C2733"/>
<path d="M25.1649 32.1981C25.2489 32.3448 25.361 32.4735 25.4948 32.5768C25.6286 32.6801 25.7814 32.7561 25.9445 32.8003C26.1076 32.8446 26.2779 32.8564 26.4456 32.8348C26.6132 32.8133 26.775 32.759 26.9216 32.6749C27.0683 32.5909 27.197 32.4788 27.3003 32.345C27.4036 32.2112 27.4796 32.0584 27.5239 31.8953C27.5681 31.7322 27.5799 31.5619 27.5583 31.3942C27.5368 31.2266 27.4825 31.0648 27.3984 30.9182L25.5937 27.667C25.4222 27.3826 25.1468 27.1759 24.8258 27.0907C24.5047 27.0055 24.1631 27.0485 23.8732 27.2105C23.5832 27.3725 23.3676 27.6409 23.2718 27.959C23.1761 28.2771 23.2078 28.6199 23.3601 28.915L25.1649 32.1981Z" fill="#1C2733"/>
<path d="M28.3772 30.2397C28.4905 30.436 28.6539 30.5987 28.8507 30.7111C29.0474 30.8236 29.2705 30.8817 29.4972 30.8797C29.7208 30.8832 29.9415 30.828 30.1371 30.7197C30.4332 30.5541 30.6514 30.2777 30.7438 29.9513C30.8362 29.6249 30.7952 29.2752 30.6299 28.9789L28.8252 25.7278C28.7411 25.5808 28.6289 25.4517 28.495 25.348C28.3611 25.2443 28.208 25.1679 28.0446 25.1233C27.8812 25.0788 27.7106 25.0668 27.5425 25.0882C27.3745 25.1095 27.2123 25.1638 27.0652 25.2479C26.9182 25.3319 26.7891 25.4441 26.6853 25.578C26.5816 25.7119 26.5053 25.865 26.4607 26.0284C26.4162 26.1919 26.4042 26.3624 26.4256 26.5305C26.4469 26.6985 26.5012 26.8607 26.5852 27.0078L28.3772 30.2397Z" fill="#1C2733"/>
<path d="M31.5836 28.2814C31.6969 28.4777 31.8603 28.6404 32.057 28.7528C32.2538 28.8653 32.4769 28.9234 32.7035 28.9214C32.9292 28.9235 33.1514 28.8658 33.3475 28.7543C33.5437 28.6428 33.7069 28.4814 33.8206 28.2864C33.9344 28.0915 33.9945 27.87 33.995 27.6443C33.9955 27.4187 33.9363 27.1969 33.8235 27.0015L32.0187 23.7504C31.8532 23.4533 31.5765 23.2342 31.2495 23.1412C30.9224 23.0482 30.5718 23.0889 30.2748 23.2544C29.9778 23.4199 29.7586 23.6966 29.6656 24.0236C29.5726 24.3507 29.6133 24.7013 29.7788 24.9983L31.5836 28.2814Z" fill="#1C2733"/>
<path d="M19.5134 35.4748C19.5134 35.8143 19.6483 36.1398 19.8883 36.3798C20.1284 36.6199 20.4539 36.7548 20.7934 36.7548H48.2742C48.6137 36.7548 48.9393 36.6199 49.1793 36.3798C49.4194 36.1398 49.5542 35.8143 49.5542 35.4748C49.5542 35.1353 49.4194 34.8098 49.1793 34.5697C48.9393 34.3297 48.6137 34.1948 48.2742 34.1948H20.7934C20.4539 34.1948 20.1284 34.3297 19.8883 34.5697C19.6483 34.8098 19.5134 35.1353 19.5134 35.4748Z" fill="#1C2733"/>
</svg>
