<svg width="16" height="16" viewBox="0 0 16 16" fill="none" xmlns="http://www.w3.org/2000/svg">
<path d="M8 1.44375C5.8625 1.44375 5.6125 1.45 4.76875 1.4875C3.9875 1.525 3.5625 1.65625 3.28125 1.7625C2.90625 1.90625 2.64375 2.08125 2.3625 2.3625C2.08125 2.64375 1.90625 2.90625 1.7625 3.28125C1.65 3.5625 1.525 3.9875 1.4875 4.76875C1.45 5.6125 1.44375 5.8625 1.44375 8C1.44375 10.1375 1.45 10.3875 1.4875 11.2312C1.525 12.0125 1.65625 12.4375 1.7625 12.7188C1.90625 13.0938 2.08125 13.3562 2.3625 13.6375C2.64375 13.9187 2.90625 14.0938 3.28125 14.2375C3.5625 14.35 3.9875 14.475 4.76875 14.5125C5.6125 14.55 5.8625 14.5562 8 14.5562C10.1375 14.5562 10.3875 14.55 11.2312 14.5125C12.0125 14.475 12.4375 14.3438 12.7188 14.2375C13.0938 14.0938 13.3563 13.9187 13.6375 13.6375C13.9188 13.3562 14.0938 13.0938 14.2375 12.7188C14.35 12.4375 14.475 12.0125 14.5125 11.2312C14.55 10.3875 14.5562 10.1375 14.5562 8C14.5562 5.8625 14.55 5.6125 14.5125 4.76875C14.475 3.9875 14.3438 3.5625 14.2375 3.28125C14.0938 2.90625 13.9188 2.64375 13.6375 2.3625C13.3563 2.08125 13.0938 1.90625 12.7188 1.7625C12.4375 1.65 12.0125 1.525 11.2312 1.4875C10.3875 1.45 10.1375 1.44375 8 1.44375ZM8 0C10.175 0 10.4438 0.00625 11.3 0.05C12.15 0.0875 12.7312 0.225 13.2375 0.41875C13.7625 0.625 14.2125 0.89375 14.6562 1.34375C15.1 1.79375 15.375 2.23125 15.5813 2.7625C15.7813 3.26875 15.9125 3.85 15.95 4.70625C15.9937 5.55625 16 5.825 16 8C16 10.175 15.9937 10.4438 15.95 11.3C15.9125 12.15 15.775 12.7312 15.5813 13.2437C15.375 13.7687 15.1062 14.2188 14.6562 14.6625C14.2125 15.1063 13.7625 15.3812 13.2375 15.5875C12.7312 15.7875 12.15 15.9187 11.2937 15.9563C10.4375 15.9938 10.1687 16.0063 7.99375 16.0063C5.81875 16.0063 5.55 16 4.69375 15.9563C3.84375 15.9187 3.2625 15.7812 2.75 15.5875C2.225 15.3812 1.775 15.1125 1.33125 14.6625C0.8875 14.2188 0.6125 13.7687 0.40625 13.2437C0.20625 12.7375 0.0750008 12.1562 0.0375004 11.3C0 10.4438 -0.0125008 10.175 -0.0125008 8C-0.0125008 5.825 -0.00625038 5.55625 0.0375004 4.7C0.0750008 3.85 0.2125 3.26875 0.40625 2.75625C0.6125 2.23125 0.88125 1.78125 1.33125 1.3375C1.78125 0.89375 2.23125 0.625 2.7625 0.41875C3.26875 0.21875 3.85 0.0875 4.70625 0.05C5.55625 0.00625 5.825 0 8 0ZM8 3.89375C10.2688 3.89375 12.1063 5.73125 12.1063 8C12.1063 10.2688 10.2688 12.1062 8 12.1062C5.73125 12.1062 3.89375 10.2688 3.89375 8C3.89375 5.73125 5.73125 3.89375 8 3.89375ZM8 10.6687C9.475 10.6687 10.6687 9.475 10.6687 8C10.6687 6.525 9.475 5.33125 8 5.33125C6.525 5.33125 5.33125 6.525 5.33125 8C5.33125 9.475 6.525 10.6687 8 10.6687ZM2.76875 3.73125C2.76875 4.2625 3.2 4.69375 3.73125 4.69375C4.2625 4.69375 4.6875 4.2625 4.6875 3.73125C4.6875 3.2 4.25625 2.76875 3.725 2.76875C3.19375 2.76875 2.76875 3.2 2.76875 3.73125Z" fill="white"/>
</svg>
