<svg width="16" height="16" viewBox="0 0 16 16" fill="none" xmlns="http://www.w3.org/2000/svg">
<path d="M1.92481 0C0.859291 0 0 0.861141 0 1.92896C0 2.99677 0.859291 3.85791 1.92481 3.85791C2.99033 3.85791 3.84962 2.99677 3.84962 1.92896C3.84962 0.861141 2.99033 0 1.92481 0Z" fill="white"/>
<path d="M3.57468 5.30469H0.257812V16.0001H3.57468V5.30469Z" fill="white"/>
<path d="M12.0121 5.04688C10.3966 5.04688 9.3139 5.92524 8.88425 6.76916H8.8327V5.30522H5.65332V16.0006H8.97018V10.7132C8.97018 9.31814 9.22797 7.97476 10.9637 7.97476C12.6651 7.97476 12.6823 9.57648 12.6823 10.8165V16.0178H15.9992V10.1621C15.9992 7.26862 15.3805 5.04688 12.0121 5.04688Z" fill="white"/>
</svg>
