<svg width="15" height="16" viewBox="0 0 15 16" fill="none" xmlns="http://www.w3.org/2000/svg">
<path d="M14.9926 4.00548C14.0176 4.00548 13.1161 3.70194 12.3948 3.19186C11.5667 2.60669 10.969 1.74614 10.7587 0.757285C10.7052 0.513202 10.6785 0.25973 10.6752 0H7.88702V7.13788L7.88368 11.0464C7.88368 12.0915 7.15575 12.9771 6.15068 13.29C5.85684 13.3808 5.54297 13.4246 5.21573 13.4058C4.79501 13.3839 4.40433 13.265 4.0604 13.0741C3.33248 12.6673 2.84163 11.9288 2.82827 11.0808C2.80824 9.76022 3.94687 8.68062 5.35598 8.68062C5.63312 8.68062 5.90025 8.72443 6.15068 8.79953V6.84999V6.15216C5.88689 6.11461 5.61976 6.09583 5.34596 6.09583C3.80329 6.09583 2.3608 6.69666 1.32901 7.77939C0.551 8.59613 0.0835244 9.64131 0.0100641 10.7366C-0.083431 12.1729 0.477539 13.5404 1.56609 14.548C1.72637 14.6951 1.89332 14.8328 2.07029 14.9611C3.0019 15.6339 4.14388 16 5.34596 16C5.61643 16 5.88689 15.9812 6.15068 15.9437C7.27262 15.7872 8.30775 15.3053 9.12583 14.548C10.1309 13.6186 10.6852 12.3826 10.6919 11.0683L10.6785 5.22902C11.156 5.57637 11.6802 5.86114 12.2446 6.08332C13.1194 6.43067 14.0477 6.60278 14.9993 6.60278V4.70643V4.00235C15.0027 4.00548 14.9926 4.00548 14.9926 4.00548Z" fill="white"/>
</svg>
