<?xml version="1.0" encoding="utf-8"?>
<!-- Generator: Adobe Illustrator 25.4.1, SVG Export Plug-In . SVG Version: 6.00 Build 0)  -->
<svg version="1.1" id="Warstwa_1" xmlns="http://www.w3.org/2000/svg" xmlns:xlink="http://www.w3.org/1999/xlink" x="0px" y="0px"
	 viewBox="0 0 45.7 23.8" style="enable-background:new 0 0 45.7 23.8;" xml:space="preserve">
<style type="text/css">
	.st0{fill:#FFFFFF;stroke:#FFFFFF;stroke-width:0.8;}
	.st1{fill:none;stroke:#FFFFFF;stroke-width:4.2;}
</style>
<path class="st0" d="M44.3,0.5L44.3,0.5L44.3,0.5c-0.3-0.1-0.7-0.2-1-0.1c-0.3,0.1-0.6,0.2-0.9,0.4l0,0l0,0l-7.6,7.7l0,0l0,0
	c-0.2,0.2-0.3,0.3-0.4,0.6c-0.1,0.2-0.1,0.4-0.1,0.7v4.4l0,0l0,0c0,0.4,0.2,0.9,0.5,1.2l0,0l0,0l7.6,7.5l0,0
	c0.2,0.2,0.4,0.3,0.6,0.4c0.2,0.1,0.4,0.1,0.7,0.1l0,0l0,0c0.2,0,0.4,0,0.6-0.1l0,0l0,0c0.3-0.1,0.6-0.4,0.7-0.6
	c0.2-0.3,0.3-0.6,0.3-0.9l0,0V2.1c0-0.3-0.1-0.7-0.3-0.9l-0.2,0.2l0.3-0.2C44.9,0.9,44.6,0.7,44.3,0.5z M37.8,10.4L42,6.2v11.2
	l-4.2-4.1V10.4z"/>
<path class="st1" d="M7,21.6h17.9c2.7,0,4.9-2.2,4.9-4.9V7c0-2.7-2.2-4.9-4.9-4.9H7C4.3,2.1,2.1,4.3,2.1,7v9.6
	C2,19.3,4.2,21.6,7,21.6z"/>
</svg>
