<svg width="28" height="40" viewBox="0 0 28 40" fill="none" xmlns="http://www.w3.org/2000/svg">
<g clip-path="url(#clip0)">
<path d="M22.001 0.00027613H6.00101C5.20905 -0.0143786 4.42226 0.130804 3.68768 0.427144C2.95311 0.723484 2.28582 1.1649 1.72573 1.72499C1.16563 2.28509 0.724216 2.95238 0.427876 3.68695C0.131536 4.42153 -0.0136461 5.20831 0.00100855 6.00028V34.0003C-0.0136461 34.7922 0.131536 35.579 0.427876 36.3136C0.724216 37.0482 1.16563 37.7155 1.72573 38.2756C2.28582 38.8357 2.95311 39.2771 3.68768 39.5734C4.42226 39.8697 5.20905 40.0149 6.00101 40.0003H22.001C22.793 40.0149 23.5798 39.8697 24.3143 39.5734C25.0489 39.2771 25.7162 38.8357 26.2763 38.2756C26.8364 37.7155 27.2778 37.0482 27.5741 36.3136C27.8705 35.579 28.0157 34.7922 28.001 34.0003V6.00028C28.0157 5.20831 27.8705 4.42153 27.5741 3.68695C27.2778 2.95238 26.8364 2.28509 26.2763 1.72499C25.7162 1.1649 25.0489 0.723484 24.3143 0.427144C23.5798 0.130804 22.793 -0.0143786 22.001 0.00027613ZM24.001 34.0003C24.0174 34.2672 23.9769 34.5345 23.8821 34.7846C23.7874 35.0347 23.6406 35.2617 23.4516 35.4508C23.2625 35.6399 23.0354 35.7867 22.7853 35.8814C22.5352 35.9761 22.2679 36.0166 22.001 36.0003H6.00101C5.7341 36.0166 5.46677 35.9761 5.2167 35.8814C4.96663 35.7867 4.73954 35.6399 4.55045 35.4508C4.36137 35.2617 4.21461 35.0347 4.11988 34.7846C4.02516 34.5345 3.98464 34.2672 4.00101 34.0003V6.00028C3.98464 5.73337 4.02516 5.46603 4.11988 5.21597C4.21461 4.9659 4.36137 4.7388 4.55045 4.54972C4.73954 4.36064 4.96663 4.21387 5.2167 4.11915C5.46677 4.02443 5.7341 3.98391 6.00101 4.00028H22.001C22.2679 3.98391 22.5352 4.02443 22.7853 4.11915C23.0354 4.21387 23.2625 4.36064 23.4516 4.54972C23.6406 4.7388 23.7874 4.9659 23.8821 5.21597C23.9769 5.46603 24.0174 5.73337 24.001 6.00028V34.0003Z" fill="white"/>
<path d="M16 28H12C11.4696 28 10.9609 28.2107 10.5858 28.5858C10.2107 28.9609 10 29.4696 10 30C10 30.5304 10.2107 31.0391 10.5858 31.4142C10.9609 31.7893 11.4696 32 12 32H16C16.5304 32 17.0391 31.7893 17.4142 31.4142C17.7893 31.0391 18 30.5304 18 30C18 29.4696 17.7893 28.9609 17.4142 28.5858C17.0391 28.2107 16.5304 28 16 28Z" fill="white"/>
</g>
<defs>
<clipPath id="clip0">
<rect width="28" height="40" fill="white"/>
</clipPath>
</defs>
</svg>
