<svg width="36" height="36" viewBox="0 0 36 36" fill="none" xmlns="http://www.w3.org/2000/svg">
<path fill-rule="evenodd" clip-rule="evenodd" d="M28.8 0C29.8531 0 30.6812 0.900047 30.5938 1.94948L30.456 3.6H34.2C35.1941 3.6 36 4.40589 36 5.4V12.6C36 16.5583 32.8058 19.7705 28.8545 19.7998C27.9869 23.0052 26.0844 25.8644 23.4 27.9237L23.3982 32.4H30.6C31.5941 32.4 32.4 33.2059 32.4 34.2C32.4 35.1941 31.5941 36 30.6 36H5.4C4.40589 36 3.6 35.1941 3.6 34.2C3.6 33.2059 4.40589 32.4 5.4 32.4H12.5982L12.6 27.9251L12.1805 27.5927C9.72552 25.576 7.96941 22.8472 7.14425 19.7997C3.31586 19.7697 0.200265 16.7548 0.00927839 12.9687L0 12.6V5.4C0 4.4769 0.694872 3.71609 1.59008 3.61211L1.8 3.6H5.5422L5.40622 1.94948C5.31876 0.900047 6.14693 0 7.2 0H28.8ZM26.844 3.6H9.15645L10.255 16.7829C10.5499 20.3218 12.444 23.5325 15.3987 25.5023C15.8994 25.8361 16.2002 26.3982 16.2002 27V32.4H19.8002V27C19.8002 26.4103 20.0891 25.8579 20.5735 25.5215L20.9656 25.2496C23.7157 23.2614 25.4632 20.1692 25.7454 16.7829L26.844 3.6ZM5.8428 7.2H3.6V12.6C3.6 14.3803 4.89229 15.8588 6.58999 16.1485L5.8428 7.2ZM32.4 12.6V7.2H30.1554L29.41 16.1485C31.1077 15.8588 32.4 14.3803 32.4 12.6Z" fill="white"/>
</svg>
