<svg width="1110" height="324" viewBox="0 0 1110 324" fill="none" xmlns="http://www.w3.org/2000/svg">
<path d="M50.0344 324V49.2H0.034375V-2.47955e-05H165.634V49.2H116.434V324H50.0344ZM167.306 324L230.106 -2.47955e-05H303.306L365.706 324H304.506L292.906 252.8H241.706L229.306 324H167.306ZM247.706 212.4H286.506L266.906 81.6L247.706 212.4ZM396.197 324V-2.47955e-05H462.197V279.2H538.197V324H396.197ZM566.9 324V-2.47955e-05H708.1V45.6H632.9V131.6H690.9V177.6H632.9V279.2H708.9V324H566.9ZM742.291 324V-2.47955e-05H788.291L860.291 168.8V-2.47955e-05H914.691V324H870.691L798.691 144.8V324H742.291ZM994.175 324V49.2H944.175V-2.47955e-05H1109.78V49.2H1060.58V324H994.175Z" fill="white"/>
</svg>
